<svg id="Layer_1" data-name="Layer 1" xmlns="http://www.w3.org/2000/svg" viewBox="0 0 1996.8 572.93"><title>Eindhoven_University_of_Technology_logo</title><polygon points="218.47 70.87 0 70.87 0 121.78 68.28 121.78 68.28 354.33 133.95 354.33 133.95 121.78 203.87 121.78 218.47 70.87" style="fill:#fff"/><path d="M394.23,426.27c78.55,0,100.49-41.13,100.49-85.62V141.91h-61.8V326.48c0,31.3-11.52,47.3-38.69,47.3s-38.69-16-38.69-47.3V141.91h-61.8V340.65c0,44.49,21.94,85.62,100.49,85.62" transform="translate(-36.37 -71.04)" style="fill:#fff"/><path d="M795.49,308.45h-56v-.72c0-12.08,3.18-40.11,28-40.11,6.55,0,28-.3,28,36.77v4.05Zm50.23,21.85c0-58.91-22-98.13-78.22-98.13-53,0-81.18,40.88-81.18,98.13,0,35.17,14.72,96,90.68,96,30.81,0,55-16.27,66.58-25.67l-18.85-29.08s-18.79,18.6-47.54,18.6c-27,0-38.44-19.54-38.44-46.56h107V330.29Z" transform="translate(-36.37 -71.04)" style="fill:#fff"/><polygon points="537.36 425.2 659.29 0 613.93 0 492.01 425.2 537.36 425.2" style="fill:#fff"/><path d="M1975.53,160.71H1963a134.2,134.2,0,0,1,1-14.4l-8.2,1.8s-.8,7.8-.8,12.6h-6.5v5.9h6.5v34.2c0,5,1.3,8.2,4.8,9.9a14.49,14.49,0,0,0,6.5,1.4,18.45,18.45,0,0,0,8.8-2l-1.1-5a9.92,9.92,0,0,1-4.9,1c-4.9,0-6.4-1.9-6.4-7.4v-32.1h10.4Zm-39.3-15.4a6.06,6.06,0,0,0-6.1-6.1,6.15,6.15,0,0,0-6.1,6.2,6.1,6.1,0,0,0,12.2-.1m-2.2,65.2v-50.9l-8.1,1.3v49.6h8.1Zm-33.4-29.5h-22.8c.4-10.3,4.4-15.5,11.5-15.5,3.8,0,7.3,1.7,9,4.4,1.5,2.4,2.2,5.7,2.3,11.1m8.3,5.9v-1.1c0-11.9-1.4-16.6-5.7-21a19.55,19.55,0,0,0-28.4,1.5c-4.2,5-6,10.4-6,18.8,0,16.5,8.3,26.5,22.1,26.5a24.87,24.87,0,0,0,16.8-6.2l-3-5a17.14,17.14,0,0,1-12.2,4.7c-5,0-9.6-1.8-12.4-6.1-1.7-2.6-2.3-6.2-2.3-10.9v-1.2Zm-50.1-26.2h-12.5a134.2,134.2,0,0,1,1-14.4l-8.2,1.8s-.8,7.8-.8,12.6h-6.5v5.9h6.5v34.2c0,5,1.3,8.2,4.8,9.9a14.49,14.49,0,0,0,6.5,1.4,18.45,18.45,0,0,0,8.8-2l-1.1-5a9.93,9.93,0,0,1-4.9,1c-4.9,0-6.4-1.9-6.4-7.4v-32.1h10.4Zm-39.3-15.4a6.06,6.06,0,0,0-6.1-6.1,6.15,6.15,0,0,0-6.1,6.2,6.1,6.1,0,0,0,12.2-.1m-2.2,65.2v-50.9l-8.1,1.3v49.6h8.1Zm-24.1-14.8c0-7.4-4.3-12-13.3-13.9l-6.6-1.4c-5.3-1.1-7.2-3.4-7.2-7.2,0-4.9,3.7-8.2,9.4-8.2,4.4,0,8.1,1.5,12.5,3.6l2.9-5.8a32.45,32.45,0,0,0-15.2-4c-10.4,0-17.7,6.3-17.7,15.3,0,6.9,4.4,12,12.6,13.7l6.2,1.3c5.7,1.2,8.2,3.7,8.2,8.2,0,5.3-4,8.6-10.1,8.6a29.92,29.92,0,0,1-15.8-4.7l-3,5.8a36.88,36.88,0,0,0,18.3,5c11.2,0,18.8-6.6,18.8-16.3m-42.6-36a9.38,9.38,0,0,0-2.7-.5c-5.1,0-10.4,3.2-14,8.3a18,18,0,0,0-1.6-8.1l-7.8,2.1s1.7,3.3,1.7,10.6v38.4h7.8v-31.2c0-4.1.6-5.6,2.9-7.9a11.87,11.87,0,0,1,8.3-3.6,6.65,6.65,0,0,1,2.2.4Zm-49.7,21.3h-22.8c.4-10.3,4.4-15.5,11.5-15.5,3.8,0,7.3,1.7,9,4.4,1.5,2.4,2.2,5.7,2.3,11.1m8.3,5.9v-1.1c0-11.9-1.4-16.6-5.7-21a19.55,19.55,0,0,0-28.4,1.5c-4.2,5-6,10.4-6,18.8,0,16.5,8.3,26.5,22.1,26.5a24.87,24.87,0,0,0,16.8-6.2l-3-5a17.14,17.14,0,0,1-12.2,4.7c-5,0-9.6-1.8-12.4-6.1-1.7-2.6-2.3-6.2-2.3-10.9v-1.2Zm-49.6-26.2h-8.3l-11.4,33.1a70.32,70.32,0,0,0-2.4,8.4h-.2s-1-4.4-2.4-8.5l-11.6-34.3-8,1.7,17.9,49.9h7.7Zm-55.1-15.4a6.06,6.06,0,0,0-6.1-6.1,6.15,6.15,0,0,0-6.1,6.2,6.1,6.1,0,0,0,12.2-.1m-2.2,65.2v-50.9l-8.1,1.3v49.6h8.1Zm-29.1,0v-37.8a14.33,14.33,0,0,0-1.2-5.8c-2-4.4-6.8-7.3-12.2-7.3s-10.5,2.5-15.7,7.7a20.15,20.15,0,0,0-1.8-7.8l-7.6,2.1s1.9,3.4,1.9,10.5v38.4h7.6V173.4c3.6-3.8,9.8-7,13.8-7a7.3,7.3,0,0,1,5.5,2.1c1.4,1.7,1.8,3,1.8,8.3v33.7h7.9Zm-57.1-19.8v-48.8H1508v47.8c0,4.6-.3,7.6-2.6,10.7-2.1,2.8-6.4,4.3-12.1,4.3-8.4,0-12.1-3.7-13.4-6.7-.9-2.1-1.2-6.5-1.2-9.9v-46.2h-8.1v49.2c0,3,.2,7.4,2,10.7,3.7,6.8,9.7,9.9,20.3,9.9,8.3,0,13.8-1.7,18-5.3s5.2-7.4,5.2-15.7m-95.3-9.7H1398c.4-10.3,4.4-15.5,11.5-15.5,3.8,0,7.3,1.7,9,4.4,1.5,2.4,2.2,5.7,2.3,11.1m8.3,5.9v-1.1c0-11.9-1.4-16.6-5.7-21a19.56,19.56,0,0,0-28.4,1.5c-4.2,5-6,10.4-6,18.8,0,16.5,8.3,26.5,22.1,26.5a24.88,24.88,0,0,0,16.8-6.2l-3-5a17.15,17.15,0,0,1-12.2,4.7c-5,0-9.6-1.8-12.4-6.1-1.7-2.6-2.3-6.2-2.3-10.9v-1.2Zm-58.1,23.6v-35.7a22.18,22.18,0,0,0-.8-7.2c-1.4-4.6-6.8-7.9-12.8-7.9-6.4,0-12.1,3.7-16.6,7.9,0,0,.3-3.6.3-6.8v-11.6a43.83,43.83,0,0,0-1.3-11.8l-7.8,1.5a33.62,33.62,0,0,1,1.3,10.2v61.4h7.8V175.1c4.3-5.3,9.7-8.4,14.5-8.4a8.27,8.27,0,0,1,5.8,2c1.4,1.4,1.9,3.7,1.9,7.4v34.4h7.7Zm-51.2-5.5-4.3-5a13.89,13.89,0,0,1-10.7,5.4c-8,0-12.3-6.1-12.3-17.3,0-7.3.9-12.8,2.8-16.3a10.74,10.74,0,0,1,9.4-5.6c3.8,0,6,1.1,9.5,4l4.3-5.4c-3.6-3-7.3-5.4-13.6-5.4a18.17,18.17,0,0,0-13.5,5.8c-4.3,4.3-7.5,10.3-7.5,21.2,0,7.4,1.5,12.9,4.8,17.7q5.25,7.5,15.9,7.5c6.2,0,10.6-1.9,15.2-6.6m-49.4-9.3c0-7.4-4.3-12-13.3-13.9l-6.6-1.4c-5.3-1.1-7.2-3.4-7.2-7.2,0-4.9,3.7-8.2,9.4-8.2,4.4,0,8.1,1.5,12.5,3.6l2.9-5.8a32.45,32.45,0,0,0-15.2-4c-10.4,0-17.7,6.3-17.7,15.3,0,6.9,4.4,12,12.6,13.7l6.2,1.3c5.7,1.2,8.2,3.7,8.2,8.2,0,5.3-4,8.6-10.1,8.6a29.92,29.92,0,0,1-15.8-4.7l-3,5.8a36.88,36.88,0,0,0,18.3,5c11.2,0,18.8-6.6,18.8-16.3m-50.9-50.4a6.06,6.06,0,0,0-6.1-6.1,6.15,6.15,0,0,0-6.1,6.2,6.1,6.1,0,0,0,12.2-.1m-2.2,65.2v-50.9l-8.1,1.3v49.6h8.1Zm-29.1,0v-37.8a14.33,14.33,0,0,0-1.2-5.8c-2-4.4-6.8-7.3-12.2-7.3s-10.5,2.5-15.7,7.7a20.15,20.15,0,0,0-1.8-7.8l-7.6,2.1s1.9,3.4,1.9,10.5v38.4h7.6V173.4c3.6-3.8,9.8-7,13.8-7a7.3,7.3,0,0,1,5.5,2.1c1.4,1.7,1.8,3,1.8,8.3v33.7h7.9Zm-57.6,0v-35.7a22.21,22.21,0,0,0-.8-7.2c-1.4-4.6-6.8-7.9-12.8-7.9-6.4,0-12.1,3.7-16.6,7.9,0,0,.3-3.6.3-6.8v-11.6a43.83,43.83,0,0,0-1.3-11.8l-7.8,1.5a33.64,33.64,0,0,1,1.3,10.2v61.4h7.8V175.1c4.3-5.3,9.7-8.4,14.5-8.4a8.26,8.26,0,0,1,5.8,2c1.4,1.4,1.9,3.7,1.9,7.4v34.4h7.7Zm-51.2-5.5-4.3-5a13.89,13.89,0,0,1-10.7,5.4c-8,0-12.3-6.1-12.3-17.3,0-7.3.9-12.8,2.8-16.3a10.74,10.74,0,0,1,9.4-5.6c3.8,0,6,1.1,9.5,4l4.3-5.4c-3.6-3-7.3-5.4-13.6-5.4a18.17,18.17,0,0,0-13.5,5.8c-4.3,4.3-7.5,10.3-7.5,21.2,0,7.4,1.5,12.9,4.8,17.7q5.25,7.5,15.9,7.5c6.2,0,10.6-1.9,15.2-6.6m-58.2-24h-22.8c.4-10.3,4.4-15.5,11.5-15.5,3.8,0,7.3,1.7,9,4.4,1.5,2.4,2.2,5.7,2.3,11.1m8.3,5.9v-1.1c0-11.9-1.4-16.6-5.7-21a19.56,19.56,0,0,0-28.4,1.5c-4.2,5-6,10.4-6,18.8,0,16.5,8.3,26.5,22.1,26.5a24.87,24.87,0,0,0,16.8-6.2l-3-5a17.15,17.15,0,0,1-12.2,4.7c-5,0-9.6-1.8-12.4-6.1-1.7-2.6-2.3-6.2-2.3-10.9v-1.2Zm-42.1-45H942v6.9h18.4v61.7h7.9v-61.7h18.6Z" transform="translate(-36.37 -71.04)" style="fill:#fff"/><path d="M1413.66,317.95v-37.4a20.69,20.69,0,0,0-1-7.3c-1.6-4.4-6.6-7.4-12.3-7.4a21.11,21.11,0,0,0-9.2,2.2,59.27,59.27,0,0,0-5.9,3.8,13.11,13.11,0,0,0-1.9-6.4l-11.9,3.4a36.92,36.92,0,0,1,1.8,12v37.1h13.4v-36.2c3.1-2.8,6.6-4.6,9.3-4.6,3.5,0,4.5,1.7,4.5,7.5v33.3h13.2Zm-66.8-31.2h-15.5v-.2c0-7.1,2.9-11.1,8-11.1a6.49,6.49,0,0,1,5.9,3c1.2,1.9,1.6,3.9,1.6,7.7Zm13.9,9.8v-3.1c0-10.7-2.1-17.6-6.8-22.4-3.3-3.4-8.9-5.4-14.8-5.4-6.8,0-11.9,2.2-16.1,6.9-4.5,5-6.4,11.1-6.4,20.3,0,16.1,9.5,26.5,24.2,26.5a29.38,29.38,0,0,0,19.3-7.1l-5.2-8c-4.1,3.4-8.4,5.1-13,5.1-6.9,0-10.8-4.5-10.8-12.4v-.4h29.6Zm-49.6-29.8h-14l-6.9,21.5a86.21,86.21,0,0,0-3.1,13c-.7-3.3-2.2-8.9-3.3-12.3l-7.4-23.1-13.7,1.7,18.6,50.4h11.1Zm-67.5,25.3c0,12.1-2.5,17.3-8.3,17.3a7.41,7.41,0,0,1-6.8-4.2c-1.1-2.6-1.7-7-1.7-12.9a36.49,36.49,0,0,1,1.4-11.4,7.33,7.33,0,0,1,12.7-2.5c1.8,2.3,2.7,6.8,2.7,13.7m14.6.1c0-8.3-1.8-13.9-5.9-18.7-4.4-5.2-10.1-7.7-17.4-7.7-13.8,0-23,10.7-23,26.8s9.1,26.5,23,26.5c7.9,0,13-2.7,16.9-7.1,4.4-5,6.4-11,6.4-19.8m-59.8,25.8v-35.8c0-4.9-.3-6.6-1.3-9.5-1.6-4.5-6.8-7.3-13.3-7.3a22.41,22.41,0,0,0-14.5,5.5c0-.6.2-2.7.2-4.3v-10.2a69.07,69.07,0,0,0-.9-12.5L1155,247c.6,2.1,1,6.9,1,11.7v59.2h13.6v-36.7c3-2.7,7.3-4.7,10.6-4.7,3.8,0,5.2,1.9,5.2,7v34.4h13.1Zm-72.6-13.3a9.58,9.58,0,0,1-6.6,3.3c-7,0-9.3-3.6-9.3-14.6,0-11.4,2.6-16.4,8.6-16.4,2.4,0,4.8,1.1,7.3,3.3Zm15,13.3c-.9-2-1.9-6.1-1.9-18.7V246l-13.3-2.1v17.6a62.34,62.34,0,0,0,.4,7.6,13.8,13.8,0,0,0-9.1-2.9c-13,0-21.9,11-21.9,27s8.2,26,21.2,26a17.17,17.17,0,0,0,11.8-4.3,9.15,9.15,0,0,0,.8,3h12Zm-59.8,0v-37.4a20.67,20.67,0,0,0-1-7.3c-1.6-4.4-6.6-7.4-12.3-7.4a21.12,21.12,0,0,0-9.2,2.2,59.26,59.26,0,0,0-5.9,3.8,13.11,13.11,0,0,0-1.9-6.4l-11.9,3.4a36.92,36.92,0,0,1,1.8,12v37.1h13.4v-36.2c3.1-2.8,6.6-4.6,9.3-4.6,3.5,0,4.5,1.7,4.5,7.5v33.3h13.2Zm-55.8-65.3a8.17,8.17,0,0,0-8.1-8.3,8.36,8.36,0,0,0-8.4,8.3,8.25,8.25,0,1,0,16.5,0m-1.6,65.3v-52.4l-13.4,2.1v50.3h13.4Zm-25.4,0v-12H972v-18.6h19.7v-11.4h-19.9v-16.1h23.8l1.8-11.4h-39.6v69.5Z" transform="translate(-36.37 -71.04)" style="fill:#fff"/><path d="M2033.17,375.58h-8.9l-9.8,32.7c-1.2,4.1-3.1,10.5-3.1,10.5h-.2s-1.5-7.7-3-12.4l-10.2-32.3-7.7,2.6,10.7,31.2c1.7,5,4.4,14.7,5,17.9l3.2-.5c-2.7,10.1-5.1,13.3-11.5,15.3l2.3,5.3c8.7-2.1,12.8-8.7,16.1-18.7Zm-65.3,15.4c0,6.7-3,10.2-9,10.2-6.3,0-9.6-3.5-9.6-9.9,0-6.9,3.2-10.3,9.4-10.3,6.6,0,9.2,3.2,9.2,10m17.9-11-4.8-4.8a11.32,11.32,0,0,1-6.9,2.2c-6.1,0-7.6-2.8-15.2-2.8-10.9,0-18.4,6.8-18.4,16.8,0,6.6,4.5,12.3,11.2,14.4-6.8,2.1-9,4.5-9,8.5,0,4.5,3.5,7.2,9.4,7.2,1.6,0,5.7-.1,7.7-.1,4.9,0,7.9.5,9.8,1.8s2.7,3.3,2.7,6c0,6.2-4.4,8.7-12.1,8.7a20.94,20.94,0,0,1-10.1-2.3,6.55,6.55,0,0,1-2.9-5.8,9.21,9.21,0,0,1,1.4-4.5l-8.2.7a15,15,0,0,0-1,5.3c0,7.1,6,12.7,21.6,12.7,12.1,0,19.8-4.9,19.8-15.7a11.94,11.94,0,0,0-5.5-10.5c-3-2.1-6.2-2.8-12-2.8h-8c-2.5,0-4-.9-4-2.4,0-1.7,2.3-3.4,9-5.8,3.6,0,6.8-.6,9.3-2.2a16.16,16.16,0,0,0,7.4-13.7,13.18,13.18,0,0,0-3-8.5,8.62,8.62,0,0,0,3.4.6c3,0,5.3-.8,8.4-3m-68.3,21.9c0,4.9-.4,7.7-1.5,10.8a10.82,10.82,0,0,1-10.8,7.5c-4.3,0-8.3-2-10.1-5s-3.1-9.3-3.1-16.3c0-5.9.8-9.9,2.4-13,1.7-3.3,5.8-5.4,10.2-5.4a11.54,11.54,0,0,1,10.6,6.4c1.6,3.3,2.3,8,2.3,15m8.9-.6c0-8.1-1.5-14-4.6-18.5-3.4-4.9-8.8-8.7-17.1-8.7-13.1,0-21.2,9.9-21.2,26.1,0,16.4,7.8,26.5,21.5,26.5,12.5,0,21.4-8.8,21.4-25.4m-55,24-1.6-5.1a5.65,5.65,0,0,1-1,.2c-2.2,0-2.8-1.1-2.8-5v-50.9a43.81,43.81,0,0,0-1.3-11.8l-7.8,1.5a36.25,36.25,0,0,1,1.2,10.2v52.8c0,3.6.8,5.7,2.4,7.1a8.35,8.35,0,0,0,5.9,2.1,9.87,9.87,0,0,0,5-1.1m-39.2-23.4c0,4.9-.4,7.7-1.5,10.8a10.82,10.82,0,0,1-10.8,7.5c-4.3,0-8.3-2-10.1-5s-3.1-9.3-3.1-16.3c0-5.9.8-9.9,2.4-13,1.7-3.3,5.8-5.4,10.2-5.4a11.54,11.54,0,0,1,10.6,6.4c1.6,3.3,2.3,8,2.3,15m8.9-.6c0-8.1-1.5-14-4.6-18.5-3.4-4.9-8.8-8.7-17.1-8.7-13.1,0-21.2,9.9-21.2,26.1,0,16.4,7.8,26.5,21.5,26.5,12.5,0,21.4-8.8,21.4-25.4m-60.4,24.1v-37.8a14.35,14.35,0,0,0-1.2-5.8c-2-4.4-6.8-7.3-12.2-7.3s-10.5,2.5-15.7,7.7a20.15,20.15,0,0,0-1.8-7.8l-7.6,2.1s1.9,3.4,1.9,10.5v38.4h7.6v-37.1c3.6-3.8,9.8-7,13.8-7a7.3,7.3,0,0,1,5.5,2.1c1.4,1.7,1.8,3,1.8,8.3v33.7h7.9Zm-57.6,0v-35.7a22.18,22.18,0,0,0-.8-7.2c-1.4-4.6-6.8-7.9-12.8-7.9-6.4,0-12.1,3.7-16.6,7.9,0,0,.3-3.6.3-6.8v-11.6a43.82,43.82,0,0,0-1.3-11.8l-7.8,1.5a33.62,33.62,0,0,1,1.3,10.2v61.4h7.8V390c4.3-5.3,9.7-8.4,14.5-8.4a8.27,8.27,0,0,1,5.8,2c1.4,1.4,1.9,3.7,1.9,7.4v34.4h7.7Zm-51.2-5.5-4.3-5a13.89,13.89,0,0,1-10.7,5.4c-8,0-12.3-6.1-12.3-17.3,0-7.3.9-12.8,2.8-16.3a10.74,10.74,0,0,1,9.4-5.6c3.8,0,6,1.1,9.5,4l4.3-5.4c-3.6-3-7.3-5.4-13.6-5.4a18.17,18.17,0,0,0-13.5,5.8c-4.3,4.3-7.5,10.3-7.5,21.2,0,7.4,1.5,12.9,4.8,17.7q5.25,7.5,15.9,7.5c6.2,0,10.6-1.9,15.2-6.6m-58.2-24h-22.8c.4-10.3,4.4-15.5,11.5-15.5,3.8,0,7.3,1.7,9,4.4,1.5,2.4,2.2,5.7,2.3,11.1m8.3,5.9v-1.1c0-11.9-1.4-16.6-5.7-21a19.55,19.55,0,0,0-28.4,1.5c-4.2,5-6,10.4-6,18.8,0,16.5,8.3,26.5,22.1,26.5a24.87,24.87,0,0,0,16.8-6.2l-3-5a17.14,17.14,0,0,1-12.2,4.7c-5,0-9.6-1.8-12.4-6.1-1.7-2.6-2.3-6.2-2.3-10.9v-1.2H1622Zm-42.1-45h-45.4v6.9h18.4v61.7h7.9v-61.7h18.6Zm-67.4-.9a20,20,0,0,0-11-2.9,13.75,13.75,0,0,0-8.8,2.6c-2.1,1.6-5.5,4.8-5.5,12.2v7.8h-4.8v5.9h4.8v43.9h8.2v-43.9h11.4l2.4-5.9h-13.8v-7.7c0-5.7,2.4-8.8,6.8-8.8a15.75,15.75,0,0,1,7.4,2.3Zm-51.7,46c0,4.9-.4,7.7-1.5,10.8a10.82,10.82,0,0,1-10.8,7.5c-4.3,0-8.3-2-10.1-5s-3.1-9.3-3.1-16.3c0-5.9.8-9.9,2.4-13,1.7-3.3,5.8-5.4,10.2-5.4a11.54,11.54,0,0,1,10.6,6.4c1.6,3.3,2.3,8,2.3,15m8.9-.6c0-8.1-1.5-14-4.6-18.5-3.4-4.9-8.8-8.7-17.1-8.7-13.1,0-21.2,9.9-21.2,26.1,0,16.4,7.8,26.5,21.5,26.5,12.5,0,21.4-8.8,21.4-25.4m-76.4-25.7h-8.9l-9.8,32.7c-1.2,4.1-3.1,10.5-3.1,10.5h-.2s-1.5-7.7-3-12.4l-10.2-32.3-7.7,2.6,10.7,31.2c1.7,5,4.4,14.7,5,17.9l3.2-.5c-2.7,10.1-5.1,13.3-11.5,15.3l2.3,5.3c8.7-2.1,12.8-8.7,16.1-18.7Zm-48.4,0h-12.5a134.2,134.2,0,0,1,1-14.4l-8.2,1.8s-.8,7.8-.8,12.6h-6.5v5.9h6.5v34.2c0,5,1.3,8.2,4.8,9.9a14.49,14.49,0,0,0,6.5,1.4,18.45,18.45,0,0,0,8.8-2l-1.1-5a9.93,9.93,0,0,1-4.9,1c-4.9,0-6.4-1.9-6.4-7.4v-32.1h10.4Zm-39.3-15.4a6.06,6.06,0,0,0-6.1-6.1,6.15,6.15,0,0,0-6.1,6.2,6.1,6.1,0,0,0,12.2-.1m-2.2,65.2v-50.9l-8.1,1.3v49.6h8.1Zm-24.1-14.8c0-7.4-4.3-12-13.3-13.9l-6.6-1.4c-5.3-1.1-7.2-3.4-7.2-7.2,0-4.9,3.7-8.2,9.4-8.2,4.4,0,8.1,1.5,12.5,3.6l2.9-5.8a32.45,32.45,0,0,0-15.2-4c-10.4,0-17.7,6.3-17.7,15.3,0,6.9,4.4,12,12.6,13.7l6.2,1.3c5.7,1.2,8.2,3.7,8.2,8.2,0,5.3-4,8.6-10.1,8.6a29.92,29.92,0,0,1-15.8-4.7l-3,5.8a36.88,36.88,0,0,0,18.3,5c11.2,0,18.8-6.6,18.8-16.3m-42.6-36a9.38,9.38,0,0,0-2.7-.5c-5.1,0-10.4,3.2-14,8.3a18,18,0,0,0-1.6-8.1l-7.8,2.1s1.7,3.3,1.7,10.6v38.4h7.8v-31.2c0-4.1.6-5.6,2.9-7.9a11.87,11.87,0,0,1,8.3-3.6,6.65,6.65,0,0,1,2.2.4Zm-49.7,21.3h-22.8c.4-10.3,4.4-15.5,11.5-15.5,3.8,0,7.3,1.7,9,4.4,1.5,2.4,2.2,5.7,2.3,11.1m8.3,5.9v-1.1c0-11.9-1.4-16.6-5.7-21a19.55,19.55,0,0,0-28.4,1.5c-4.2,5-6,10.4-6,18.8,0,16.5,8.3,26.5,22.1,26.5a24.87,24.87,0,0,0,16.8-6.2l-3-5a17.14,17.14,0,0,1-12.2,4.7c-5,0-9.6-1.8-12.4-6.1-1.7-2.6-2.3-6.2-2.3-10.9v-1.2h31.1Zm-49.6-26.2h-8.3l-11.4,33.1a70.19,70.19,0,0,0-2.4,8.4h-.2s-1-4.4-2.4-8.5l-11.6-34.3-8,1.7,17.9,49.9h7.7Zm-55.1-15.4a6.06,6.06,0,0,0-6.1-6.1,6.14,6.14,0,0,0-6.1,6.2,6.1,6.1,0,0,0,12.2-.1m-2.2,65.2v-50.9l-8.1,1.3v49.6h8.1Zm-29.1,0v-37.8a14.33,14.33,0,0,0-1.2-5.8c-2-4.4-6.8-7.3-12.2-7.3s-10.5,2.5-15.7,7.7a20.15,20.15,0,0,0-1.8-7.8l-7.6,2.1s1.9,3.4,1.9,10.5v38.4h7.6v-37.1c3.6-3.8,9.8-7,13.8-7a7.29,7.29,0,0,1,5.5,2.1c1.4,1.7,1.8,3,1.8,8.3v33.7h7.9Zm-57.1-19.8v-48.8h-8.1v47.8c0,4.6-.3,7.6-2.6,10.7-2.1,2.8-6.4,4.3-12.1,4.3-8.4,0-12.1-3.7-13.4-6.7-.9-2.1-1.2-6.5-1.2-9.9v-46.2h-8.1V406c0,3,.2,7.4,2,10.7,3.7,6.8,9.7,9.9,20.3,9.9,8.3,0,13.8-1.7,18-5.3s5.2-7.4,5.2-15.7" transform="translate(-36.37 -71.04)" style="fill:#fff"/><path d="M1613.73,625.17a13.55,13.55,0,0,0-2.8-8.7c-1.8-2.3-3.9-4.2-10.2-5.8l-6.2-1.6c-4.7-1.2-6.4-2.6-6.4-5.2,0-3,2.6-5,6.5-5s7.5,1.1,12.6,3.7l4.4-9c-4.7-2.3-10.1-4.8-18.3-4.8-11.9,0-19.8,6.7-19.8,16.7a15.51,15.51,0,0,0,2.9,9.2,18.06,18.06,0,0,0,9.4,5.2l6,1.1c5.4,1,7.9,2.8,7.9,6.3,0,3.3-3,5.8-6.8,5.8-5.8,0-12.9-3.3-17-5.8l-4.8,9.8c7.5,3.9,14.4,5.9,20.7,5.9,13.1,0,21.9-7.2,21.9-17.8m-47.6,15.1-1.7-8a17.55,17.55,0,0,1-4.8,1c-4.6,0-5.8-1.7-5.8-8.2v-25.7h8.6l3.4-9.2h-12a152.94,152.94,0,0,1,.8-15.5l-13.6,3.4a88.66,88.66,0,0,0-.5,12.1h-5.1v9.2h5.1v27.8c0,4.7.1,5.7.9,7.9,1.6,4.5,7,7.5,13.8,7.5a28.15,28.15,0,0,0,10.9-2.3m-34.6-50.2a10.33,10.33,0,0,0-5-1.1c-5,0-9.1,3.4-12,7.3a16.44,16.44,0,0,0-2.1-7.3l-12,3.2c1.1,2.9,1.9,8.1,1.9,15v34.2h13.4v-36.2c2.5-2.9,5.2-4.3,8.2-4.3a7.56,7.56,0,0,1,3.9,1ZM1473,619l-.2,11a9.71,9.71,0,0,1-7,3.5c-3.4,0-5.9-2.7-5.9-6.7,0-6.1,3.2-7.8,12.5-7.8Zm17.9,16.8c-4.5-3.4-4.9-5.8-4.8-11.4l.3-17.2c.1-5.5-.2-7.1-.9-9.2-2-5.7-7.9-8.9-16.5-8.9a34.66,34.66,0,0,0-14,3,49.27,49.27,0,0,0-8.3,4.2l5.7,9.6c5.5-3.7,10.5-5.8,14.8-5.8,4.9,0,6,1.9,6,7.6v2.1c-1.1-.1-2-.1-3-.1-16.3,0-24.6,5.6-24.6,17.6,0,10.2,6.2,16,17.6,16a17.7,17.7,0,0,0,10.3-2.8,24.92,24.92,0,0,0,3.1-2.7,14.32,14.32,0,0,0,7.2,6.2Zm-51.3,4.5-1.7-8a17.54,17.54,0,0,1-4.8,1c-4.6,0-5.8-1.7-5.8-8.2v-25.7h8.6l3.4-9.2h-12a153,153,0,0,1,.8-15.5l-13.6,3.4a88.66,88.66,0,0,0-.5,12.1h-5.1v9.2h5.1v27.8c0,4.7.1,5.7.9,7.9,1.6,4.5,7,7.5,13.8,7.5a28.15,28.15,0,0,0,10.9-2.3m-37.1-15.1a13.54,13.54,0,0,0-2.8-8.7c-1.8-2.3-3.9-4.2-10.2-5.8l-6.2-1.6c-4.7-1.2-6.4-2.6-6.4-5.2,0-3,2.6-5,6.5-5s7.5,1.1,12.6,3.7l4.4-9c-4.7-2.3-10.1-4.8-18.3-4.8-11.9,0-19.8,6.7-19.8,16.7a15.51,15.51,0,0,0,2.9,9.2,18.06,18.06,0,0,0,9.4,5.2l6,1.1c5.4,1,7.9,2.8,7.9,6.3,0,3.3-3,5.8-6.8,5.8-5.8,0-12.9-3.3-17-5.8l-4.8,9.8c7.5,3.9,14.4,5.9,20.7,5.9,13.1,0,21.9-7.2,21.9-17.8m-77.6,16.2V604a20.67,20.67,0,0,0-1-7.3c-1.6-4.4-6.6-7.4-12.3-7.4a21.1,21.1,0,0,0-9.2,2.2,59.08,59.08,0,0,0-5.9,3.8,13.11,13.11,0,0,0-1.9-6.4l-11.9,3.4a36.89,36.89,0,0,1,1.8,12v37.1h13.4v-36.2c3.1-2.8,6.6-4.6,9.3-4.6,3.5,0,4.5,1.7,4.5,7.5v33.3h13.2Zm-67.5-25.9c0,12.1-2.5,17.3-8.3,17.3a7.41,7.41,0,0,1-6.8-4.2c-1.1-2.6-1.7-7-1.7-12.9a36.52,36.52,0,0,1,1.4-11.4,7.33,7.33,0,0,1,12.7-2.5c1.8,2.3,2.7,6.8,2.7,13.7m14.6.1c0-8.3-1.8-13.9-5.9-18.7-4.4-5.2-10.1-7.7-17.4-7.7-13.8,0-23,10.7-23,26.8s9.1,26.5,23,26.5c7.9,0,13-2.7,16.9-7.1,4.4-5,6.4-11,6.4-19.8m-57.2-39.5a8.18,8.18,0,0,0-8.1-8.3,8.36,8.36,0,0,0-8.4,8.3,8.25,8.25,0,1,0,16.5,0m-1.6,65.3V589l-13.4,2.1v50.3h13.4Zm-23.9-1.1-1.7-8a17.55,17.55,0,0,1-4.8,1c-4.6,0-5.8-1.7-5.8-8.2v-25.7h8.6l3.4-9.2h-12a152.94,152.94,0,0,1,.8-15.5l-13.6,3.4a88.66,88.66,0,0,0-.5,12.1h-5.1v9.2h5.1v27.8c0,4.7.1,5.7.9,7.9,1.6,4.5,7,7.5,13.8,7.5a28.15,28.15,0,0,0,10.9-2.3m-54.9-21.3-.2,11a9.71,9.71,0,0,1-7,3.5c-3.4,0-5.9-2.7-5.9-6.7,0-6.1,3.2-7.8,12.5-7.8Zm17.9,16.8c-4.5-3.4-4.9-5.8-4.8-11.4l.3-17.2c.1-5.5-.2-7.1-.9-9.2-2-5.7-7.9-8.9-16.5-8.9a34.65,34.65,0,0,0-14,3,49.27,49.27,0,0,0-8.3,4.2l5.7,9.6c5.5-3.7,10.5-5.8,14.8-5.8,4.9,0,6,1.9,6,7.6v2.1c-1.1-.1-2-.1-3-.1-16.3,0-24.6,5.6-24.6,17.6,0,10.2,6.2,16,17.6,16a17.7,17.7,0,0,0,10.3-2.8,24.91,24.91,0,0,0,3.1-2.7,14.33,14.33,0,0,0,7.2,6.2Zm-48.8-45.6h-14l-6.9,21.5a86.24,86.24,0,0,0-3.1,13c-.7-3.3-2.2-8.9-3.3-12.3l-7.4-23.1-13.7,1.7,18.6,50.4h11.1Zm-66.5,25.3c0,12.1-2.5,17.3-8.3,17.3a7.41,7.41,0,0,1-6.8-4.2c-1.1-2.6-1.7-7-1.7-12.9a36.49,36.49,0,0,1,1.4-11.4,7.33,7.33,0,0,1,12.7-2.5c1.8,2.3,2.7,6.8,2.7,13.7m14.6.1c0-8.3-1.8-13.9-5.9-18.7-4.4-5.2-10.1-7.7-17.4-7.7-13.8,0-23,10.7-23,26.8s9.1,26.5,23,26.5c7.9,0,13-2.7,16.9-7.1,4.4-5,6.4-11,6.4-19.8m-58.8,25.8V604a20.67,20.67,0,0,0-1-7.3c-1.6-4.4-6.6-7.4-12.3-7.4a21.11,21.11,0,0,0-9.2,2.2,59.07,59.07,0,0,0-5.9,3.8,13.11,13.11,0,0,0-1.9-6.4l-11.9,3.4a36.92,36.92,0,0,1,1.8,12v37.1h13.4v-36.2c3.1-2.8,6.6-4.6,9.3-4.6,3.5,0,4.5,1.7,4.5,7.5v33.3h13.2Zm-56.4,0V604a20.67,20.67,0,0,0-1-7.3c-1.6-4.4-6.6-7.4-12.3-7.4a21.11,21.11,0,0,0-9.2,2.2,59.07,59.07,0,0,0-5.9,3.8,13.11,13.11,0,0,0-1.9-6.4l-11.9,3.4a36.92,36.92,0,0,1,1.8,12v37.1h13.4v-36.2c3.1-2.8,6.6-4.6,9.3-4.6,3.5,0,4.5,1.7,4.5,7.5v33.3h13.2Zm-54.8-65.3a8.17,8.17,0,0,0-8.1-8.3,8.37,8.37,0,0,0-8.4,8.3,8.25,8.25,0,1,0,16.5,0m-1.6,65.3V589l-13.4,2.1v50.3H880Zm-62.3-31.2h-15.5V610c0-7.1,2.9-11.1,8-11.1a6.49,6.49,0,0,1,5.9,3c1.2,1.9,1.6,3.9,1.6,7.7Zm13.9,9.8v-3.1c0-10.7-2.1-17.6-6.8-22.4-3.3-3.4-8.9-5.4-14.8-5.4-6.8,0-11.9,2.2-16.1,6.9-4.5,5-6.4,11.1-6.4,20.3,0,16.1,9.5,26.5,24.2,26.5a29.37,29.37,0,0,0,19.3-7.1l-5.2-8c-4.1,3.4-8.4,5.1-13,5.1-6.9,0-10.8-4.5-10.8-12.4V620h29.6Zm-47.1-29.9a10.33,10.33,0,0,0-5-1.1c-5,0-9.1,3.4-12,7.3a16.45,16.45,0,0,0-2.1-7.3l-12,3.2c1.1,2.9,1.9,8.1,1.9,15v34.2h13.4v-36.2c2.5-2.9,5.2-4.3,8.2-4.3a7.56,7.56,0,0,1,3.9,1Zm-54.6,20.1h-15.5V610c0-7.1,2.9-11.1,8-11.1a6.49,6.49,0,0,1,5.9,3c1.2,1.9,1.6,3.9,1.6,7.7Zm13.9,9.8v-3.1c0-10.7-2.1-17.6-6.8-22.4-3.3-3.4-8.9-5.4-14.8-5.4-6.8,0-11.9,2.2-16.1,6.9-4.5,5-6.4,11.1-6.4,20.3,0,16.1,9.5,26.5,24.2,26.5a29.37,29.37,0,0,0,19.3-7.1l-5.2-8c-4.1,3.4-8.4,5.1-13,5.1-6.9,0-10.8-4.5-10.8-12.4V620h29.6Zm-57.1,21.4v-35.8c0-4.9-.3-6.6-1.3-9.5-1.6-4.5-6.8-7.3-13.3-7.3a22.42,22.42,0,0,0-14.5,5.5c0-.6.2-2.7.2-4.3v-10.2a69,69,0,0,0-.9-12.5l-13.7,3.2c.6,2.1,1,6.9,1,11.7v59.2h13.6v-36.7c3-2.7,7.3-4.7,10.6-4.7,3.8,0,5.2,1.9,5.2,7v34.4h13.1Zm-51.5-69.5h-14.7l-5.7,26.4c-1.5,6.8-3.6,20.9-3.8,23.1,0,0-1.7-11.9-3-18.4l-6.4-31.1h-15.3l-6.2,28.1c-2.1,9.6-3.3,19.5-3.6,22.2a212,212,0,0,0-3.7-22.9l-6-27.4H552l16.6,70.1h15.9l5.8-28.5c1.9-9.2,3.1-18,3.3-19.6a167.54,167.54,0,0,0,3.3,19.8l6.2,28.3h15.3Z" transform="translate(-36.37 -71.04)" style="fill:#fff"/></svg>