<?xml version="1.0" encoding="utf-8"?>
<!-- Generator: Adobe Illustrator 14.0.0, SVG Export Plug-In . SVG Version: 6.00 Build 43363)  -->
<!DOCTYPE svg PUBLIC "-//W3C//DTD SVG 1.1//EN" "http://www.w3.org/Graphics/SVG/1.1/DTD/svg11.dtd">
<svg version="1.1" id="Layer_1" xmlns="http://www.w3.org/2000/svg" xmlns:xlink="http://www.w3.org/1999/xlink" x="0px" y="0px"
	 width="2125.983px" height="708.661px" viewBox="0 0 2125.983 708.661" enable-background="new 0 0 2125.983 708.661"
	 xml:space="preserve">
<g>
	<g>
		<polygon fill="#24357F" points="254.836,141.909 36.371,141.909 36.371,192.817 104.652,192.817 104.652,425.373 170.318,425.373 
			170.318,192.817 240.239,192.817 		"/>
		<path fill="#24357F" d="M394.226,426.269c78.549,0,100.488-41.128,100.488-85.619V141.909h-61.799v184.568
			c0,31.298-11.52,47.305-38.689,47.305c-27.165,0-38.688-16.007-38.688-47.305V141.909H293.74V340.65
			C293.74,385.141,315.679,426.269,394.226,426.269"/>
		<path fill="#24357F" d="M795.493,308.447h-56.022v-0.723c0-12.078,3.179-40.106,28.031-40.106c6.546,0,27.991-0.3,27.991,36.775
			V308.447z M845.726,330.292c0-58.912-21.97-98.127-78.224-98.127c-53.004,0-81.184,40.884-81.184,98.127
			c0,35.168,14.72,96.001,90.683,96.001c30.808,0,55.023-16.273,66.579-25.668l-18.848-29.081c0,0-18.792,18.596-47.541,18.596
			c-26.963,0-38.443-19.539-38.443-46.561h106.978V330.292z"/>
		<polygon fill="#CF285A" points="573.732,496.237 695.66,71.04 650.305,71.04 528.381,496.237 		"/>
		<path fill="#24357F" d="M1975.53,160.706h-12.5c0-6.6,1-14.399,1-14.399l-8.199,1.8c0,0-0.801,7.8-0.801,12.6h-6.5v5.9h6.5v34.2
			c0,5,1.301,8.199,4.801,9.899c1.899,0.9,3.899,1.4,6.5,1.4c3.5,0,6.3-0.7,8.8-2l-1.101-5c-1.399,0.7-2.699,1-4.899,1
			c-4.9,0-6.4-1.9-6.4-7.4v-32.1h10.4L1975.53,160.706z M1936.23,145.306c0-3.4-2.7-6.101-6.1-6.101c-3.4,0-6.101,2.8-6.101,6.2
			c0,3.3,2.7,6,6.101,6C1933.53,151.406,1936.23,148.706,1936.23,145.306 M1934.03,210.505v-50.899l-8.1,1.3v49.6H1934.03z
			 M1900.632,181.005h-22.8c0.398-10.3,4.399-15.5,11.5-15.5c3.8,0,7.3,1.7,9,4.4
			C1899.832,172.306,1900.531,175.606,1900.632,181.005 M1908.932,186.906v-1.1c0-11.9-1.4-16.601-5.7-21
			c-3.399-3.5-8.1-5.4-13.5-5.4c-6,0-10.899,2.2-14.899,6.9c-4.201,5-6.001,10.399-6.001,18.8c0,16.5,8.3,26.5,22.101,26.5
			c6.4,0,12.4-2.2,16.8-6.2l-3-5c-3.5,3.2-7.399,4.7-12.2,4.7c-5,0-9.6-1.8-12.4-6.101c-1.699-2.6-2.299-6.199-2.299-10.899v-1.2
			H1908.932z M1858.831,160.706h-12.5c0-6.6,1-14.399,1-14.399l-8.2,1.8c0,0-0.8,7.8-0.8,12.6h-6.5v5.9h6.5v34.2
			c0,5,1.3,8.199,4.8,9.899c1.899,0.9,3.899,1.4,6.5,1.4c3.5,0,6.3-0.7,8.8-2l-1.1-5c-1.4,0.7-2.7,1-4.9,1c-4.9,0-6.4-1.9-6.4-7.4
			v-32.1h10.4L1858.831,160.706z M1819.531,145.306c0-3.4-2.699-6.101-6.1-6.101s-6.1,2.8-6.1,6.2c0,3.3,2.699,6,6.1,6
			S1819.531,148.706,1819.531,145.306 M1817.332,210.505v-50.899l-8.101,1.3v49.6H1817.332z M1793.231,195.706
			c0-7.399-4.3-12-13.3-13.899l-6.6-1.4c-5.301-1.1-7.2-3.4-7.2-7.2c0-4.899,3.7-8.2,9.399-8.2c4.4,0,8.101,1.5,12.5,3.601l2.9-5.8
			c-4.2-2.4-10-4-15.2-4c-10.399,0-17.7,6.3-17.7,15.3c0,6.899,4.4,12,12.601,13.7l6.2,1.3c5.699,1.2,8.199,3.7,8.199,8.2
			c0,5.3-4,8.6-10.1,8.6c-5.5,0-10.7-1.6-15.8-4.7l-3,5.8c5.1,3.101,12,5,18.3,5
			C1785.632,212.005,1793.231,205.406,1793.231,195.706 M1750.632,159.706c0,0-1.4-0.5-2.7-0.5c-5.1,0-10.4,3.2-14,8.3
			c0.3-4.199-1.6-8.1-1.6-8.1l-7.801,2.1c0,0,1.7,3.301,1.7,10.601v38.399h7.8v-31.199c0-4.101,0.601-5.601,2.9-7.9s5.3-3.6,8.3-3.6
			c0.8,0,1.7,0.199,2.2,0.399L1750.632,159.706z M1700.933,181.005h-22.8c0.399-10.3,4.399-15.5,11.5-15.5c3.8,0,7.3,1.7,9,4.4
			C1700.133,172.306,1700.833,175.606,1700.933,181.005 M1709.232,186.906v-1.1c0-11.9-1.399-16.601-5.7-21
			c-3.399-3.5-8.1-5.4-13.5-5.4c-6,0-10.899,2.2-14.899,6.9c-4.2,5-6,10.399-6,18.8c0,16.5,8.3,26.5,22.1,26.5
			c6.4,0,12.4-2.2,16.8-6.2l-3-5c-3.5,3.2-7.399,4.7-12.199,4.7c-5,0-9.601-1.8-12.4-6.101c-1.7-2.6-2.3-6.199-2.3-10.899v-1.2
			H1709.232z M1659.633,160.706h-8.3l-11.4,33.101c-1.6,4.5-2.401,8.399-2.401,8.399h-0.198c0,0-1-4.399-2.4-8.5l-11.601-34.3
			l-8,1.7l17.9,49.899h7.7L1659.633,160.706z M1604.532,145.306c0-3.4-2.699-6.101-6.1-6.101s-6.1,2.8-6.1,6.2c0,3.3,2.699,6,6.1,6
			S1604.532,148.706,1604.532,145.306 M1602.333,210.505v-50.899l-8.101,1.3v49.6H1602.333z M1573.232,210.505v-37.8
			c0-2-0.399-4-1.2-5.8c-2-4.4-6.8-7.3-12.199-7.3c-5.301,0-10.5,2.5-15.7,7.7c0-4.101-1.8-7.801-1.8-7.801l-7.601,2.101
			c0,0,1.9,3.399,1.9,10.5v38.399h7.6v-37.1c3.601-3.8,9.8-7,13.8-7c2.301,0,4.4,0.8,5.5,2.1c1.4,1.7,1.801,3,1.801,8.301v33.699
			H1573.232z M1516.134,190.706v-48.8h-8.101v47.8c0,4.601-0.3,7.601-2.6,10.7c-2.1,2.8-6.4,4.3-12.1,4.3
			c-8.4,0-12.102-3.7-13.4-6.7c-0.901-2.1-1.201-6.5-1.201-9.899v-46.2h-8.1v49.2c0,3,0.2,7.399,2,10.7
			c3.7,6.8,9.701,9.899,20.301,9.899c8.3,0,13.8-1.7,18-5.3C1515.033,202.906,1516.134,199.005,1516.134,190.706 M1420.834,181.005
			h-22.801c0.4-10.3,4.4-15.5,11.5-15.5c3.801,0,7.301,1.7,9,4.4C1420.033,172.306,1420.733,175.606,1420.834,181.005
			 M1429.134,186.906v-1.1c0-11.9-1.4-16.601-5.7-21c-3.4-3.5-8.1-5.4-13.5-5.4c-6,0-10.9,2.2-14.9,6.9c-4.199,5-6,10.399-6,18.8
			c0,16.5,8.301,26.5,22.101,26.5c6.399,0,12.399-2.2,16.8-6.2l-3-5c-3.5,3.2-7.4,4.7-12.2,4.7c-5,0-9.6-1.8-12.399-6.101
			c-1.7-2.6-2.301-6.199-2.301-10.899v-1.2H1429.134z M1371.035,210.505v-35.699c0-3.601-0.199-5.2-0.8-7.2
			c-1.399-4.601-6.8-7.9-12.8-7.9c-6.4,0-12.1,3.7-16.6,7.9c0,0,0.3-3.601,0.3-6.8v-11.601c0-7.6-1.3-11.8-1.3-11.8l-7.801,1.5
			c0,0,1.301,3.7,1.301,10.2v61.399h7.8v-35.399c4.3-5.3,9.7-8.4,14.5-8.4c2.5,0,4.6,0.8,5.8,2c1.4,1.4,1.9,3.7,1.9,7.4v34.399
			H1371.035z M1319.836,205.005l-4.301-5c-2.899,3.5-6.699,5.4-10.699,5.4c-8,0-12.301-6.1-12.301-17.3c0-7.3,0.9-12.8,2.801-16.3
			c1.8-3.4,5.5-5.601,9.399-5.601c3.8,0,6,1.101,9.5,4l4.3-5.399c-3.6-3-7.3-5.4-13.6-5.4c-5.3,0-9.6,1.9-13.5,5.8
			c-4.3,4.3-7.5,10.3-7.5,21.2c0,7.4,1.5,12.9,4.8,17.7c3.5,5,8.8,7.5,15.9,7.5C1310.836,211.606,1315.235,209.706,1319.836,205.005
			 M1270.436,195.706c0-7.399-4.3-12-13.3-13.899l-6.601-1.4c-5.3-1.1-7.199-3.4-7.199-7.2c0-4.899,3.699-8.2,9.399-8.2
			c4.4,0,8.101,1.5,12.5,3.601l2.9-5.8c-4.2-2.4-10-4-15.2-4c-10.4,0-17.7,6.3-17.7,15.3c0,6.899,4.4,12,12.601,13.7l6.199,1.3
			c5.7,1.2,8.2,3.7,8.2,8.2c0,5.3-4,8.6-10.1,8.6c-5.5,0-10.7-1.6-15.8-4.7l-3,5.8c5.1,3.101,12,5,18.3,5
			C1262.836,212.005,1270.436,205.406,1270.436,195.706 M1219.535,145.306c0-3.4-2.699-6.101-6.1-6.101s-6.1,2.8-6.1,6.2
			c0,3.3,2.699,6,6.1,6S1219.535,148.706,1219.535,145.306 M1217.336,210.505v-50.899l-8.101,1.3v49.6H1217.336z M1188.235,210.505
			v-37.8c0-2-0.399-4-1.2-5.8c-2-4.4-6.8-7.3-12.199-7.3c-5.301,0-10.5,2.5-15.7,7.7c0-4.101-1.8-7.801-1.8-7.801l-7.601,2.101
			c0,0,1.9,3.399,1.9,10.5v38.399h7.6v-37.1c3.601-3.8,9.8-7,13.8-7c2.301,0,4.4,0.8,5.5,2.1c1.4,1.7,1.801,3,1.801,8.301v33.699
			H1188.235z M1130.637,210.505v-35.699c0-3.601-0.2-5.2-0.8-7.2c-1.4-4.601-6.801-7.9-12.801-7.9c-6.399,0-12.1,3.7-16.6,7.9
			c0,0,0.3-3.601,0.3-6.8v-11.601c0-7.6-1.3-11.8-1.3-11.8l-7.8,1.5c0,0,1.3,3.7,1.3,10.2v61.399h7.8v-35.399
			c4.3-5.3,9.7-8.4,14.5-8.4c2.5,0,4.601,0.8,5.8,2c1.4,1.4,1.9,3.7,1.9,7.4v34.399H1130.637z M1079.437,205.005l-4.3-5
			c-2.9,3.5-6.7,5.4-10.7,5.4c-8,0-12.3-6.1-12.3-17.3c0-7.3,0.899-12.8,2.8-16.3c1.8-3.4,5.5-5.601,9.4-5.601c3.8,0,6,1.101,9.5,4
			l4.3-5.399c-3.601-3-7.3-5.4-13.601-5.4c-5.3,0-9.6,1.9-13.5,5.8c-4.3,4.3-7.5,10.3-7.5,21.2c0,7.4,1.5,12.9,4.801,17.7
			c3.5,5,8.8,7.5,15.899,7.5C1070.437,211.606,1074.837,209.706,1079.437,205.005 M1021.238,181.005h-22.801
			c0.4-10.3,4.4-15.5,11.501-15.5c3.8,0,7.3,1.7,9,4.4C1020.438,172.306,1021.138,175.606,1021.238,181.005 M1029.538,186.906v-1.1
			c0-11.9-1.4-16.601-5.7-21c-3.4-3.5-8.1-5.4-13.5-5.4c-6.001,0-10.9,2.2-14.901,6.9c-4.2,5-6,10.399-6,18.8
			c0,16.5,8.3,26.5,22.101,26.5c6.4,0,12.4-2.2,16.8-6.2l-3-5c-3.5,3.2-7.4,4.7-12.2,4.7c-5.001,0-9.6-1.8-12.401-6.101
			c-1.699-2.6-2.3-6.199-2.3-10.899v-1.2H1029.538z M987.437,141.906h-45.4v6.9h18.4v61.699h7.9v-61.699h18.6L987.437,141.906z"/>
		<path fill="#24357F" d="M1413.664,317.946v-37.4c0-3.199-0.301-5.399-1-7.3c-1.601-4.399-6.601-7.399-12.301-7.399
			c-3,0-6.5,0.8-9.199,2.199c-2.2,1.2-3.9,2.4-5.9,3.801c0-2.101-0.7-4.301-1.9-6.4l-11.899,3.4c1.2,3.399,1.8,7.6,1.8,12v37.1h13.4
			v-36.2c3.1-2.8,6.6-4.6,9.3-4.6c3.5,0,4.5,1.7,4.5,7.5v33.3H1413.664z M1346.864,286.746h-15.5v-0.2c0-7.1,2.9-11.1,8-11.1
			c2.7,0,4.601,1,5.9,3c1.2,1.9,1.6,3.9,1.6,7.7V286.746z M1360.765,296.545v-3.1c0-10.7-2.1-17.6-6.8-22.4
			c-3.3-3.399-8.9-5.399-14.8-5.399c-6.801,0-11.9,2.2-16.101,6.899c-4.5,5-6.399,11.101-6.399,20.301c0,16.1,9.5,26.5,24.199,26.5
			c7.2,0,13.4-2.301,19.301-7.101l-5.2-8c-4.101,3.4-8.4,5.101-13,5.101c-6.9,0-10.8-4.5-10.8-12.4v-0.4H1360.765z
			 M1311.164,266.746h-14l-6.9,21.5c-1.6,5.101-2.7,10-3.1,13c-0.7-3.3-2.2-8.899-3.301-12.3l-7.399-23.1l-13.7,1.699l18.6,50.4
			h11.101L1311.164,266.746z M1243.663,292.045c0,12.101-2.5,17.301-8.301,17.301c-2.6,0-5.6-1.4-6.8-4.2c-1.1-2.601-1.7-7-1.7-12.9
			c0-5.1,0.5-8.7,1.4-11.399c1.1-3.2,3.7-5.2,6.9-5.2c2.399,0,4.5,1,5.8,2.7C1242.763,280.646,1243.663,285.146,1243.663,292.045
			 M1258.263,292.146c0-8.3-1.8-13.9-5.9-18.7c-4.399-5.2-10.1-7.7-17.399-7.7c-13.8,0-23,10.7-23,26.8c0,16.101,9.1,26.5,23,26.5
			c7.899,0,13-2.699,16.899-7.1C1256.263,306.946,1258.263,300.946,1258.263,292.146 M1198.464,317.946v-35.8
			c0-4.9-0.3-6.601-1.3-9.5c-1.601-4.5-6.801-7.3-13.301-7.3c-5.199,0-11,2.199-14.5,5.5c0-0.601,0.2-2.7,0.2-4.301v-10.199
			c0-4.9-0.3-9.7-0.899-12.5l-13.7,3.199c0.6,2.101,1,6.9,1,11.7v59.2h13.6v-36.7c3-2.7,7.3-4.7,10.601-4.7c3.8,0,5.199,1.9,5.199,7
			v34.4H1198.464z M1125.864,304.646c-1.3,1.6-4.1,3.3-6.6,3.3c-7,0-9.3-3.6-9.3-14.6c0-11.4,2.6-16.4,8.6-16.4
			c2.4,0,4.8,1.1,7.3,3.3V304.646z M1140.864,317.946c-0.899-2-1.899-6.1-1.899-18.7v-53.2l-13.3-2.1v17.6
			c0,3,0.199,6.5,0.399,7.601c-2.5-2-5.399-2.9-9.1-2.9c-13,0-21.901,11-21.901,27c0,15.9,8.201,26,21.201,26
			c4.6,0,8.5-1.399,11.8-4.3c0.2,1.4,0.4,2.2,0.8,3H1140.864z M1081.065,317.946v-37.4c0-3.199-0.3-5.399-1-7.3
			c-1.6-4.399-6.6-7.399-12.3-7.399c-3,0-6.5,0.8-9.2,2.199c-2.2,1.2-3.899,2.4-5.899,3.801c0-2.101-0.7-4.301-1.9-6.4l-11.9,3.4
			c1.2,3.399,1.801,7.6,1.801,12v37.1h13.399v-36.2c3.101-2.8,6.601-4.6,9.3-4.6c3.5,0,4.5,1.7,4.5,7.5v33.3H1081.065z
			 M1025.266,252.646c0-4.601-3.6-8.3-8.1-8.3c-4.6,0-8.4,3.699-8.4,8.3c0,4.6,3.7,8.3,8.2,8.3
			C1021.566,260.946,1025.266,257.246,1025.266,252.646 M1023.666,317.946v-52.4l-13.4,2.101v50.3H1023.666z M998.267,317.946v-12
			h-26.3v-18.6h19.7v-11.4h-19.9v-16.1h23.8l1.8-11.4h-39.6v69.5H998.267z"/>
		<path fill="#24357F" d="M2033.172,375.585h-8.9l-9.8,32.7c-1.2,4.1-3.1,10.5-3.1,10.5h-0.2c0,0-1.5-7.7-3-12.4l-10.2-32.3
			l-7.7,2.601l10.7,31.199c1.7,5,4.4,14.7,5,17.9l3.2-0.5c-2.7,10.1-5.101,13.3-11.5,15.3l2.3,5.3c8.7-2.1,12.8-8.699,16.1-18.699
			L2033.172,375.585z M1967.873,390.985c0,6.7-3,10.2-9,10.2c-6.301,0-9.601-3.5-9.601-9.9c0-6.9,3.2-10.3,9.4-10.3
			C1965.272,380.985,1967.873,384.186,1967.873,390.985 M1985.772,379.985l-4.8-4.8c-2.4,1.6-4.3,2.199-6.9,2.199
			c-6.1,0-7.6-2.8-15.199-2.8c-10.9,0-18.4,6.8-18.4,16.8c0,6.601,4.5,12.301,11.2,14.4c-6.8,2.1-9,4.5-9,8.5
			c0,4.5,3.5,7.2,9.399,7.2c1.601,0,5.7-0.101,7.7-0.101c4.9,0,7.9,0.5,9.8,1.801c1.801,1.199,2.7,3.3,2.7,6
			c0,6.199-4.399,8.699-12.1,8.699c-4,0-7.7-0.899-10.101-2.3c-1.8-1.1-2.899-3.2-2.899-5.8c0-1.6,0.7-3.4,1.399-4.5l-8.199,0.7
			c-0.7,2-1,3.5-1,5.3c0,7.1,6,12.7,21.6,12.7c12.1,0,19.8-4.9,19.8-15.7c0-4.3-1.6-7.8-5.5-10.5c-3-2.1-6.2-2.8-12-2.8h-8
			c-2.5,0-4-0.9-4-2.4c0-1.7,2.3-3.399,9-5.8c3.601,0,6.8-0.6,9.3-2.2c4.601-2.899,7.4-8.1,7.4-13.7c0-3.199-1-6-3-8.5
			c0.9,0.4,2.1,0.601,3.4,0.601C1980.373,382.985,1982.673,382.186,1985.772,379.985 M1917.473,401.885c0,4.9-0.4,7.7-1.5,10.801
			c-1.7,4.8-5.6,7.5-10.8,7.5c-4.3,0-8.3-2-10.101-5c-1.899-3.101-3.1-9.301-3.1-16.301c0-5.899,0.8-9.899,2.4-13
			c1.699-3.3,5.8-5.399,10.199-5.399c4.101,0,8.5,2,10.601,6.399C1916.772,390.186,1917.473,394.885,1917.473,401.885
			 M1926.373,401.285c0-8.1-1.5-14-4.601-18.5c-3.399-4.9-8.8-8.7-17.1-8.7c-13.101,0-21.2,9.9-21.2,26.101
			c0,16.399,7.8,26.5,21.5,26.5C1917.473,426.686,1926.373,417.885,1926.373,401.285 M1871.374,425.285l-1.601-5.1
			c0,0-0.7,0.199-1,0.199c-2.2,0-2.8-1.1-2.8-5v-50.899c0-7.601-1.3-11.799-1.3-11.799l-7.8,1.5c0,0,1.199,3.699,1.199,10.199
			v52.801c0,3.6,0.801,5.699,2.4,7.1c1.5,1.4,3.5,2.1,5.9,2.1C1868.474,426.385,1869.374,426.186,1871.374,425.285
			 M1832.173,401.885c0,4.9-0.4,7.7-1.5,10.801c-1.7,4.8-5.601,7.5-10.8,7.5c-4.301,0-8.301-2-10.101-5
			c-1.899-3.101-3.1-9.301-3.1-16.301c0-5.899,0.8-9.899,2.399-13c1.7-3.3,5.801-5.399,10.2-5.399c4.101,0,8.5,2,10.601,6.399
			C1831.473,390.186,1832.173,394.885,1832.173,401.885 M1841.072,401.285c0-8.1-1.5-14-4.6-18.5c-3.4-4.9-8.8-8.7-17.1-8.7
			c-13.101,0-21.2,9.9-21.2,26.101c0,16.399,7.8,26.5,21.5,26.5C1832.173,426.686,1841.072,417.885,1841.072,401.285
			 M1780.673,425.385v-37.8c0-2-0.4-4-1.2-5.8c-2-4.4-6.8-7.3-12.2-7.3c-5.3,0-10.5,2.5-15.7,7.7c0-4.101-1.8-7.801-1.8-7.801
			l-7.6,2.101c0,0,1.899,3.399,1.899,10.5v38.399h7.601v-37.1c3.6-3.8,9.8-7,13.8-7c2.3,0,4.4,0.8,5.5,2.1c1.4,1.7,1.8,3,1.8,8.301
			v33.699H1780.673z M1723.074,425.385v-35.699c0-3.601-0.199-5.2-0.8-7.2c-1.399-4.601-6.8-7.9-12.8-7.9
			c-6.401,0-12.101,3.7-16.601,7.9c0,0,0.3-3.601,0.3-6.8v-11.601c0-7.6-1.3-11.799-1.3-11.799l-7.801,1.5c0,0,1.301,3.7,1.301,10.2
			v61.399h7.8v-35.399c4.301-5.3,9.7-8.4,14.5-8.4c2.5,0,4.601,0.8,5.801,2c1.399,1.4,1.899,3.7,1.899,7.4v34.399H1723.074z
			 M1671.874,419.885l-4.301-5c-2.899,3.5-6.699,5.4-10.699,5.4c-8,0-12.301-6.1-12.301-17.3c0-7.3,0.9-12.8,2.801-16.3
			c1.8-3.4,5.5-5.601,9.399-5.601c3.8,0,6,1.101,9.5,4l4.3-5.399c-3.599-3-7.3-5.4-13.6-5.4c-5.3,0-9.6,1.9-13.5,5.8
			c-4.3,4.3-7.5,10.3-7.5,21.2c0,7.4,1.5,12.9,4.8,17.7c3.5,5,8.8,7.5,15.9,7.5C1662.874,426.485,1667.273,424.585,1671.874,419.885
			 M1613.675,395.885h-22.8c0.399-10.3,4.399-15.5,11.5-15.5c3.8,0,7.3,1.7,9,4.4
			C1612.875,387.186,1613.574,390.485,1613.675,395.885 M1621.975,401.785v-1.1c0-11.9-1.4-16.601-5.7-21
			c-3.399-3.5-8.1-5.4-13.5-5.4c-6,0-10.899,2.2-14.899,6.9c-4.2,5-6,10.399-6,18.8c0,16.5,8.3,26.5,22.1,26.5
			c6.4,0,12.4-2.2,16.8-6.2l-3-5c-3.5,3.2-7.399,4.7-12.2,4.7c-5,0-9.6-1.8-12.399-6.101c-1.7-2.6-2.3-6.199-2.3-10.899v-1.2
			H1621.975z M1579.875,356.785h-45.4v6.9h18.4v61.699h7.899v-61.699h18.601L1579.875,356.785z M1512.474,355.885
			c-2.9-1.899-6.7-2.899-11-2.899c-3.7,0-6.4,0.8-8.8,2.599c-2.101,1.601-5.5,4.8-5.5,12.2v7.8h-4.8v5.9h4.8v43.899h8.2v-43.899
			h11.399l2.4-5.9h-13.8v-7.7c0-5.699,2.399-8.8,6.8-8.8c2.7,0,5.5,1.2,7.399,2.3L1512.474,355.885z M1460.774,401.885
			c0,4.9-0.399,7.7-1.5,10.801c-1.701,4.8-5.601,7.5-10.8,7.5c-4.301,0-8.301-2-10.101-5c-1.899-3.101-3.101-9.301-3.101-16.301
			c0-5.899,0.8-9.899,2.4-13c1.7-3.3,5.801-5.399,10.2-5.399c4.101,0,8.501,2,10.601,6.399
			C1460.073,390.186,1460.774,394.885,1460.774,401.885 M1469.675,401.285c0-8.1-1.5-14-4.601-18.5c-3.399-4.9-8.8-8.7-17.1-8.7
			c-13.101,0-21.201,9.9-21.201,26.101c0,16.399,7.8,26.5,21.5,26.5C1460.774,426.686,1469.675,417.885,1469.675,401.285
			 M1393.273,375.585h-8.899l-9.801,32.7c-1.199,4.1-3.1,10.5-3.1,10.5h-0.2c0,0-1.5-7.7-3-12.4l-10.2-32.3l-7.699,2.601
			l10.699,31.199c1.7,5,4.4,14.7,5,17.9l3.2-0.5c-2.7,10.1-5.1,13.3-11.5,15.3l2.3,5.3c8.7-2.1,12.801-8.699,16.101-18.699
			L1393.273,375.585z M1344.875,375.585h-12.5c0-6.6,1-14.399,1-14.399l-8.2,1.8c0,0-0.8,7.8-0.8,12.6h-6.5v5.9h6.5v34.2
			c0,5,1.3,8.199,4.8,9.899c1.899,0.9,3.899,1.4,6.5,1.4c3.5,0,6.3-0.7,8.8-2l-1.1-5c-1.4,0.7-2.7,1-4.9,1c-4.9,0-6.4-1.9-6.4-7.4
			v-32.1h10.4L1344.875,375.585z M1305.575,360.186c0-3.4-2.699-6.1-6.101-6.1c-3.399,0-6.099,2.799-6.099,6.2
			c0,3.3,2.699,6,6.099,6C1302.876,366.285,1305.575,363.585,1305.575,360.186 M1303.376,425.385v-50.899l-8.101,1.3v49.6H1303.376z
			 M1279.275,410.585c0-7.399-4.3-12-13.3-13.899l-6.6-1.4c-5.301-1.1-7.2-3.4-7.2-7.2c0-4.899,3.7-8.2,9.399-8.2
			c4.4,0,8.101,1.5,12.5,3.601l2.9-5.8c-4.2-2.4-10-4-15.2-4c-10.399,0-17.7,6.3-17.7,15.3c0,6.899,4.4,12,12.601,13.7l6.2,1.3
			c5.699,1.2,8.199,3.7,8.199,8.2c0,5.3-4,8.6-10.1,8.6c-5.5,0-10.7-1.6-15.8-4.7l-3,5.8c5.1,3.101,12,5,18.3,5
			C1271.676,426.885,1279.275,420.285,1279.275,410.585 M1236.676,374.585c0,0-1.4-0.5-2.7-0.5c-5.1,0-10.4,3.2-14,8.3
			c0.3-4.199-1.6-8.1-1.6-8.1l-7.801,2.1c0,0,1.7,3.301,1.7,10.601v38.399h7.8v-31.199c0-4.101,0.601-5.601,2.9-7.9s5.3-3.6,8.3-3.6
			c0.8,0,1.7,0.199,2.2,0.399L1236.676,374.585z M1186.977,395.885h-22.8c0.399-10.3,4.399-15.5,11.5-15.5c3.8,0,7.3,1.7,9,4.4
			C1186.177,387.186,1186.877,390.485,1186.977,395.885 M1195.276,401.785v-1.1c0-11.9-1.399-16.601-5.7-21
			c-3.399-3.5-8.1-5.4-13.5-5.4c-6,0-10.899,2.2-14.899,6.9c-4.2,5-6,10.399-6,18.8c0,16.5,8.3,26.5,22.1,26.5
			c6.4,0,12.4-2.2,16.8-6.2l-3-5c-3.5,3.2-7.399,4.7-12.199,4.7c-5,0-9.601-1.8-12.4-6.101c-1.7-2.6-2.3-6.199-2.3-10.899v-1.2
			H1195.276z M1145.676,375.585h-8.3l-11.4,33.101c-1.6,4.5-2.4,8.399-2.4,8.399h-0.199c0,0-1-4.399-2.4-8.5l-11.6-34.3l-8,1.7
			l17.899,49.899h7.7L1145.676,375.585z M1090.576,360.186c0-3.4-2.699-6.1-6.1-6.1s-6.1,2.799-6.1,6.2c0,3.3,2.699,6,6.1,6
			S1090.576,363.585,1090.576,360.186 M1088.377,425.385v-50.899l-8.101,1.3v49.6H1088.377z M1059.276,425.385v-37.8
			c0-2-0.399-4-1.2-5.8c-2-4.4-6.8-7.3-12.199-7.3c-5.301,0-10.5,2.5-15.7,7.7c0-4.101-1.8-7.801-1.8-7.801l-7.6,2.101
			c0,0,1.9,3.399,1.9,10.5v38.399h7.6v-37.1c3.6-3.8,9.799-7,13.799-7c2.301,0,4.4,0.8,5.5,2.1c1.4,1.7,1.801,3,1.801,8.301v33.699
			H1059.276z M1002.178,405.585v-48.8h-8.101v47.8c0,4.601-0.3,7.601-2.6,10.7c-2.1,2.8-6.4,4.3-12.1,4.3c-8.4,0-12.1-3.7-13.4-6.7
			c-0.9-2.1-1.2-6.5-1.2-9.899v-46.2h-8.1v49.2c0,3,0.2,7.399,2,10.7c3.7,6.8,9.7,9.899,20.3,9.899c8.3,0,13.8-1.7,18-5.3
			C1001.077,417.785,1002.178,413.885,1002.178,405.585"/>
		<path fill="#24357F" d="M1613.729,625.17c0-3.399-0.9-6.3-2.8-8.699c-1.8-2.301-3.9-4.2-10.2-5.801l-6.2-1.6
			c-4.7-1.2-6.399-2.6-6.399-5.2c0-3,2.6-5,6.5-5c3.8,0,7.5,1.101,12.6,3.7l4.4-9c-4.7-2.3-10.101-4.8-18.301-4.8
			c-11.899,0-19.8,6.7-19.8,16.7c0,3.3,1.101,7,2.9,9.199c1.8,2.2,6,4.601,9.399,5.2l6,1.101c5.4,1,7.9,2.8,7.9,6.3
			c0,3.3-3,5.8-6.8,5.8c-5.8,0-12.9-3.3-17-5.8l-4.8,9.8c7.5,3.9,14.399,5.9,20.699,5.9
			C1604.929,642.971,1613.729,635.771,1613.729,625.17 M1566.129,640.271l-1.7-8c-2.401,0.7-3.601,1-4.8,1
			c-4.602,0-5.801-1.7-5.801-8.2v-25.7h8.6l3.4-9.2h-12c0-5.199,0.301-10.8,0.801-15.5l-13.602,3.4c-0.5,3.8-0.5,7.1-0.5,12.1h-5.1
			v9.2h5.1v27.8c0,4.7,0.101,5.7,0.9,7.9c1.6,4.5,7,7.5,13.8,7.5C1558.728,642.57,1562.228,641.87,1566.129,640.271
			 M1531.528,590.07c-2.1-0.9-3-1.1-5-1.1c-5,0-9.1,3.399-12,7.3c-0.2-2.9-0.899-5.2-2.1-7.3l-12,3.199
			c1.1,2.9,1.899,8.101,1.899,15v34.2h13.4v-36.2c2.5-2.899,5.2-4.3,8.2-4.3c1.5,0,2.6,0.3,3.899,1L1531.528,590.07z
			 M1473.029,618.971l-0.199,11c-2,2.199-4.5,3.5-7,3.5c-3.4,0-5.9-2.7-5.9-6.7c0-6.101,3.2-7.8,12.5-7.8H1473.029z
			 M1490.93,635.771c-4.5-3.4-4.9-5.8-4.8-11.4l0.3-17.2c0.1-5.5-0.2-7.1-0.9-9.199c-2-5.7-7.899-8.9-16.5-8.9c-4.699,0-9,0.9-14,3
			c-3.6,1.5-5.6,2.5-8.3,4.2l5.7,9.6c5.5-3.7,10.5-5.8,14.8-5.8c4.9,0,6,1.9,6,7.6v2.101c-1.1-0.101-2-0.101-3-0.101
			c-16.3,0-24.6,5.601-24.6,17.601c0,10.2,6.2,16,17.6,16c4.2,0,7.8-1,10.3-2.8c1-0.7,2.101-1.7,3.101-2.7
			c1.3,2.6,4.1,4.899,7.2,6.2L1490.93,635.771z M1439.63,640.271l-1.7-8c-2.4,0.7-3.6,1-4.8,1c-4.601,0-5.8-1.7-5.8-8.2v-25.7h8.6
			l3.4-9.2h-12c0-5.199,0.3-10.8,0.8-15.5l-13.601,3.4c-0.5,3.8-0.5,7.1-0.5,12.1h-5.1v9.2h5.1v27.8c0,4.7,0.101,5.7,0.9,7.9
			c1.6,4.5,7,7.5,13.8,7.5C1432.229,642.57,1435.729,641.87,1439.63,640.271 M1402.528,625.17c0-3.399-0.899-6.3-2.8-8.699
			c-1.8-2.301-3.9-4.2-10.2-5.801l-6.2-1.6c-4.699-1.2-6.399-2.6-6.399-5.2c0-3,2.6-5,6.5-5c3.8,0,7.5,1.101,12.6,3.7l4.4-9
			c-4.7-2.3-10.101-4.8-18.3-4.8c-11.9,0-19.801,6.7-19.801,16.7c0,3.3,1.101,7,2.9,9.199c1.8,2.2,6,4.601,9.4,5.2l6,1.101
			c5.399,1,7.899,2.8,7.899,6.3c0,3.3-3,5.8-6.8,5.8c-5.8,0-12.9-3.3-17-5.8l-4.8,9.8c7.5,3.9,14.399,5.9,20.7,5.9
			C1393.729,642.971,1402.528,635.771,1402.528,625.17 M1324.932,641.37v-37.399c0-3.2-0.3-5.4-1-7.301
			c-1.6-4.399-6.6-7.399-12.301-7.399c-3,0-6.5,0.8-9.199,2.2c-2.2,1.199-3.9,2.399-5.9,3.8c0-2.101-0.7-4.3-1.9-6.4l-11.9,3.4
			c1.201,3.399,1.8,7.6,1.8,12v37.1h13.401v-36.2c3.1-2.8,6.6-4.6,9.3-4.6c3.5,0,4.5,1.7,4.5,7.5v33.3H1324.932z M1257.432,615.471
			c0,12.1-2.5,17.3-8.3,17.3c-2.601,0-5.601-1.4-6.8-4.2c-1.101-2.6-1.7-7-1.7-12.9c0-5.1,0.5-8.699,1.399-11.399
			c1.101-3.2,3.7-5.2,6.9-5.2c2.4,0,4.5,1,5.8,2.7C1256.531,604.07,1257.432,608.57,1257.432,615.471 M1272.031,615.57
			c0-8.3-1.8-13.9-5.899-18.7c-4.4-5.2-10.101-7.7-17.4-7.7c-13.8,0-23,10.7-23,26.801c0,16.1,9.101,26.5,23,26.5
			c7.9,0,13-2.7,16.9-7.101C1270.031,630.37,1272.031,624.37,1272.031,615.57 M1214.832,576.07c0-4.6-3.601-8.3-8.101-8.3
			c-4.6,0-8.399,3.7-8.399,8.3s3.699,8.3,8.199,8.3C1211.132,584.37,1214.832,580.67,1214.832,576.07 M1213.231,641.37v-52.399
			l-13.399,2.1v50.3H1213.231z M1189.332,640.271l-1.7-8c-2.4,0.7-3.601,1-4.8,1c-4.601,0-5.801-1.7-5.801-8.2v-25.7h8.601
			l3.399-9.2h-12c0-5.199,0.301-10.8,0.801-15.5l-13.601,3.4c-0.5,3.8-0.5,7.1-0.5,12.1h-5.1v9.2h5.1v27.8c0,4.7,0.101,5.7,0.9,7.9
			c1.6,4.5,7,7.5,13.8,7.5C1181.932,642.57,1185.432,641.87,1189.332,640.271 M1134.434,618.971l-0.201,11c-2,2.199-4.5,3.5-7,3.5
			c-3.399,0-5.899-2.7-5.899-6.7c0-6.101,3.199-7.8,12.5-7.8H1134.434z M1152.333,635.771c-4.5-3.4-4.899-5.8-4.801-11.4l0.301-17.2
			c0.101-5.5-0.2-7.1-0.899-9.199c-2-5.7-7.901-8.9-16.501-8.9c-4.7,0-9,0.9-14,3c-3.6,1.5-5.6,2.5-8.3,4.2l5.7,9.6
			c5.5-3.7,10.5-5.8,14.8-5.8c4.899,0,6,1.9,6,7.6v2.101c-1.101-0.101-2-0.101-3-0.101c-16.3,0-24.601,5.601-24.601,17.601
			c0,10.2,6.2,16,17.601,16c4.2,0,7.8-1,10.301-2.8c1-0.7,2.099-1.7,3.099-2.7c1.301,2.6,4.101,4.899,7.2,6.2L1152.333,635.771z
			 M1103.532,590.17h-14l-6.899,21.5c-1.601,5.101-2.7,10-3.101,13c-0.699-3.3-2.199-8.899-3.3-12.3l-7.399-23.1l-13.7,1.7
			l18.6,50.399h11.101L1103.532,590.17z M1037.031,615.471c0,12.1-2.5,17.3-8.299,17.3c-2.6,0-5.6-1.4-6.8-4.2
			c-1.1-2.6-1.7-7-1.7-12.9c0-5.1,0.5-8.699,1.4-11.399c1.1-3.2,3.7-5.2,6.9-5.2c2.4,0,4.5,1,5.8,2.7
			C1036.132,604.07,1037.031,608.57,1037.031,615.471 M1051.633,615.57c0-8.3-1.8-13.9-5.9-18.7c-4.399-5.2-10.101-7.7-17.4-7.7
			c-13.8,0-23,10.7-23,26.801c0,16.1,9.1,26.5,23,26.5c7.9,0,13.001-2.7,16.9-7.101
			C1049.633,630.37,1051.633,624.37,1051.633,615.57 M992.834,641.37v-37.399c0-3.2-0.3-5.4-1-7.301
			c-1.6-4.399-6.6-7.399-12.3-7.399c-3,0-6.5,0.8-9.2,2.2c-2.2,1.199-3.9,2.399-5.9,3.8c0-2.101-0.7-4.3-1.9-6.4l-11.9,3.4
			c1.2,3.399,1.8,7.6,1.8,12v37.1h13.4v-36.2c3.1-2.8,6.6-4.6,9.3-4.6c3.5,0,4.5,1.7,4.5,7.5v33.3H992.834z M936.435,641.37v-37.399
			c0-3.2-0.3-5.4-1-7.301c-1.6-4.399-6.6-7.399-12.3-7.399c-3,0-6.5,0.8-9.2,2.2c-2.2,1.199-3.9,2.399-5.9,3.8
			c0-2.101-0.7-4.3-1.9-6.4l-11.9,3.4c1.2,3.399,1.8,7.6,1.8,12v37.1h13.4v-36.2c3.1-2.8,6.6-4.6,9.3-4.6c3.5,0,4.5,1.7,4.5,7.5
			v33.3H936.435z M881.636,576.07c0-4.6-3.6-8.3-8.1-8.3c-4.6,0-8.4,3.7-8.4,8.3s3.7,8.3,8.2,8.3
			C877.936,584.37,881.636,580.67,881.636,576.07 M880.036,641.37v-52.399l-13.4,2.1v50.3H880.036z M817.738,610.17h-15.501v-0.199
			c0-7.101,2.9-11.101,8.001-11.101c2.699,0,4.599,1,5.899,3c1.2,1.9,1.601,3.9,1.601,7.7V610.17z M831.638,619.971v-3.101
			c0-10.7-2.1-17.6-6.8-22.399c-3.3-3.4-8.9-5.4-14.8-5.4c-6.801,0-11.901,2.2-16.101,6.9c-4.5,5-6.4,11.1-6.4,20.3
			c0,16.1,9.5,26.5,24.201,26.5c7.2,0,13.4-2.3,19.3-7.101l-5.2-8c-4.1,3.4-8.4,5.101-13.001,5.101c-6.9,0-10.8-4.5-10.8-12.4
			v-0.399H831.638z M784.538,590.07c-2.1-0.9-3-1.1-5-1.1c-5,0-9.1,3.399-12,7.3c-0.2-2.9-0.9-5.2-2.1-7.3l-12,3.199
			c1.1,2.9,1.9,8.101,1.9,15v34.2h13.4v-36.2c2.5-2.899,5.2-4.3,8.2-4.3c1.5,0,2.6,0.3,3.9,1L784.538,590.07z M729.939,610.17h-15.5
			v-0.199c0-7.101,2.9-11.101,8-11.101c2.7,0,4.6,1,5.9,3c1.2,1.9,1.6,3.9,1.6,7.7V610.17z M743.839,619.971v-3.101
			c0-10.7-2.1-17.6-6.8-22.399c-3.3-3.4-8.9-5.4-14.8-5.4c-6.8,0-11.9,2.2-16.1,6.9c-4.5,5-6.4,11.1-6.4,20.3
			c0,16.1,9.5,26.5,24.2,26.5c7.2,0,13.4-2.3,19.3-7.101l-5.2-8c-4.1,3.4-8.4,5.101-13,5.101c-6.9,0-10.8-4.5-10.8-12.4v-0.399
			H743.839z M686.739,641.37v-35.8c0-4.9-0.3-6.6-1.3-9.5c-1.6-4.5-6.8-7.3-13.3-7.3c-5.2,0-11,2.2-14.5,5.5
			c0-0.601,0.2-2.7,0.2-4.3v-10.2c0-4.9-0.3-9.7-0.9-12.5l-13.7,3.2c0.6,2.1,1,6.899,1,11.699v59.2h13.6v-36.7
			c3-2.699,7.3-4.699,10.6-4.699c3.8,0,5.2,1.899,5.2,7v34.399H686.739z M635.24,571.87h-14.7l-5.7,26.4
			c-1.5,6.8-3.6,20.899-3.8,23.1c0,0-1.7-11.899-3-18.399l-6.4-31.101h-15.3l-6.2,28.101c-2.1,9.6-3.3,19.5-3.6,22.199
			c0,0-0.9-9.899-3.7-22.899l-6-27.4h-14.8l16.6,70.101h15.9l5.8-28.5c1.9-9.2,3.1-18,3.3-19.601c0.2,2.5,1.3,11.101,3.3,19.8
			l6.2,28.301h15.3L635.24,571.87z"/>
	</g>
</g>
</svg>
