<svg id="Layer_1" data-name="Layer 1" xmlns="http://www.w3.org/2000/svg" viewBox="0 0 2008.72 583.9"><title>Eindhoven_University_of_Technology_logo</title><polygon points="70.78 361.83 70.78 129.28 2.5 129.28 2.5 73.37 226.79 73.37 210.75 129.28 141.45 129.28 141.45 361.83 70.78 361.83" style="fill:#24357f"/><path d="M303.47,105.87l-14.6,50.91H218.95V389.33H153.28V156.78H85V105.87H303.47m6.64-5H80v60.91h68.28V394.33h75.67V161.78h68.69l1-3.62,14.6-50.91,1.83-6.38Z" transform="translate(-80 -30)" style="fill:#fff"/><path d="M442.86,392.73c-85.12,0-103-47.92-103-88.12V103.37h66.8V290.44c0,31,11.16,44.8,36.19,44.8S479,321.42,479,290.44V103.37h66.8V304.61C545.85,344.81,528,392.73,442.86,392.73Z" transform="translate(-80 -30)" style="fill:#24357f"/><path d="M543.35,105.87V304.61c0,44.49-21.94,85.62-100.49,85.62S342.37,349.1,342.37,304.61V105.87h61.8V290.44c0,31.3,11.52,47.3,38.69,47.3s38.69-16,38.69-47.3V105.87h61.8m5-5h-71.8V290.44c0,14.87-2.64,25.43-8.07,32.28s-13.73,10-25.62,10-20.27-3.28-25.62-10-8.07-17.41-8.07-32.28V100.87h-71.8V304.61c0,26.54,7.47,47.72,22.19,63,17.72,18.35,45.75,27.65,83.3,27.65s65.57-9.3,83.3-27.65c14.73-15.25,22.19-36.43,22.19-63V100.87Z" transform="translate(-80 -30)" style="fill:#fff"/><path d="M825.63,392.76c-34.35,0-59.88-12.08-75.9-35.92-15-22.37-17.28-48.81-17.28-62.58,0-62.07,32.06-100.63,83.68-100.63,27.72,0,48.66,9.42,62.21,28,11.82,16.2,18,39.45,18.48,69.13h0l0,3.49V310h-107c.49,16.6,6.17,41.56,35.9,41.56,27.4,0,45.6-17.7,45.78-17.88l2.18-2.16,21.74,33.54-1.74,1.42C881.72,376.33,856.82,392.76,825.63,392.76Zm16-122.85v-1.56c0-34.27-18.95-34.27-25.18-34.27h-.32c-22.25,0-25.2,25.46-25.48,35.83Z" transform="translate(-80 -30)" style="fill:#24357f"/><path d="M816.13,196.13c56.22,0,78.22,39.22,78.22,98.13h0v13.3h-107c0,27,11.44,46.56,38.44,46.56,28.75,0,47.54-18.6,47.54-18.6l18.85,29.08c-11.58,9.4-35.77,25.67-66.58,25.67-76,0-90.68-60.83-90.68-96,0-57.25,28.18-98.13,81.18-98.13m-28,76.28h56v-4c0-36.48-20.77-36.77-27.68-36.77h-.32c-24.82,0-28,28-28,40.11v.72m28-81.28c-26.94,0-49.21,10.2-64.39,29.5C737.48,238.75,730,264.21,730,294.26c0,14.05,2.3,41.06,17.71,64a79,79,0,0,0,29.46,26.41c13.59,7,29.91,10.62,48.52,10.62,32,0,57.41-16.78,69.73-26.79l3.49-2.83-2.44-3.77-18.85-29.08-3.34-5.16L869.84,332c-.17.16-17.8,17.15-44,17.15-25.24,0-32.27-18.85-33.3-36.56H899.38V287.32l-.13,0c-.87-28.62-7.21-51.21-18.89-67.21-14.05-19.26-35.66-29-64.23-29Zm-22.87,76.28c.31-4.92,1.28-12.06,4.1-18.22,3.88-8.48,10-12.61,18.76-12.61h.32c2.79,0,8.58,0,13.39,3.68,6,4.61,9.14,13.74,9.28,27.15Z" transform="translate(-80 -30)" style="fill:#fff"/><polygon points="493.69 432.7 617.05 2.5 667.61 2.5 544.24 432.7 493.69 432.7" style="fill:#cf285a"/><path d="M744.29,35,622.36,460.2H577L698.93,35h45.36m6.64-5H695.16l-1,3.62L572.2,458.82l-1.83,6.38h55.75l1-3.62L749.1,36.38,750.93,30Z" transform="translate(-80 -30)" style="fill:#fff"/><path d="M2014.91,178.57h-.26a17.1,17.1,0,0,1-7.29-1.65c-5.58-2.71-6.23-8.24-6.23-12.16v-31.7h-6.5v-10.9h6.55c.18-4.63.73-10.08.76-10.35l.18-1.8,13.42-2.94-.43,3.51c-.47,3.83-.78,7.72-.92,11.59h13.7l-4.49,10.9h-9.57v29.6c0,4.69.87,4.9,3.9,4.9h.53a7.46,7.46,0,0,0,3.27-.76l2.86-1.4,2.2,10-1.72.88a21,21,0,0,1-9.5,2.28Zm-116.67,0H1898a17.1,17.1,0,0,1-7.29-1.65c-5.58-2.71-6.23-8.24-6.23-12.16v-31.7H1878v-10.9h6.55c.18-4.63.73-10.08.76-10.35l.18-1.8,13.42-2.95-.43,3.51c-.47,3.83-.78,7.72-.92,11.59h13.65l-4.43,10.9h-9.58v29.6c0,4.69.87,4.9,3.9,4.9h.53a7.47,7.47,0,0,0,3.27-.76l2.86-1.4,2.2,10-1.72.88a21.06,21.06,0,0,1-9.5,2.28Zm-75.19-.1a39.45,39.45,0,0,1-19.54-5.34l-2.06-1.2,5.35-10.35,2.31,1.47a27.39,27.39,0,0,0,14.48,4.31c4.73,0,7.57-2.28,7.57-6.1,0-2.25-.48-4.55-6.21-5.75l-6.2-1.3c-9.13-1.89-14.59-7.93-14.59-16.15,0-10.31,8.5-17.8,20.2-17.8a35.1,35.1,0,0,1,16.4,4.31l2.11,1.16-5.07,10.15-2.21-1.06c-4.56-2.18-7.73-3.36-11.42-3.36-4.26,0-6.9,2.18-6.9,5.7,0,2,.39,3.75,5.21,4.75l6.61,1.4c10.14,2.14,15.28,7.64,15.28,16.35,0,11.07-8.76,18.8-21.3,18.8Zm-522.83,0a39.44,39.44,0,0,1-19.54-5.34l-2.06-1.2,5.35-10.35,2.31,1.47a27.39,27.39,0,0,0,14.48,4.31c4.73,0,7.57-2.28,7.57-6.1,0-2.25-.48-4.55-6.21-5.75l-6.2-1.3c-9.13-1.89-14.59-7.93-14.59-16.15,0-10.31,8.5-17.8,20.2-17.8a35.09,35.09,0,0,1,16.4,4.31l2.11,1.16L1315,135.88l-2.22-1.06c-4.56-2.18-7.73-3.36-11.42-3.36-4.26,0-6.9,2.18-6.9,5.7,0,2,.39,3.75,5.21,4.75l6.61,1.4c10.14,2.14,15.28,7.64,15.28,16.35,0,11.07-8.76,18.8-21.3,18.8Zm241.32-.3c-11.34,0-18.28-3.46-22.5-11.21-2.06-3.78-2.3-8.6-2.3-11.9v-51.7h13.1v48.7c0,3.94.4,7.52,1,8.92.67,1.55,3.11,5.18,11.1,5.18,4.85,0,8.53-1.2,10.1-3.3,1.79-2.42,2.1-4.79,2.1-9.2v-50.3h13.13v53.8h-.07c-.21,6.77-1.45,11.16-6,15.1C1556.4,176.35,1550.34,178.17,1541.53,178.17Zm398-.1c-15.14,0-24.56-11.11-24.56-29,0-8.93,1.91-14.84,6.59-20.41.28-.33.57-.65.86-1a22.05,22.05,0,0,1,31.18-.74c5,5.09,6.47,10.4,6.47,22.81v3.6H1929c.11,3.82.71,6.45,1.88,8.23,2.67,4.11,7.08,5,10.31,5h.41a14.58,14.58,0,0,0,10.07-4l2.26-2.14,5.67,9.46-1.56,1.38a27.35,27.35,0,0,1-18.08,6.83Zm7.13-35.6c-.23-3.4-.8-5.64-1.82-7.27-1.23-2-3.93-3.23-6.88-3.23-2,0-7.61,0-8.81,10.5Zm-206.83,35.6c-15.14,0-24.56-11.11-24.56-29,0-8.93,1.91-14.84,6.59-20.41.28-.33.57-.65.87-1a22,22,0,0,1,31.17-.74c5,5.09,6.47,10.4,6.47,22.81v3.6h-31.08c.11,3.82.71,6.45,1.88,8.23,2.67,4.11,7.08,5,10.31,5h.41a14.58,14.58,0,0,0,10.07-4l2.26-2.14,5.68,9.46-1.56,1.38a27.36,27.36,0,0,1-18.08,6.83Zm7.13-35.6c-.23-3.4-.8-5.64-1.82-7.27-1.23-2-3.93-3.23-6.88-3.23-2,0-7.61,0-8.81,10.5Zm-287.26,35.6c-15.14,0-24.56-11.11-24.56-29,0-8.93,1.91-14.84,6.59-20.41.28-.33.56-.64.85-.94a22.06,22.06,0,0,1,31.19-.76c5,5.09,6.48,10.41,6.48,22.81v3.6h-31.08c.11,3.82.71,6.45,1.88,8.23,2.67,4.11,7.08,5,10.31,5h.4a14.6,14.6,0,0,0,10.08-4l2.26-2.14,5.67,9.46-1.56,1.38a27.36,27.36,0,0,1-18.09,6.83Zm7.13-35.6c-.23-3.4-.8-5.64-1.82-7.27-1.23-2-3.93-3.23-6.88-3.23-2,0-7.61,0-8.81,10.5Zm-406.73,35.6c-15.14,0-24.56-11.11-24.56-29,0-8.93,1.91-14.84,6.59-20.41.28-.33.56-.64.85-.95a22.06,22.06,0,0,1,31.19-.76c5,5.09,6.48,10.41,6.48,22.81v3.6h-31.08c.11,3.82.71,6.45,1.88,8.23,2.67,4.11,7.08,5,10.31,5h.4a14.59,14.59,0,0,0,10.08-4l2.26-2.14,5.67,9.46-1.56,1.38a27.35,27.35,0,0,1-18.08,6.83Zm7.13-35.6c-.23-3.4-.8-5.64-1.82-7.27-1.23-2-3.93-3.23-6.88-3.23-2,0-7.61,0-8.81,10.5Zm286,35.6c-7.93,0-14-2.88-17.95-8.57-3.59-5.22-5.25-11.29-5.25-19.13,0-10.05,2.62-17.35,8.23-23a20.67,20.67,0,0,1,15.08-6.53h.22c7.38,0,11.7,3.09,15.17,6l1.88,1.56-7.41,9.31-2-1.63c-3.28-2.72-4.91-3.42-7.91-3.42a8.24,8.24,0,0,0-7.21,4.3c-1.66,3-2.5,8.13-2.5,15.1,0,9.82,3.3,14.8,9.8,14.8a11.31,11.31,0,0,0,8.72-4.43L1364,160l7.8,9.07-1.6,1.64C1365.17,175.87,1360.09,178.07,1353.23,178.07Zm-240.4,0c-7.93,0-14-2.88-17.95-8.57-3.59-5.22-5.25-11.29-5.25-19.13,0-10.05,2.62-17.35,8.23-23a20.68,20.68,0,0,1,15.08-6.53h.22c7.38,0,11.7,3.09,15.17,6l1.88,1.56-7.41,9.31-2-1.63c-3.28-2.72-4.91-3.42-7.91-3.42a8.24,8.24,0,0,0-7.21,4.3c-1.66,3-2.5,8.13-2.5,15.1,0,9.82,3.3,14.8,9.8,14.8a11.31,11.31,0,0,0,8.72-4.43l1.88-2.43,7.79,9.06-1.6,1.64C1124.77,175.87,1119.69,178.07,1112.83,178.07Zm567.27-.6-19.46-54.25,13-2.76,12.46,36.84,12.1-35.13h13.68l-20.56,55.3Zm292-.5V122.74l13.1-2.1V177Zm-116.7,0V122.74l13.1-2.1V177Zm-83,0v-40.9c0-6.45-1.42-9.45-1.44-9.48l-1.32-2.72,2.91-.81,9.85-2.65.88,1.93a20.44,20.44,0,0,1,1.18,3.33,18.61,18.61,0,0,1,12.15-5,12,12,0,0,1,3.51.63l2.44.84-5,13.22-2.32-.84a4.13,4.13,0,0,0-1.37-.25,9.27,9.27,0,0,0-6.48,2.84c-1.76,1.76-2.19,2.58-2.19,6.16V177Zm-132,0V122.74l13.1-2.1V177Zm-57.6,0v-40.9c0-6.22-1.58-9.27-1.6-9.3l-1.46-2.75,3-.85,9.66-2.67.88,1.94a22.59,22.59,0,0,1,1.35,3.87c4.5-3.51,9.07-5.23,13.87-5.23,6.37,0,12.05,3.44,14.47,8.77a16.74,16.74,0,0,1,1.42,6.85V177h-12.9v-36.2c0-5-.38-5.67-1.14-6.6a4.77,4.77,0,0,0-3.29-1.31h-.37c-3,0-8.08,2.52-11.3,5.54V177Zm-203.33,0v-63.9a31.2,31.2,0,0,0-1.2-9.51l-.76-2.63,12.81-2.46.58,2.29a46.34,46.34,0,0,1,1.38,12.47v11.54c0,.43,0,.86,0,1.29,4.62-3.25,9.25-4.9,13.81-4.9,7.1,0,13.49,4.07,15.19,9.67a24.72,24.72,0,0,1,.91,8V177h-12.7v-36.9c0-3-.35-4.75-1.11-5.57a5.77,5.77,0,0,0-3.69-1.34h-.4c-3.87,0-8.31,2.53-12,6.81v37Zm-124.1,0V122.74l13.1-2.1V177Zm-57.6,0v-40.9c0-6.22-1.58-9.27-1.6-9.3l-1.46-2.75,3-.85,9.66-2.67.88,1.94a22.67,22.67,0,0,1,1.35,3.87c4.5-3.51,9.07-5.23,13.87-5.23,6.37,0,12.06,3.44,14.48,8.77a16.76,16.76,0,0,1,1.42,6.85V177h-12.9v-36.2c0-5-.38-5.67-1.14-6.6a4.78,4.78,0,0,0-3.29-1.31h-.37c-3,0-8.08,2.52-11.3,5.54V177Zm-58.7,0v-63.9a31.24,31.24,0,0,0-1.2-9.51l-.76-2.63,12.81-2.46.58,2.29a46.28,46.28,0,0,1,1.37,12.47v11.53c0,.43,0,.86,0,1.3,4.62-3.25,9.25-4.9,13.81-4.9,7.1,0,13.49,4.07,15.19,9.67a24.75,24.75,0,0,1,.91,8V177H1169v-36.9c0-3-.35-4.75-1.11-5.57a5.76,5.76,0,0,0-3.69-1.34h-.4c-3.87,0-8.31,2.53-12,6.81v37Zm-132.5,0v-61.7h-18.4v-11.9h50.59l-.86,11.9h-18.42V177Zm972.23-59a8.63,8.63,0,0,1,0-17.25h.1a8.63,8.63,0,0,1,0,17.25Zm-116.7,0a8.63,8.63,0,0,1,0-17.25h.1a8.56,8.56,0,0,1,8.52,8.62,8.6,8.6,0,0,1-8.53,8.63Zm-215,0a8.63,8.63,0,0,1,0-17.25h.1a8.63,8.63,0,0,1,0,17.25Zm-385,0a8.63,8.63,0,0,1,0-17.25h.1a8.63,8.63,0,0,1,0,17.25Z" transform="translate(-80 -30)" style="fill:#24357f"/><path d="M2015.37,181.08h-.69a19.64,19.64,0,0,1-8.39-1.89c-7.65-3.72-7.65-11.77-7.65-14.42v-29.2h-6.5v-15.9h6.67c.22-3.69.57-7.28.65-8.09l.37-3.62,18.64-4.09-.87,7c-.36,2.89-.62,5.84-.78,8.79h14.82l-6.55,15.9h-8.75v27.1a12.2,12.2,0,0,0,.15,2.36c.38,0,1,0,1.25,0h.53a4.94,4.94,0,0,0,2.17-.5l5.72-2.81,3.3,15-3.45,1.75A23.56,23.56,0,0,1,2015.37,181.08Zm-.45-5h.45a18.53,18.53,0,0,0,8.36-2l-1.1-5a10,10,0,0,1-4.9,1h-.06c-4.78,0-6.34-1.8-6.34-7.4v-32.1h10.4l2.43-5.9h-12.55l.09-2.59c.14-4,.45-7.93.93-11.81l-8.2,1.8c-.1,1-.59,5.94-.75,10.19l-.09,2.4h-6.46v5.9h6.5v34.2c0,5.23,1.49,8.29,4.82,9.91a14.56,14.56,0,0,0,6.2,1.39Zm-116.22,5H1898a19.64,19.64,0,0,1-8.39-1.89c-7.65-3.72-7.65-11.77-7.65-14.42v-29.2h-6.5v-15.9h6.67c.22-3.69.57-7.28.65-8.09l.37-3.62,18.64-4.09-.87,7c-.36,2.89-.62,5.84-.78,8.79h14.75l-6.47,15.9h-8.76v27.1a12.2,12.2,0,0,0,.15,2.36c.38,0,1,0,1.25,0h.53a5,5,0,0,0,2.17-.5l5.72-2.8,3.3,15-3.45,1.75A23.57,23.57,0,0,1,1898.7,181.08Zm-.45-5h.45a18.54,18.54,0,0,0,8.36-2l-1.1-5a9.94,9.94,0,0,1-4.9,1H1901c-4.78,0-6.34-1.8-6.34-7.4v-32.1h10.4l2.4-5.9h-12.52l.09-2.59c.14-4,.45-7.93.93-11.81l-8.2,1.8c-.1,1-.59,5.94-.75,10.19l-.09,2.4h-6.46v5.9h6.5v34.2c0,5.23,1.49,8.29,4.82,9.91a14.56,14.56,0,0,0,6.2,1.39Zm-75.19,4.9h0a42,42,0,0,1-20.78-5.68l-4.11-2.39,7.7-14.89,4.62,2.95a24.9,24.9,0,0,0,13.16,3.92c2.29,0,5-.62,5-3.6,0-1.3,0-2.42-4.23-3.31l-6.2-1.3c-10.22-2.12-16.57-9.24-16.57-18.59,0-11.76,9.55-20.3,22.7-20.3a37.67,37.67,0,0,1,17.61,4.62l4.22,2.31-7.25,14.5-4.43-2.11c-4.23-2-7.13-3.11-10.35-3.11-2,0-4.4.56-4.4,3.2,0,1.06,0,1.64,3.22,2.3l6.62,1.4c14.27,3,17.26,11.88,17.26,18.79C1846.86,172.21,1837.07,181,1823.06,181Zm0-5c11.07,0,18.8-6.7,18.8-16.3,0-7.46-4.35-12-13.3-13.9l-6.61-1.4c-5-1-7.19-3.2-7.19-7.2,0-4.9,3.78-8.2,9.4-8.2,4.17,0,7.61,1.27,12.5,3.6l2.9-5.8a32.62,32.62,0,0,0-15.23-4c-10.22,0-17.67,6.43-17.67,15.3,0,7,4.59,12,12.59,13.7l6.2,1.3c5.67,1.19,8.2,3.72,8.2,8.2,0,5.22-4,8.6-10.07,8.6a29.91,29.91,0,0,1-15.83-4.7l-3,5.8A36.94,36.94,0,0,0,1823.06,176Zm-522.83,5h0a42,42,0,0,1-20.78-5.68l-4.11-2.39L1283,158l4.62,2.95a24.89,24.89,0,0,0,13.16,3.92c2.29,0,5-.62,5-3.6,0-1.3,0-2.42-4.23-3.31l-6.2-1.3c-10.22-2.12-16.58-9.24-16.58-18.59,0-11.76,9.55-20.3,22.7-20.3a37.67,37.67,0,0,1,17.61,4.62l4.22,2.31-7.25,14.49-4.43-2.11c-4.23-2-7.13-3.11-10.35-3.11-2,0-4.4.56-4.4,3.2,0,1.06,0,1.64,3.21,2.3l6.62,1.4c14.27,3,17.26,11.88,17.26,18.79C1324,172.21,1314.24,181,1300.23,181Zm0-5h0c11.07,0,18.8-6.7,18.8-16.3,0-7.46-4.35-12-13.3-13.9l-6.61-1.4c-5-1-7.19-3.2-7.19-7.2,0-4.9,3.78-8.2,9.4-8.2,4.17,0,7.61,1.27,12.5,3.6h0l2.9-5.8a32.62,32.62,0,0,0-15.23-4c-10.22,0-17.67,6.43-17.67,15.3,0,7,4.59,12,12.6,13.7l6.2,1.3c5.67,1.19,8.2,3.72,8.2,8.2,0,5.22-4,8.6-10.07,8.6a29.91,29.91,0,0,1-15.83-4.7l-3,5.8A36.94,36.94,0,0,0,1300.23,176Zm241.3,4.7c-12.2,0-20-4-24.69-12.51-2.34-4.28-2.61-9.52-2.61-13.09v-54.2h18.1v51.2a28.59,28.59,0,0,0,.8,7.93c.37.85,2.11,3.67,8.8,3.67,4.71,0,7.3-1.24,8.1-2.3,1.25-1.69,1.6-3.35,1.6-7.7v-52.8h18.13v58.8h-.19c-.44,5.8-2,10.37-6.78,14.5C1557.54,178.66,1551,180.67,1541.53,180.67Zm-22.3-74.8v49.2c0,3,.21,7.42,2,10.7,3.78,6.94,9.85,9.9,20.3,9.9,8.17,0,13.72-1.63,18-5.3,3.65-3.13,5-6.48,5.17-13.28l.06-2.07V105.87h-8.13v47.8c0,4.88-.39,7.72-2.59,10.69-2.09,2.78-6.38,4.31-12.11,4.31-9.47,0-12.52-4.68-13.4-6.69s-1.2-6.48-1.2-9.91v-46.2Zm420.7,74.7h-.41c-16.44,0-27.06-12.36-27.06-31.5,0-9.57,2.08-16,7.17-22,.32-.38.64-.73,1-1.08a24.55,24.55,0,0,1,34.71-.83c5.5,5.63,7.25,11.59,7.25,24.62v6.1h-30.91a10.25,10.25,0,0,0,1.29,4.37c1.66,2.55,4.42,3.83,8.21,3.83h.44a12.07,12.07,0,0,0,8.32-3.33l4.52-4.29,8.35,13.92-3.13,2.75A29.85,29.85,0,0,1,1939.93,180.57Zm-1.56-57.21a19.38,19.38,0,0,0-14.15,6.06c-.26.27-.51.55-.76.85-4.31,5.13-6,10.4-6,18.79,0,16.59,8.25,26.5,22.06,26.5h.42a24.84,24.84,0,0,0,16.41-6.2l-3-5h0a17.07,17.07,0,0,1-11.79,4.7h-.44c-5.48,0-9.77-2.11-12.37-6.1-1.43-2.19-2.16-5.22-2.28-9.53l-.07-2.57h31.15v-1.1c0-11.77-1.29-16.49-5.76-21.06A19.42,19.42,0,0,0,1938.37,123.37Zm-198.14,57.21h-.41c-16.44,0-27.06-12.36-27.06-31.5,0-9.57,2.08-16,7.17-22,.32-.38.64-.74,1-1.08a24.55,24.55,0,0,1,34.71-.82c5.5,5.63,7.25,11.59,7.25,24.62v6.1H1732a10.21,10.21,0,0,0,1.29,4.36c1.66,2.55,4.42,3.84,8.21,3.84h.44a12.07,12.07,0,0,0,8.32-3.33l4.52-4.29,8.35,13.92-3.13,2.75A29.85,29.85,0,0,1,1740.23,180.57Zm-1.56-57.21a19.38,19.38,0,0,0-14.15,6.06c-.26.28-.52.56-.77.85-4.31,5.13-6,10.4-6,18.79,0,16.59,8.25,26.5,22.06,26.5h.42a24.85,24.85,0,0,0,16.41-6.2l-3-5a17.07,17.07,0,0,1-11.79,4.7h-.44c-5.48,0-9.77-2.11-12.37-6.1-1.43-2.19-2.16-5.22-2.28-9.53l-.07-2.57h31.15v-1.1c0-11.77-1.29-16.49-5.76-21.06A19.42,19.42,0,0,0,1738.67,123.37Zm-278.58,57.21h-.4c-16.44,0-27.06-12.36-27.06-31.5,0-9.57,2.08-16,7.17-22,.32-.38.63-.72.95-1.06a24.56,24.56,0,0,1,34.73-.85c5.5,5.63,7.25,11.6,7.25,24.62v6.1h-30.91a10.25,10.25,0,0,0,1.29,4.37c1.66,2.55,4.42,3.83,8.21,3.83h.43a12.09,12.09,0,0,0,8.33-3.33l4.52-4.29,8.35,13.92-3.13,2.75A29.87,29.87,0,0,1,1460.09,180.57Zm-1.55-57.2a19.4,19.4,0,0,0-14.17,6.07c-.25.27-.5.54-.75.84-4.31,5.13-6,10.4-6,18.79,0,16.59,8.25,26.5,22.06,26.5h.42a24.86,24.86,0,0,0,16.42-6.2l-3-5a17.09,17.09,0,0,1-11.8,4.7h-.43c-5.48,0-9.77-2.11-12.37-6.1-1.43-2.19-2.16-5.22-2.28-9.53l-.07-2.57h31.16v-1.1c0-11.77-1.29-16.49-5.76-21.06A19.43,19.43,0,0,0,1458.54,123.37Zm-398,57.2h-.41c-16.44,0-27.06-12.36-27.06-31.5,0-9.57,2.08-16,7.17-22,.32-.38.63-.72,1-1.06a24.56,24.56,0,0,1,34.72-.84c5.5,5.63,7.25,11.6,7.25,24.62v6.1h-30.91a10.22,10.22,0,0,0,1.29,4.36c1.66,2.55,4.42,3.84,8.22,3.84h.43a12.09,12.09,0,0,0,8.33-3.33l4.52-4.29,8.35,13.92-3.13,2.75A29.85,29.85,0,0,1,1060.5,180.57Zm-1.56-57.2a19.39,19.39,0,0,0-14.17,6.07c-.26.27-.51.55-.75.84-4.31,5.13-6,10.4-6,18.79,0,16.59,8.25,26.5,22.06,26.5h.42a24.84,24.84,0,0,0,16.41-6.2l-3-5h0a17.08,17.08,0,0,1-11.8,4.7h-.43c-5.48,0-9.77-2.11-12.37-6.1-1.43-2.19-2.16-5.22-2.28-9.52l-.07-2.57h31.15v-1.1c0-11.77-1.29-16.49-5.76-21.06A19.43,19.43,0,0,0,1058.94,123.37Zm294.29,57.2c-8.79,0-15.52-3.24-20-9.63-3.9-5.67-5.7-12.19-5.7-20.57,0-10.76,2.85-18.62,9-24.74a23.07,23.07,0,0,1,16.84-7.27h.23c7.81,0,12.68,3.15,16.76,6.56l3.76,3.13-10.52,13.21-3.93-3.25c-3-2.48-4.09-2.85-6.31-2.85a5.73,5.73,0,0,0-5,3c-1,1.84-2.19,5.75-2.19,13.91,0,12.3,5.3,12.3,7.3,12.3a8.77,8.77,0,0,0,6.74-3.45l3.75-4.86,11.29,13.13-3.21,3.28C1366.52,178.07,1360.73,180.57,1353.23,180.57Zm.1-57.2a18.1,18.1,0,0,0-13.23,5.73c-5.18,5.18-7.56,11.92-7.56,21.27,0,7.31,1.53,12.94,4.81,17.72,3.47,5,8.82,7.48,15.89,7.48,6.21,0,10.61-1.91,15.2-6.6l-4.3-5h0a13.77,13.77,0,0,1-10.65,5.4c-5.67,0-12.35-3-12.35-17.3,0-7.5.92-12.83,2.8-16.3a10.74,10.74,0,0,1,9.4-5.6c3.63,0,5.76.9,9.51,4h0l4.3-5.4c-3.28-2.73-7-5.4-13.57-5.4Zm-240.5,57.2c-8.79,0-15.52-3.24-20-9.63-3.9-5.67-5.7-12.19-5.7-20.57,0-10.76,2.85-18.62,9-24.74a23.07,23.07,0,0,1,16.84-7.27h.23c7.81,0,12.68,3.15,16.76,6.56l3.76,3.13-10.52,13.21-3.93-3.25c-3-2.48-4.09-2.85-6.31-2.85a5.73,5.73,0,0,0-5,3c-1,1.84-2.19,5.75-2.19,13.91,0,12.3,5.3,12.3,7.3,12.3a8.77,8.77,0,0,0,6.74-3.45l3.75-4.86,11.29,13.13-3.21,3.28C1126.12,178.07,1120.33,180.57,1112.83,180.57Zm.1-57.2a18.1,18.1,0,0,0-13.23,5.73c-5.18,5.18-7.56,11.92-7.56,21.27,0,7.31,1.53,12.94,4.81,17.72,3.47,5,8.82,7.48,15.89,7.48,6.21,0,10.61-1.91,15.2-6.6h0l-4.3-5h0a13.77,13.77,0,0,1-10.65,5.4c-5.67,0-12.35-3-12.35-17.3,0-7.5.92-12.83,2.8-16.3a10.74,10.74,0,0,1,9.39-5.6c3.63,0,5.76.9,9.51,4h0l4.3-5.4c-3.28-2.73-7-5.4-13.57-5.4ZM1693,180h-14.69l-21-58.6,18-3.81.71,2.11,10.11,29.9,9.72-28.21.58-1.69h19.06Zm-11.17-5h7.7l18.7-50.3H1700l-11.52,33.46L1686,165l-2.33-6.9L1672,123.37l-8,1.7Zm305.8,4.5h-18.1V120.61l5.39-.87a11.13,11.13,0,0,1,3.77-21.57h.12a11.14,11.14,0,0,1,6.81,19.86l2-.32Zm-13.1-5h8.1v-50.9l-8.1,1.3Zm4.26-71.3h-.08a6.13,6.13,0,0,0,0,12.25h.07a6.13,6.13,0,0,0,0-12.25ZM1871,179.47h-18.1V120.61l5.39-.87A11.13,11.13,0,0,1,1862,98.17h.12A11.14,11.14,0,0,1,1869,118l2-.32Zm-13.1-5h8.1v-50.9l-8.1,1.3Zm4.26-71.3H1862a6.13,6.13,0,0,0,0,12.25h.07a6.13,6.13,0,0,0,0-12.25Zm-74.46,76.3h-17.8v-43.4c0-5.7-1.19-8.4-1.2-8.42l-2.61-5.38,5.79-1.62,11.92-3.21,1.75,3.86.13.29a20.14,20.14,0,0,1,10.92-3.42,14.54,14.54,0,0,1,4.32.77l4.87,1.67L1799,138.56l-4.65-1.69a1.64,1.64,0,0,0-.55-.1,6.71,6.71,0,0,0-4.66,2.08c-1.29,1.29-1.49,1.49-1.49,4.42Zm-12.8-5h7.8v-31.2c0-4,.57-5.58,2.93-7.93a11.68,11.68,0,0,1,8.2-3.57,6.7,6.7,0,0,1,2.27.4l3.2-8.5a9.49,9.49,0,0,0-2.79-.5,16.13,16.13,0,0,0-10.41,4.37l-3.05,2.69-1-3.94a18.08,18.08,0,0,0-1-2.92h0l-7.8,2.1v0c.06.13,1.69,3.51,1.69,10.57Zm-118.9,5h-18.1V120.61l5.39-.87A11.13,11.13,0,0,1,1647,98.17h.12A11.14,11.14,0,0,1,1654,118l2-.32Zm-13.1-5h8.1v-50.9l-8.1,1.3Zm4.26-71.3H1647a6.13,6.13,0,0,0,0,12.25h.07a6.13,6.13,0,0,0,0-12.25Zm-49.26,76.3h-17.6v-43.4c0-5.43-1.31-8.14-1.32-8.17l-2.88-5.44,6-1.7,11.74-3.24,1.77,3.89q.21.46.4.92a23.27,23.27,0,0,1,12.55-3.75c7.35,0,13.93,4,16.75,10.23a19.31,19.31,0,0,1,1.65,7.89v42.77H1609v-38.7c0-3.81-.22-4.52-.47-4.89a2.25,2.25,0,0,0-1.46-.52h-.29c-2,0-5.89,1.68-8.88,4.17Zm-12.6-5h7.6V137.32l.79-.74c3.21-3,8.85-6.21,13-6.22h.38a7.27,7.27,0,0,1,5,2l.22.24c1.3,1.59,1.71,2.93,1.71,8.18v33.7h7.9V136.68a14.31,14.31,0,0,0-1.21-5.84c-2-4.4-6.79-7.27-12.18-7.27-4.24,0-8.28,1.54-12.33,4.7l-3,2.36-.93-3.73a20.12,20.12,0,0,0-1.2-3.44h0l-7.6,2.1v0c.2.4,1.89,3.85,1.89,10.48Zm-190.53,5h-17.8v-66.4a29,29,0,0,0-1.1-8.82L1374.31,99l17.82-3.43,1.15,4.59a48.83,48.83,0,0,1,1.45,13.15v8.3a24.41,24.41,0,0,1,11.3-2.93c8.17,0,15.56,4.81,17.58,11.44a27.35,27.35,0,0,1,1,8.78v40.56h-17.7v-39.4a10.29,10.29,0,0,0-.43-3.82,3.28,3.28,0,0,0-1.88-.59h-.32c-3,0-6.5,2-9.58,5.26Zm-12.8-5h7.8V139l.61-.7c4.21-4.87,9.27-7.67,13.88-7.67h.41a8.28,8.28,0,0,1,5.29,1.91l.24.23c1.24,1.35,1.77,3.52,1.77,7.27v34.4h7.7V138.71a22.29,22.29,0,0,0-.82-7.19c-1.36-4.45-6.86-7.85-12.79-7.85-4,0-8.19,1.49-12.37,4.44l-4,2.85.1-4.94c0-.42,0-.83,0-1.24V113.23a44,44,0,0,0-1.3-11.86l-7.8,1.5a33.79,33.79,0,0,1,1.3,10.27Zm-111,5h-18.1V120.61l5.39-.87A11.13,11.13,0,0,1,1262,98.17h.12a11.09,11.09,0,0,1,11,11.13,11,11,0,0,1-3.19,7.8,11.25,11.25,0,0,1-1,.92l2-.32Zm-13.1-5h8.1v-50.9l-8.1,1.3Zm4.26-71.3H1262a6.13,6.13,0,0,0,0,12.25h.07a6.13,6.13,0,0,0,0-12.25Zm-49.26,76.3h-17.6v-43.4c0-5.43-1.31-8.14-1.32-8.17l-2.88-5.44,6-1.7,11.74-3.24,1.77,3.89q.21.46.4.92a23.26,23.26,0,0,1,12.55-3.75c7.35,0,13.93,4,16.75,10.23a19.33,19.33,0,0,1,1.65,7.89v42.77h-17.9v-38.7c0-3.81-.22-4.52-.47-4.89a2.26,2.26,0,0,0-1.46-.52h-.29c-2,0-5.89,1.68-8.88,4.17Zm-12.6-5h7.6V137.32l.79-.74c3.21-3,8.85-6.21,13-6.22h.38a7.28,7.28,0,0,1,5,2l.22.24c1.3,1.59,1.71,2.93,1.71,8.18v33.7h7.9V136.68a14.34,14.34,0,0,0-1.21-5.84c-2-4.4-6.79-7.27-12.18-7.27-4.24,0-8.28,1.54-12.33,4.7l-3,2.36-.93-3.73a20.22,20.22,0,0,0-1.2-3.44h0l-7.6,2.1v0c.2.4,1.89,3.85,1.89,10.48Zm-45.9,5h-17.8v-66.4a29,29,0,0,0-1.1-8.82L1133.91,99l17.82-3.43,1.15,4.59a48.79,48.79,0,0,1,1.45,13.15v8.3a24.39,24.39,0,0,1,11.3-2.94c8.17,0,15.57,4.81,17.58,11.44a27.38,27.38,0,0,1,1,8.78v40.56h-17.7v-39.4a10.28,10.28,0,0,0-.43-3.82,3.27,3.27,0,0,0-1.87-.59h-.32c-3,0-6.5,2-9.58,5.26Zm-12.8-5h7.8V139l.61-.7c4.21-4.87,9.27-7.67,13.88-7.67h.41a8.27,8.27,0,0,1,5.29,1.92l.24.23c1.24,1.35,1.77,3.52,1.77,7.27v34.4h7.7V138.71a22.34,22.34,0,0,0-.82-7.19c-1.36-4.45-6.86-7.85-12.79-7.85-4,0-8.19,1.49-12.37,4.44l-4,2.85.1-4.94c0-.42,0-.83,0-1.24V113.24a43.93,43.93,0,0,0-1.3-11.86h0l-7.8,1.5a33.82,33.82,0,0,1,1.3,10.27Zm-119.6,5H1004v-61.7h-18.4v-16.9h55.78l-1.23,16.9h-18.25Zm-12.9-5h7.9v-61.7h18.6l.5-6.9h-45.4v6.9H1009Zm940.3-29.5h-23l.32-2.78c.66-5.8,3.16-12.72,11.29-12.72,3.84,0,7.29,1.68,9,4.39,1.27,2,1.94,4.63,2.2,8.44Zm-17.21-5h11.75a9.46,9.46,0,0,0-1.15-3.45c-.76-1.2-2.72-2.05-4.76-2.05C1936.44,134.47,1933.48,134.47,1932.12,140Zm-182.49,5h-23l.32-2.78c.66-5.8,3.16-12.72,11.29-12.72,3.84,0,7.29,1.68,9,4.39,1.27,2,1.94,4.63,2.2,8.44Zm-17.21-5h11.75a9.44,9.44,0,0,0-1.15-3.45c-.76-1.2-2.72-2.05-4.76-2.05C1736.74,134.47,1733.78,134.47,1732.42,140Zm-262.92,5h-23l.32-2.78c.66-5.8,3.16-12.72,11.29-12.72,3.84,0,7.29,1.68,9,4.39,1.27,2,1.94,4.63,2.2,8.44Zm-17.21-5H1464a9.46,9.46,0,0,0-1.15-3.45c-.76-1.2-2.72-2.05-4.76-2.05C1456.61,134.47,1453.65,134.47,1452.29,140Zm-382.39,5h-23l.32-2.78c.66-5.8,3.16-12.72,11.29-12.72,3.84,0,7.29,1.68,9,4.39,1.27,2,1.94,4.63,2.2,8.44Zm-17.21-5h11.75a9.47,9.47,0,0,0-1.15-3.45c-.76-1.2-2.72-2.05-4.76-2.05C1057,134.47,1054.05,134.47,1052.69,140Z" transform="translate(-80 -30)" style="fill:#fff"/><path d="M2024.16,124.67h-12.53a134.18,134.18,0,0,1,1-14.4l-8.2,1.8s-.8,7.8-.8,12.6h-6.5v5.9h6.5v34.2c0,5,1.3,8.2,4.8,9.9a14.49,14.49,0,0,0,6.5,1.4,18.45,18.45,0,0,0,8.8-2l-1.1-5a9.92,9.92,0,0,1-4.9,1c-4.9,0-6.4-1.9-6.4-7.4v-32.1h10.4Zm-39.3-15.4a6.06,6.06,0,0,0-6-6.1h-.08a6.15,6.15,0,0,0-6.1,6.2h0a6.1,6.1,0,1,0,12.2-.1h0m-2.2,65.2v-50.9l-8.1,1.3v49.6h8.1Zm-33.4-29.5h-22.8c.4-10.3,4.4-15.5,11.5-15.5,3.8,0,7.3,1.7,9,4.4,1.5,2.4,2.2,5.7,2.3,11.1m8.3,5.9v-1.1c0-11.9-1.4-16.6-5.7-21a19.55,19.55,0,0,0-27.64.66q-.39.41-.76.84c-4.2,5-6,10.4-6,18.8,0,16.5,8.3,26.5,22.1,26.5a24.87,24.87,0,0,0,16.8-6.2l-3-5a17.14,17.14,0,0,1-12.2,4.7c-5,0-9.6-1.8-12.4-6.1-1.7-2.6-2.3-6.2-2.3-10.9v-1.2Zm-50.1-26.2H1895a134.19,134.19,0,0,1,1-14.4l-8.2,1.8s-.8,7.8-.8,12.6h-6.5v5.9h6.5v34.2c0,5,1.3,8.2,4.8,9.9a14.49,14.49,0,0,0,6.5,1.4,18.45,18.45,0,0,0,8.8-2l-1.1-5a9.93,9.93,0,0,1-4.9,1c-4.9,0-6.4-1.9-6.4-7.4v-32.1h10.4Zm-39.3-15.4a6.06,6.06,0,0,0-6-6.1h-.08a6.15,6.15,0,0,0-6.1,6.2h0a6.1,6.1,0,1,0,12.2-.1h0m-2.2,65.2v-50.9l-8.1,1.3v49.6Zm-24.1-14.8c0-7.4-4.3-12-13.3-13.9l-6.6-1.4c-5.3-1.1-7.2-3.4-7.2-7.2,0-4.9,3.7-8.2,9.4-8.2,4.4,0,8.1,1.5,12.5,3.6l2.9-5.8a32.45,32.45,0,0,0-15.2-4c-10.4,0-17.7,6.3-17.7,15.3,0,6.9,4.4,12,12.6,13.7l6.2,1.3c5.7,1.2,8.2,3.7,8.2,8.2,0,5.3-4,8.6-10.1,8.6a29.92,29.92,0,0,1-15.8-4.7l-3,5.8a36.88,36.88,0,0,0,18.3,5c11.2,0,18.8-6.6,18.8-16.3m-42.6-36a9.38,9.38,0,0,0-2.7-.5c-5.1,0-10.4,3.2-14,8.3a18,18,0,0,0-1.6-8.1l-7.8,2.1s1.7,3.3,1.7,10.6v38.4h7.8v-31.2c0-4.1.6-5.6,2.9-7.9a11.87,11.87,0,0,1,8.3-3.6,6.65,6.65,0,0,1,2.2.4Zm-49.7,21.3h-22.8c.4-10.3,4.4-15.5,11.5-15.5,3.8,0,7.3,1.7,9,4.4,1.5,2.4,2.2,5.7,2.3,11.1m8.3,5.9v-1.1c0-11.9-1.4-16.6-5.7-21a19.55,19.55,0,0,0-27.64.66q-.39.41-.76.84c-4.2,5-6,10.4-6,18.8,0,16.5,8.3,26.5,22.1,26.5a24.87,24.87,0,0,0,16.8-6.2l-3-5a17.14,17.14,0,0,1-12.2,4.7c-5,0-9.6-1.8-12.4-6.1-1.7-2.6-2.3-6.2-2.3-10.9v-1.2Zm-49.6-26.2H1700l-11.4,33.1a70.31,70.31,0,0,0-2.4,8.4h-.2s-1-4.4-2.4-8.5l-11.6-34.3-8,1.7,17.9,49.9h7.7Zm-55.1-15.4a6.06,6.06,0,0,0-6-6.1h-.08a6.15,6.15,0,0,0-6.1,6.2h0a6.1,6.1,0,1,0,12.2-.1h0m-2.2,65.2v-50.9l-8.1,1.3v49.6h8.1Zm-29.1,0v-37.8a14.33,14.33,0,0,0-1.2-5.8c-2-4.4-6.8-7.3-12.2-7.3s-10.5,2.5-15.7,7.7a20.15,20.15,0,0,0-1.8-7.8l-7.6,2.1s1.9,3.4,1.9,10.5v38.4h7.6V137.36c3.6-3.8,9.8-7,13.8-7a7.3,7.3,0,0,1,5.5,2.1c1.4,1.7,1.8,3,1.8,8.3v33.7h7.9Zm-57.1-19.8v-48.8h-8.13v47.8c0,4.6-.3,7.6-2.6,10.7-2.1,2.8-6.4,4.3-12.1,4.3-8.4,0-12.1-3.7-13.4-6.7-.9-2.1-1.2-6.5-1.2-9.9v-46.2h-8.1v49.2c0,3,.2,7.4,2,10.7,3.7,6.8,9.7,9.9,20.3,9.9,8.3,0,13.8-1.7,18-5.3s5.2-7.4,5.2-15.7m-95.3-9.7h-22.8c.4-10.3,4.4-15.5,11.5-15.5,3.8,0,7.3,1.7,9,4.4,1.5,2.4,2.2,5.7,2.3,11.1m8.3,5.9v-1.1c0-11.9-1.4-16.6-5.7-21a19.56,19.56,0,0,0-27.65.67q-.38.4-.75.83c-4.2,5-6,10.4-6,18.8,0,16.5,8.3,26.5,22.1,26.5a24.88,24.88,0,0,0,16.8-6.2l-3-5a17.15,17.15,0,0,1-12.2,4.7c-5,0-9.6-1.8-12.4-6.1-1.7-2.6-2.3-6.2-2.3-10.9v-1.2Zm-58.1,23.6v-35.7a22.18,22.18,0,0,0-.8-7.2c-1.4-4.6-6.8-7.9-12.8-7.9-6.4,0-12.1,3.7-16.6,7.9,0,0,.3-3.6.3-6.8v-11.6a43.83,43.83,0,0,0-1.3-11.8l-7.8,1.5a33.62,33.62,0,0,1,1.3,10.2v61.4h7.8V139.06c4.3-5.3,9.7-8.4,14.5-8.4a8.27,8.27,0,0,1,5.8,2c1.4,1.4,1.9,3.7,1.9,7.4v34.4h7.7Zm-51.2-5.5-4.3-5a13.89,13.89,0,0,1-10.7,5.4c-8,0-12.3-6.1-12.3-17.3,0-7.3.9-12.8,2.8-16.3a10.74,10.74,0,0,1,9.4-5.6c3.8,0,6,1.1,9.5,4l4.3-5.4c-3.6-3-7.3-5.4-13.6-5.4a18.17,18.17,0,0,0-13.5,5.8c-4.3,4.3-7.5,10.3-7.5,21.2,0,7.4,1.5,12.9,4.8,17.7q5.25,7.5,15.9,7.5c6.2,0,10.6-1.9,15.2-6.6m-49.4-9.3c0-7.4-4.3-12-13.3-13.9l-6.6-1.4c-5.3-1.1-7.2-3.4-7.2-7.2,0-4.9,3.7-8.2,9.4-8.2,4.4,0,8.1,1.5,12.5,3.6l2.9-5.8a32.45,32.45,0,0,0-15.2-4c-10.4,0-17.7,6.3-17.7,15.3,0,6.9,4.4,12,12.6,13.7l6.2,1.3c5.7,1.2,8.2,3.7,8.2,8.2,0,5.3-4,8.6-10.1,8.6a29.92,29.92,0,0,1-15.8-4.7l-3,5.8a36.88,36.88,0,0,0,18.3,5c11.2,0,18.8-6.6,18.8-16.3m-50.9-50.4a6.06,6.06,0,0,0-6-6.1H1262a6.15,6.15,0,0,0-6.1,6.2h0a6.1,6.1,0,1,0,12.2-.1h0m-2.2,65.2v-50.9l-8.1,1.3v49.6Zm-29.1,0v-37.8a14.33,14.33,0,0,0-1.2-5.8c-2-4.4-6.8-7.3-12.2-7.3s-10.5,2.5-15.7,7.7a20.15,20.15,0,0,0-1.8-7.8l-7.6,2.1s1.9,3.4,1.9,10.5v38.4h7.6V137.36c3.6-3.8,9.8-7,13.8-7a7.3,7.3,0,0,1,5.5,2.1c1.4,1.7,1.8,3,1.8,8.3v33.7h7.9Zm-57.6,0v-35.7a22.21,22.21,0,0,0-.8-7.2c-1.4-4.6-6.8-7.9-12.8-7.9-6.4,0-12.1,3.7-16.6,7.9,0,0,.3-3.6.3-6.8v-11.6a43.83,43.83,0,0,0-1.3-11.8l-7.8,1.5a33.64,33.64,0,0,1,1.3,10.2v61.4h7.8V139.06c4.3-5.3,9.7-8.4,14.5-8.4a8.26,8.26,0,0,1,5.8,2c1.4,1.4,1.9,3.7,1.9,7.4v34.4h7.7ZM1128,169l-4.3-5a13.89,13.89,0,0,1-10.7,5.4c-8,0-12.3-6.1-12.3-17.3,0-7.3.9-12.8,2.8-16.3a10.74,10.74,0,0,1,9.4-5.6c3.8,0,6,1.1,9.5,4l4.3-5.4c-3.6-3-7.3-5.4-13.6-5.4a18.17,18.17,0,0,0-13.5,5.8c-4.3,4.3-7.5,10.3-7.5,21.2,0,7.4,1.5,12.9,4.8,17.7q5.25,7.5,15.9,7.5c6.2,0,10.6-1.9,15.2-6.6m-58.2-24H1047c.4-10.3,4.4-15.5,11.5-15.5,3.8,0,7.3,1.7,9,4.4,1.5,2.4,2.2,5.7,2.3,11.1m8.3,5.9v-1.1c0-11.9-1.4-16.6-5.7-21a19.56,19.56,0,0,0-27.65.67q-.38.4-.75.83c-4.2,5-6,10.4-6,18.8,0,16.5,8.3,26.5,22.1,26.5a24.87,24.87,0,0,0,16.8-6.2l-3-5a17.15,17.15,0,0,1-12.2,4.7c-5,0-9.6-1.8-12.4-6.1-1.7-2.6-2.3-6.2-2.3-10.9v-1.2Zm-42.1-45h-45.4v6.9H1009v61.7h7.9v-61.7h18.6Z" transform="translate(-80 -30)" style="fill:#24357f"/><path d="M1244.6,284.36h-13.07v-36.9c0-4.5-1-4.5-2.7-4.5-2.3,0-5.57,1.38-8.1,3.36v38h-18.6v-61.7a52,52,0,0,0-.9-11l-.72-2.53,18.82-4.34.43,2.63a71.89,71.89,0,0,1,.93,13v9.54a24.94,24.94,0,0,1,11.78-3.08c7.71,0,13.71,3.43,15.68,9,1.16,3.37,1.44,5.4,1.44,10.34v33.25h2.69l-2.69,3.42v1.58h-1.25l-3.71,4.65Zm144.87,1.45c-16,0-26.69-11.65-26.69-29,0-9.92,2.11-16.49,7-22,4.71-5.27,10.42-7.73,18-7.73,6.65,0,12.85,2.3,16.59,6.16,5.19,5.3,7.51,12.75,7.51,24.14V263H1382.4c.56,5.18,3.31,7.8,8.19,7.8,4,0,7.73-1.48,11.4-4.52l2.16-1.79,7.92,12.19-1.66,1.43a31.9,31.9,0,0,1-20.78,7.7Zm3.47-37.6a8.4,8.4,0,0,0-1.17-4.46,4,4,0,0,0-3.37-1.85H1388c-3.67,0-5,3.06-5.38,6.3Zm-228.12,37.45c-14.33,0-23.64-11.19-23.64-28.5s10-29.47,24.35-29.5h.67a16.33,16.33,0,0,1,5.63,1q-.07-1.61-.05-3.22v-20.5l18.3,2.89v55.39c0,7.83.38,13.15,1.16,16.15h.71l0,2,1.32,3h-17.42l-.64-1.39a19.65,19.65,0,0,1-9.93,2.69Zm2.36-42.25c-2,0-6.1,0-6.1,13.9,0,11.43,2.55,12.09,6.71,12.1a7.14,7.14,0,0,0,4.19-1.81V245.38A8,8,0,0,0,1167.19,243.41Zm116.4,42.1c-15.25,0-25.5-11.65-25.5-29,0-17.52,10.25-29.3,25.5-29.3,8.1,0,14.42,2.81,19.31,8.59,4.49,5.25,6.49,11.52,6.49,20.31,0,9.32-2.17,15.93-7,21.45S1291.59,285.51,1283.59,285.51Zm-4.12-17.43a4.94,4.94,0,0,0,4.4,2.73h.12c1.88,0,5.8,0,5.8-14.8,0-7.76-1.18-10.89-2.17-12.16a4.78,4.78,0,0,0-2.32-1.54,4.82,4.82,0,0,0-6,3.22,33.88,33.88,0,0,0-1.29,10.58C1278,263.39,1278.91,266.72,1279.47,268.08Zm167.12,16.33v-35.8c0-5-.59-5-2-5-1.77,0-4.36,1.25-6.8,3.25v37.55h-18.4v-39.6a34.39,34.39,0,0,0-1.68-11.23l-.8-2.46,16.22-4.64,1,1.63a15.6,15.6,0,0,1,1.56,3.45q1.42-.9,2.88-1.73l.12-.06a23.74,23.74,0,0,1,10.29-2.46c6.82,0,12.7,3.64,14.67,9a23.19,23.19,0,0,1,1.15,8.21v39.85Zm-118.34,0-20.3-55,18.89-2.34,8,25.07c.23.7.47,1.49.72,2.34q.43-1.53.92-3l7.46-23.23h19.4l-20.53,56.2Zm-214.26,0v-35.8c0-5-.58-5-2-5-1.77,0-4.36,1.25-6.8,3.25v37.55h-18.4v-39.6a34.41,34.41,0,0,0-1.68-11.23l-.8-2.46,16.22-4.64,1,1.63a15.61,15.61,0,0,1,1.56,3.45q1.42-.9,2.88-1.73l.12-.06a23.77,23.77,0,0,1,10.29-2.46c6.82,0,12.71,3.64,14.67,9a23.17,23.17,0,0,1,1.15,8.21v39.85Zm-57.6,0V229.47l18.4-2.88v57.82Zm-52.46,0v-74.5h45l-2.59,16.4h-23.44v11.1h19.9v16.4h-19.7v13.6h26.26v17Zm61.71-57.05a10.76,10.76,0,0,1-10.75-10.75,10.89,10.89,0,0,1,10.86-10.8h.1a10.78,10.78,0,0,1-.21,21.55Z" transform="translate(-80 -30)" style="fill:#24357f"/><path d="M1242.17,296.11l-.05-9.25H1229v-39.4a13.89,13.89,0,0,0-.11-2h-.09a11.71,11.71,0,0,0-5.6,2.14v39.26h-23.6v-64.2a50.9,50.9,0,0,0-.81-10.33l-1.45-5.06,24-5.53.86,5.26a74.45,74.45,0,0,1,1,13.4V226a27.49,27.49,0,0,1,9.25-1.7c8.82,0,15.73,4.07,18.06,10.62,1.26,3.67,1.59,6,1.59,11.18v30.75h5.33l-5.33,6.78v3.22h-2.55ZM1234,281.86h13.06v.05l0-.05h0V246.11c0-4.66-.24-6.44-1.31-9.52-1.59-4.48-6.7-7.28-13.32-7.28a22.48,22.48,0,0,0-10.57,2.78l-3.7,2V220.36a69.58,69.58,0,0,0-.9-12.55L1203.63,211a54.41,54.41,0,0,1,1,11.7v59.2h13.6V245.11l1-.75c3-2.37,6.81-3.9,9.64-3.9,4.33,0,5.2,2.68,5.2,7Zm155.61,6.45h-.17c-17.45,0-29.18-12.66-29.18-31.5,0-10.59,2.3-17.66,7.68-23.65,5.21-5.83,11.51-8.56,19.82-8.56,7.31,0,14.18,2.59,18.39,6.92,5.68,5.8,8.21,13.78,8.21,25.88v8.1h-6.59l7.57,11.64L1412,280A34.4,34.4,0,0,1,1389.64,288.31Zm-1.85-58.7c-6.87,0-11.83,2.13-16.09,6.89-4.49,5-6.41,11.06-6.41,20.31,0,15.85,9.72,26.5,24.19,26.5h.17a29.39,29.39,0,0,0,19.14-7.1l-5.2-8c-4.14,3.43-8.39,5.1-13,5.1-6.19,0-10-3.56-10.68-10l-.3-2.77h29.78v-3.1c0-10.69-2.09-17.59-6.79-22.39C1399.31,231.63,1393.78,229.61,1387.79,229.61Zm-2.24,35.9c.86,1.94,2.46,2.8,5,2.8a14.28,14.28,0,0,0,8.3-2.8Zm-220.23,22.66h-.52a24,24,0,0,1-19.09-8.66c-4.59-5.53-7-13.26-7-22.34,0-18.81,11-32,26.84-32h.68a18.66,18.66,0,0,1,3.08.26V202l23.3,3.68v57.52a96.31,96.31,0,0,0,.71,13.65h1.15l0,4,2.67,6h-22.86l-.23-.49A22.19,22.19,0,0,1,1165.32,288.17Zm.89-58h-.57c-13,0-21.95,11.13-21.95,27,0,7.9,2,14.52,5.87,19.15a19.14,19.14,0,0,0,15.27,6.85h.07a17.07,17.07,0,0,0,9.09-2.34l2.38-1.39,1.12,2.44h11.83l-.49-1.87c-.84-3.22-1.25-8.71-1.25-16.78V210l-13.3-2.1v17.58c0,1,0,2.09.05,3.11l.15,3.74L1171,231A13.76,13.76,0,0,0,1166.21,230.15ZM1283.59,288c-16.75,0-28-12.66-28-31.5,0-19,11.25-31.8,28-31.8,8.88,0,15.82,3.1,21.22,9.47,4.9,5.73,7.08,12.5,7.08,21.93,0,10-2.36,17.09-7.65,23.1S1292.36,288,1283.59,288Zm0-58.3c-13.76,0-23,10.77-23,26.8,0,15.85,9.24,26.5,23,26.5,7.34,0,12.55-2.19,16.91-7.11s6.39-11.13,6.39-19.79c0-8.16-1.82-13.92-5.89-18.69C1296.61,232.23,1290.91,229.71,1283.59,229.71Zm183.7,57.2h-23.2v-38.3c0-1.17,0-1.93-.08-2.42a11.3,11.3,0,0,0-3.72,1.9v38.83h-23.4v-42.1a32,32,0,0,0-1.56-10.46l-1.6-4.93,20.55-5.87,2,3.26q.33.54.62,1.1l.46-.26.17-.09a26.32,26.32,0,0,1,11.44-2.75c7.88,0,14.72,4.3,17,10.69a25.91,25.91,0,0,1,1.3,9.11Zm-18.2-5h13.2V244.46a20.82,20.82,0,0,0-1-7.33c-1.58-4.35-6.53-7.32-12.29-7.32a21.21,21.21,0,0,0-9.18,2.2l-.06,0c-.87.49-1.8,1-2.71,1.63l-2.76,1.76-1-3.12a13.09,13.09,0,0,0-1.31-2.89l-11.9,3.4a37,37,0,0,1,1.8,12v37.06h13.4V245.67l.92-.75c3-2.42,6-3.81,8.38-3.81,4.5,0,4.5,3.81,4.5,7.5Zm-104.5,5h-18.08l-22-59.59,24.07-3,7,21.83,6.56-20.45h24.79Zm-14.6-5h11.1l18.7-51.2h-14l-6.9,21.5q-.47,1.47-.89,3l-2.35,8.32-2.45-8.29c-.24-.82-.48-1.59-.7-2.28l-7.4-23.11-13.7,1.7Zm-195.3,5h-23.2v-38.3c0-1.17,0-1.93-.08-2.42a11.3,11.3,0,0,0-3.72,1.9v38.82h-23.4v-42.1a32,32,0,0,0-1.56-10.46l-1.6-4.93,20.55-5.87,2,3.26q.33.54.62,1.1l.46-.26.17-.09a26.35,26.35,0,0,1,11.44-2.75c7.88,0,14.72,4.3,17,10.69a25.88,25.88,0,0,1,1.3,9.11Zm-18.2-5h13.2V244.46a20.8,20.8,0,0,0-1-7.33c-1.58-4.35-6.53-7.32-12.3-7.32a21.24,21.24,0,0,0-9.18,2.2l-.06,0c-.87.49-1.8,1-2.71,1.63l-2.75,1.75-1-3.12a13.11,13.11,0,0,0-1.31-2.89l-11.9,3.4a37,37,0,0,1,1.8,12v37.06h13.4V245.67l.92-.75c3-2.42,6-3.81,8.38-3.81,4.5,0,4.5,3.81,4.5,7.5Zm-39.2,5h-23.4V227.33l3.31-.52a13.23,13.23,0,0,1-4.81-10.2,13.41,13.41,0,0,1,13.36-13.3h.11a13.21,13.21,0,0,1,13,13.38,13,13,0,0,1-2.07,7l.47-.07Zm-18.4-5h13.4v-52.4l-13.4,2.1Zm6.85-73.6a8.39,8.39,0,0,0-8.35,8.32,8.25,8.25,0,0,0,14.08,5.81,8.29,8.29,0,0,0-5.66-14.13Zm-13.85,78.6h-50.46v-79.5h50.45l-3.38,21.4h-23.07v6.1h19.9v21.4h-19.7v8.6h26.26Zm-45.46-5h40.46v-12h-26.26v-18.6h19.7v-11.4h-19.9v-16.1h23.8l1.8-11.4h-39.6Zm277.46-8.6a7.47,7.47,0,0,1-6.66-4.12l-.07-.16c-.76-1.84-1.67-5.58-1.67-12.91a36.14,36.14,0,0,1,1.39-11.28,7.32,7.32,0,0,1,9.15-4.92,7.23,7.23,0,0,1,3.53,2.35c1.85,2.36,2.73,6.84,2.73,13.74,0,12.13-2.48,17.3-8.3,17.3Zm-2.14-6.27a2.43,2.43,0,0,0,2.12,1.27h.1c.8,0,1.06,0,1.54-.72.67-1,1.78-3.87,1.78-11.58,0-7.91-1.25-10.13-1.64-10.62a2.26,2.26,0,0,0-1.07-.68,2.38,2.38,0,0,0-2.91,1.55,31.3,31.3,0,0,0-1.19,9.77C1280.49,263,1281.34,266,1281.74,267Zm-113.85,4.87h-.1c-7,0-9.2-3.56-9.2-14.6,0-11.34,2.65-16.4,8.6-16.4a10.3,10.3,0,0,1,6.33,2.5l1,.75v24.55l-.82.74a9.66,9.66,0,0,1-5.67,2.45Zm-.71-26c-.89,0-1.27,0-1.78.72-.68.93-1.82,3.54-1.82,10.68,0,9.46,1.37,9.59,4.1,9.6a4.61,4.61,0,0,0,1.8-.57V246.69A4.57,4.57,0,0,0,1167.19,245.91Zm228.4,4.8h-15.78l.32-2.79c.88-7.68,5.79-8.51,7.86-8.51h.42a6.45,6.45,0,0,1,5.48,3,10.9,10.9,0,0,1,1.55,5.67Zm-9.74-5H1390a3.82,3.82,0,0,0-.33-.63,1.45,1.45,0,0,0-1.25-.68h-.34A2.22,2.22,0,0,0,1385.85,245.71Z" transform="translate(-80 -30)" style="fill:#fff"/><path d="M1462.29,281.91v-37.4a20.69,20.69,0,0,0-1-7.3c-1.6-4.4-6.6-7.4-12.3-7.4a21.11,21.11,0,0,0-9.2,2.2,59.27,59.27,0,0,0-5.9,3.8,13.11,13.11,0,0,0-1.9-6.4l-11.9,3.4a36.92,36.92,0,0,1,1.8,12v37.1h13.4v-36.2c3.1-2.8,6.6-4.6,9.3-4.6,3.5,0,4.5,1.7,4.5,7.5v33.3Zm-66.8-31.2H1380v-.2c0-7.1,2.9-11.1,8-11.1a6.49,6.49,0,0,1,5.9,3c1.2,1.9,1.6,3.9,1.6,7.7Zm13.9,9.8v-3.1c0-10.7-2.1-17.6-6.8-22.4-3.3-3.4-8.9-5.4-14.8-5.4-6.8,0-11.9,2.2-16.1,6.9-4.5,5-6.4,11.1-6.4,20.3,0,16.1,9.5,26.5,24.2,26.5a29.38,29.38,0,0,0,19.3-7.1l-5.2-8c-4.1,3.4-8.4,5.1-13,5.1-6.9,0-10.8-4.5-10.8-12.4v-.4h29.6Zm-49.6-29.8h-14l-6.9,21.5a86.22,86.22,0,0,0-3.1,13c-.7-3.3-2.2-8.9-3.3-12.3l-7.4-23.1-13.7,1.7,18.6,50.4h11.1Zm-67.5,25.3c0,12.1-2.5,17.3-8.3,17.3a7.41,7.41,0,0,1-6.8-4.2c-1.1-2.6-1.7-7-1.7-12.9a36.49,36.49,0,0,1,1.4-11.4,7.33,7.33,0,0,1,12.7-2.5c1.8,2.3,2.7,6.8,2.7,13.7m14.6.1c0-8.3-1.8-13.9-5.9-18.7-4.4-5.2-10.1-7.7-17.4-7.7-13.8,0-23,10.7-23,26.8s9.1,26.5,23,26.5c7.9,0,13-2.7,16.9-7.1,4.4-5,6.4-11,6.4-19.8m-59.8,25.8v-35.8c0-4.9-.3-6.6-1.3-9.5-1.6-4.5-6.8-7.3-13.3-7.3a22.41,22.41,0,0,0-14.5,5.5c0-.6.2-2.7.2-4.3v-10.2a69.07,69.07,0,0,0-.9-12.5L1203.63,211c.6,2.1,1,6.9,1,11.7v59.2h13.6v-36.7c3-2.7,7.3-4.7,10.6-4.7,3.8,0,5.2,1.9,5.2,7v34.4h13.1Zm-72.6-13.3a9.58,9.58,0,0,1-6.6,3.3c-7,0-9.3-3.6-9.3-14.6,0-11.4,2.6-16.4,8.6-16.4,2.4,0,4.8,1.1,7.3,3.3Zm15,13.3c-.9-2-1.9-6.1-1.9-18.7V210l-13.3-2.1v17.6a62.34,62.34,0,0,0,.4,7.6,13.8,13.8,0,0,0-9.1-2.9c-13,0-21.9,11-21.9,27s8.2,26,21.2,26a17.17,17.17,0,0,0,11.8-4.3,9.15,9.15,0,0,0,.8,3h12Zm-59.8,0v-37.4a20.67,20.67,0,0,0-1-7.3c-1.6-4.4-6.6-7.4-12.3-7.4a21.12,21.12,0,0,0-9.2,2.2,59.26,59.26,0,0,0-5.9,3.8,13.11,13.11,0,0,0-1.9-6.4l-11.9,3.4a36.92,36.92,0,0,1,1.8,12v37.1h13.4v-36.2c3.1-2.8,6.6-4.6,9.3-4.6,3.5,0,4.5,1.7,4.5,7.5v33.3Zm-55.8-65.3a8.17,8.17,0,0,0-8-8.3h-.06a8.36,8.36,0,0,0-8.4,8.3,8.25,8.25,0,1,0,16.5,0m-1.6,65.3v-52.4l-13.4,2.1v50.3Zm-25.4,0v-12h-26.26v-18.6h19.7v-11.4h-19.9v-16.1h23.8l1.8-11.4h-39.6v69.5Z" transform="translate(-80 -30)" style="fill:#24357f"/><path d="M2042.9,403l2.66-.83c4.44-1.39,6.56-3.12,8.74-9.84l-1.71.27-.45-2.38c-.58-3.11-3.29-12.79-4.91-17.56l-9.58-27.94-1.8,1.28a16,16,0,0,1-8.67,3.42,15.67,15.67,0,0,1,.93,5.46,18.55,18.55,0,0,1-8.54,15.78c-2.64,1.69-6,2.54-10.21,2.6-4.23,1.54-5.91,2.56-6.58,3.1a5.36,5.36,0,0,0,1.13.1h8c6.38,0,10,.87,13.39,3.22a14.5,14.5,0,0,1,6.61,12.67c0,11.47-8.13,18.11-22.3,18.11-21.75,0-24.1-10.63-24.1-15.2a17.45,17.45,0,0,1,1.17-6.2l.56-1.46,7.64-.65a9,9,0,0,1-6.07-8.69c0-4.39,2.26-7,5.4-8.73a17.32,17.32,0,0,1-7.6-14.17c0-11.36,8.59-19.3,20.9-19.3a25.9,25.9,0,0,1,9.3,1.65,16.57,16.57,0,0,0,5.9,1.15h.19a8.76,8.76,0,0,0,5.23-1.72l1.73-1.27,7.26,7.26-1.38-4,12.5-4.22,11,34.73c.35,1.1.7,2.34,1,3.62l.49-1.67L2071,337h14.22l-18.19,54.89c-3,9-7.22,17.77-17.89,20.34l-2,.49Zm-42.92-5.6a18.52,18.52,0,0,0,8.27,2h.48c9.67,0,9.67-4.19,9.67-6.2,0-2.5-.81-3.39-1.61-3.94-1.38-.94-4-1.36-8.39-1.36-1,0-2.67,0-4.2.05l-3.23,0-1.65,2.63a6.72,6.72,0,0,0-1,3.28A4.08,4.08,0,0,0,2000,397.39Zm7.32-49.95c-3.41,0-6.9.93-6.9,7.8,0,5,2.26,7.4,7.1,7.4,3.21,0,6.5-.92,6.5-7.7C2014,349.33,2012.31,347.44,2007.3,347.44ZM1403,403l2.66-.83c4.44-1.39,6.56-3.12,8.74-9.83l-1.71.27-.45-2.38c-.58-3.11-3.29-12.8-4.91-17.56l-11.25-32.81-3.3,8.11h-9.58v29.6c0,4.9,1.14,4.9,3.9,4.9h.53a7.48,7.48,0,0,0,3.27-.76l2.86-1.4,2.2,10-1.72.88a21.06,21.06,0,0,1-9.5,2.28H1384a17.11,17.11,0,0,1-7.3-1.65c-5.58-2.71-6.23-8.24-6.23-12.16v-31.7H1364V337h6.55c.18-4.63.73-10.08.76-10.35l.18-1.8,13.42-2.95-.43,3.51c-.48,3.83-.78,7.72-.92,11.59h13.65l-.74,1.81,11.84-4,11,34.73c.35,1.1.7,2.34,1,3.62l.49-1.67,10.34-34.5h14.22l-18.19,54.89c-3,9-7.22,17.77-17.89,20.34l-2,.49Zm-93.92-9.64a39.43,39.43,0,0,1-19.54-5.34l-2.06-1.2,5.35-10.35,2.31,1.47a27.38,27.38,0,0,0,14.48,4.31c4.73,0,7.58-2.28,7.58-6.1,0-2.25-.48-4.55-6.21-5.75l-6.2-1.3c-9.13-1.89-14.59-7.93-14.59-16.15,0-10.31,8.5-17.8,20.2-17.8a35.09,35.09,0,0,1,16.4,4.31l2.11,1.16-5.07,10.15-2.22-1.06c-4.56-2.18-7.73-3.36-11.42-3.36-4.26,0-6.9,2.18-6.9,5.7,0,2,.39,3.75,5.21,4.75l6.61,1.4c10.14,2.14,15.28,7.64,15.28,16.34,0,11.07-8.76,18.8-21.3,18.8Zm644.52-.2c-15,0-24-10.84-24-29,0-17.64,9.08-28.6,23.7-28.6,8.09,0,14.72,3.38,19.15,9.78,3.44,5,5,11.33,5,19.92C1977.5,382.45,1968.34,393.14,1953.6,393.14Zm-.34-46.2c-3.58,0-6.79,1.63-8,4-1.45,2.81-2.12,6.57-2.12,11.85,0,7.21,1.38,12.74,2.74,15s4.56,3.79,8,3.79h.5a8.29,8.29,0,0,0,7.92-5.78c1-2.93,1.38-5.44,1.38-10,0-6.61-.65-11-2-13.91a9,9,0,0,0-8.08-5Zm-85,46.2c-15,0-24-10.84-24-29,0-17.64,9.08-28.6,23.7-28.6,8.09,0,14.72,3.38,19.15,9.78,3.44,5,5,11.33,5,19.92C1892.2,382.45,1883,393.14,1868.3,393.14Zm-.34-46.2c-3.58,0-6.79,1.63-8,4-1.45,2.81-2.12,6.58-2.12,11.86,0,7.21,1.38,12.74,2.74,15s4.56,3.79,8,3.79h.5a8.29,8.29,0,0,0,7.92-5.78c1-2.93,1.38-5.44,1.38-10,0-6.61-.65-11-2-13.91a9,9,0,0,0-8.08-5Zm-371.06,46.2c-15,0-24-10.84-24-29,0-17.64,9.08-28.6,23.7-28.6,8.09,0,14.72,3.38,19.15,9.78,3.44,5,5,11.33,5,19.92C1520.8,382.45,1511.64,393.14,1496.9,393.14Zm-.34-46.2c-3.58,0-6.79,1.63-8,4-1.45,2.81-2.12,6.57-2.12,11.86,0,7.21,1.38,12.74,2.74,15s4.56,3.79,8,3.79h.5a8.29,8.29,0,0,0,7.92-5.78c1-2.93,1.38-5.44,1.38-10,0-6.61-.65-11-2-13.91a9,9,0,0,0-8.08-5Zm-469,46.12c-11.34,0-18.28-3.46-22.5-11.21-2.07-3.78-2.3-8.6-2.3-11.89V318.24h13.1v48.7c0,3.94.4,7.52,1,8.92.67,1.55,3.11,5.18,11.1,5.18,4.85,0,8.53-1.2,10.1-3.3,1.8-2.42,2.1-4.79,2.1-9.2v-50.3h13.1v51.3c0,8.24-.94,13.22-6.07,17.62C1042.47,391.24,1036.41,393.06,1027.6,393.06Zm625-.12c-15.14,0-24.56-11.11-24.56-29,0-8.93,1.91-14.84,6.59-20.41.29-.34.57-.66.87-1a22,22,0,0,1,31.17-.74c5,5.09,6.47,10.41,6.47,22.81v1.1h-2.49v2.5H1642c.11,3.82.71,6.45,1.87,8.23,2.67,4.11,7.08,5,10.31,5h.4a14.58,14.58,0,0,0,10.08-4l2.26-2.15,5.68,9.46-1.56,1.38a27.36,27.36,0,0,1-18.09,6.83Zm7.13-35.6c-.23-3.4-.8-5.64-1.82-7.27-1.23-2-3.93-3.23-6.88-3.23-2,0-7.61,0-8.81,10.5Zm-433.83,35.6c-15.14,0-24.56-11.11-24.56-29,0-8.93,1.91-14.84,6.59-20.41.29-.33.57-.65.86-1a22,22,0,0,1,31.18-.74c5,5.09,6.47,10.41,6.47,22.81v3.6h-31.08c.11,3.82.71,6.45,1.88,8.23,2.67,4.11,7.08,5,10.31,5h.4a14.58,14.58,0,0,0,10.08-4l2.26-2.15,5.68,9.46-1.56,1.38a27.36,27.36,0,0,1-18.09,6.83Zm7.13-35.6c-.23-3.4-.8-5.64-1.82-7.27-1.23-2-3.93-3.23-6.88-3.23-2,0-7.61,0-8.81,10.5Zm472.3,35.6c-7.93,0-14-2.88-17.95-8.57-3.59-5.22-5.25-11.29-5.25-19.13,0-10.05,2.62-17.35,8.23-23a20.67,20.67,0,0,1,15.08-6.53h.22c7.38,0,11.7,3.09,15.17,6l1.88,1.56-7.41,9.31-2-1.63c-3.28-2.72-4.91-3.42-7.91-3.42a8.23,8.23,0,0,0-7.21,4.3c-1.66,3-2.5,8.13-2.5,15.1,0,9.82,3.3,14.8,9.8,14.8a11.31,11.31,0,0,0,8.72-4.43l1.88-2.43,7.79,9.07-1.6,1.64C1717.24,390.74,1712.16,392.94,1705.3,392.94Zm209.69-.1h-.35a10.84,10.84,0,0,1-7.21-2.74c-2.21-1.93-3.24-4.79-3.24-9v-52.8a33.85,33.85,0,0,0-1.12-9.56l-.69-2.59,12.75-2.45.58,2.29a46.34,46.34,0,0,1,1.38,12.47v50.83a11.73,11.73,0,0,0,.18,2.5l.42-.09,2.36-.7,3,9.45-1.86,1a12.41,12.41,0,0,1-5.7,1.39Zm-748.85-.5-19.46-54.25,13-2.76,12.46,36.84,12.1-35.13h13.68l-20.56,55.3Zm595.36-.48V355c0-3-.35-4.75-1.11-5.57a5.78,5.78,0,0,0-3.69-1.34h-.4c-3.87,0-8.31,2.53-12,6.81v37h-12.8v-63.9a31.21,31.21,0,0,0-1.2-9.51l-.76-2.63,12.81-2.46.58,2.29a46.28,46.28,0,0,1,1.37,12.47v11.53c0,.43,0,.86,0,1.3,4.62-3.25,9.25-4.9,13.81-4.9,7.1,0,13.49,4.07,15.19,9.67a24.71,24.71,0,0,1,.91,8v38.14l-2.5,0Zm57.4,0v-36.2c0-5-.38-5.67-1.14-6.6a4.76,4.76,0,0,0-3.29-1.31h-.37c-3,0-8.08,2.52-11.3,5.54v38.56h-12.6v-40.9c0-6.22-1.58-9.27-1.59-9.3l-1.46-2.75,3-.85,9.66-2.67.88,1.94a22.65,22.65,0,0,1,1.35,3.87c4.5-3.51,9.07-5.23,13.87-5.23,6.37,0,12.06,3.44,14.48,8.77a16.8,16.8,0,0,1,1.42,6.84v40.29Zm-219.9,0v-61.7h-18.4v-11.9h50.59l-.86,11.9H1611.9v61.7Zm-65.7,0v-43.9h-4.8V337h4.8v-5.3c0-9.25,4.88-13,6.49-14.19a16.19,16.19,0,0,1,9.59-3.13l.75,0h.58a22.5,22.5,0,0,1,11.69,3.27l2,1.22-5.24,9.94-2.27-1.39a13.29,13.29,0,0,0-6.16-1.93c-1.22,0-4.23.12-4.23,6.3V337h15l-4.43,10.9H1546.5v43.9Zm-191.9,0V337.61l13.1-2.1v56.33Zm-83,0v-40.9c0-6.45-1.42-9.45-1.43-9.48l-1.32-2.72,2.91-.81,9.85-2.65.88,1.93a20.45,20.45,0,0,1,1.17,3.33,18.61,18.61,0,0,1,12.15-5,12,12,0,0,1,3.51.63l2.44.83-5,13.23-2.32-.85a4.12,4.12,0,0,0-1.37-.25,9.28,9.28,0,0,0-6.48,2.84c-1.75,1.75-2.19,2.58-2.19,6.16v33.7Zm-132,0V337.61l13.1-2.1v56.33Zm-28.9,0v-36.2c0-5-.38-5.67-1.14-6.6a4.76,4.76,0,0,0-3.29-1.31h-.37c-3,0-8.08,2.52-11.3,5.54v38.56h-12.6v-40.9c0-6.22-1.58-9.27-1.6-9.3l-1.46-2.75,3-.85,9.66-2.67.88,1.94a22.67,22.67,0,0,1,1.35,3.87c4.5-3.51,9.07-5.23,13.87-5.23,6.37,0,12.06,3.44,14.48,8.77a16.76,16.76,0,0,1,1.42,6.84v40.29Zm250.6-59a8.63,8.63,0,0,1,0-17.25h.1a8.63,8.63,0,0,1,0,17.25Zm-215,0a8.63,8.63,0,0,1,0-17.25h.11a8.56,8.56,0,0,1,8.5,8.62,8.6,8.6,0,0,1-8.53,8.63Z" transform="translate(-80 -30)" style="fill:#24357f"/><path d="M1405.79,415.69l-6.19-14.26,5.31-1.66c2.67-.83,4.25-1.64,5.72-4.64l-.84-4.47c-.56-3-3.26-12.63-4.82-17.21L1395.88,347l-1.42,3.48h-8.76v27.1a10.8,10.8,0,0,0,.18,2.37c.32,0,.81,0,1.22,0h.53a5,5,0,0,0,2.17-.5l5.71-2.8,3.3,15-3.45,1.75a23.27,23.27,0,0,1-11.15,2.54h-.17a19.64,19.64,0,0,1-8.4-1.89c-7.65-3.72-7.65-11.77-7.65-14.42v-29.2h-6.5v-15.9h6.67c.22-3.69.57-7.28.65-8.08l.37-3.62,18.63-4.09-.87,7c-.36,2.89-.62,5.84-.78,8.79h9.36l.75-1.83.63,1.83h4l-.08.2,9.08-3.07,10.37,32.83,9-30h19.54l-19.28,58.17c-3.06,9.26-7.79,19.12-19.67,22Zm.61-11.15,2.3,5.3c9-2.16,12.91-9,16.1-18.7l17.1-51.6H1433l-10.29,34.37-2.55,8.67-2.26-8.75c-.35-1.34-.68-2.51-1-3.48L1406.7,338l-7.7,2.6,10.7,31.19c1.68,4.94,4.39,14.64,5,17.91h0l3.33-.52-1.26,3.87C1414.5,400.09,1412.08,402.77,1406.4,404.54Zm-22.15-13.6h.48a18.55,18.55,0,0,0,8.37-2l-1.1-5a10,10,0,0,1-4.9,1H1387c-4.07,0-6.32-1.18-6.32-7.4v-32.1h10.4l2.4-5.9H1381l.09-2.59c.14-4,.45-7.93.93-11.81l-8.2,1.8c-.1,1-.59,6-.75,10.2l-.09,2.4h-6.46v5.9h6.5v34.2c0,5.23,1.49,8.29,4.82,9.91a14.57,14.57,0,0,0,6.2,1.39Zm661.43,24.75-6.19-14.26,5.31-1.66c2.67-.83,4.24-1.64,5.71-4.64l-.84-4.47c-.56-3-3.26-12.63-4.82-17.21l-8.5-24.79a19.42,19.42,0,0,1-6.06,2.79,18.15,18.15,0,0,1,.29,3.45,21,21,0,0,1-9.69,17.85,17,17,0,0,1-3.08,1.55,19.33,19.33,0,0,1,8.88,3.32,17,17,0,0,1,7.68,14.81c0,6.32-2.33,11.61-6.75,15.21s-10.4,5.31-18,5.31c-24.68,0-26.6-13.55-26.6-17.7a20,20,0,0,1,1.33-7.1l1.13-2.92,2.87-.25a12.22,12.22,0,0,1,1.78-15.62,19.68,19.68,0,0,1-6-14c0-12.83,9.62-21.8,23.4-21.8a28.43,28.43,0,0,1,10.1,1.78,14.17,14.17,0,0,0,5.1,1h.22a6.26,6.26,0,0,0,3.72-1.23l3.46-2.55,4.31,4.31,15.42-5.21,10.37,32.83,9-30h19.54l-19.28,58.17c-3.06,9.26-7.79,19.12-19.67,22Zm.61-11.15,2.3,5.3h0c9-2.16,12.91-9,16.1-18.7l17.1-51.6h-8.9l-10.29,34.37-2.55,8.67-2.26-8.75c-.35-1.34-.68-2.51-1-3.48L2046.6,338l-7.7,2.6,4.07,11.87h0l6.63,19.32c1.68,4.94,4.39,14.64,5,17.91l3.33-.52-1.26,3.87c-2.28,7-4.7,9.68-10.37,11.45Zm-57.3-14.6h0a15,15,0,0,0-1,5.31c0,4.73,2.81,12.69,21.6,12.69,6.37,0,11.52-1.45,14.89-4.19s4.91-6.49,4.91-11.42a12,12,0,0,0-5.46-10.57c-3-2.07-6.22-2.82-12-2.82h-8a7.83,7.83,0,0,1-1.66-.16l-5.07-1.1,4-3.28a27.88,27.88,0,0,1,7.3-3.51l.4-.14h.42c3.75,0,6.66-.77,8.9-2.2a16,16,0,0,0,7.39-13.65,13.18,13.18,0,0,0-.78-4.63l-1.12-3.12,3.31-.22c2.54-.17,4.62-1,7.39-3l-4.8-4.8a11.25,11.25,0,0,1-6.71,2.2h-.22a18.81,18.81,0,0,1-6.67-1.28,23.48,23.48,0,0,0-8.51-1.52c-11,0-18.4,6.75-18.4,16.8a14.91,14.91,0,0,0,6.54,12.12l3.28,2.29-3.5,1.94c-2.89,1.6-4.12,3.56-4.12,6.54a6.52,6.52,0,0,0,4.49,6.36l3.47,1.37.33-.53H2001l3.18,0h.34c1.45,0,2.94,0,3.92,0,5.09,0,7.93.52,9.8,1.8s2.7,3.17,2.7,6c0,5.85-4,8.7-12.17,8.7h-.48a21,21,0,0,1-9.39-2.23l-.33-.2a6.55,6.55,0,0,1-2.72-5.71,9.2,9.2,0,0,1,1.4-4.47h0Zm12.32,5.32a16.17,16.17,0,0,0,7.36,1.58c7.23,0,7.23-2.14,7.23-3.7s-.34-1.75-.52-1.87c-.62-.42-2.33-.93-7-.93-1,0-2.42,0-3.84,0h-.32l-1.88,0-.93,1.47a4.22,4.22,0,0,0-.64,2.06A1.62,1.62,0,0,0,2001.32,395.26Zm-692.22.58h0a41.93,41.93,0,0,1-20.78-5.68l-4.11-2.39,7.7-14.89,4.62,2.95a24.88,24.88,0,0,0,13.16,3.92c2.29,0,5-.62,5-3.6,0-1.3,0-2.42-4.23-3.31l-6.2-1.3c-10.22-2.12-16.57-9.24-16.57-18.59,0-11.76,9.55-20.3,22.7-20.3a37.65,37.65,0,0,1,17.61,4.62l4.22,2.31-7.25,14.5-4.43-2.12c-4.23-2-7.13-3.11-10.35-3.11-2,0-4.4.56-4.4,3.2,0,1.06,0,1.64,3.22,2.3l6.62,1.41c14.27,3,17.26,11.88,17.26,18.79C1332.9,387.08,1323.11,395.84,1309.1,395.84Zm-18.3-10h0a36.92,36.92,0,0,0,18.28,5h0c11.07,0,18.8-6.7,18.8-16.3,0-7.46-4.35-12-13.3-13.9l-6.61-1.4c-5-1-7.19-3.2-7.19-7.2,0-4.91,3.78-8.2,9.4-8.2,4.17,0,7.61,1.27,12.5,3.6l2.9-5.8a32.61,32.61,0,0,0-15.23-4c-10.22,0-17.67,6.43-17.67,15.3,0,7,4.59,12,12.59,13.7l6.2,1.3c5.67,1.2,8.2,3.72,8.2,8.2,0,5.22-4,8.6-10.08,8.6a29.89,29.89,0,0,1-15.83-4.7Zm662.8,9.8c-16.35,0-26.5-12.07-26.5-31.5,0-18.89,10.28-31.1,26.2-31.1,8.95,0,16.28,3.75,21.21,10.85,3.75,5.44,5.49,12.22,5.49,21.35C1980,383.71,1969.64,395.64,1953.6,395.64Zm-.3-57.6c-13.27,0-21.2,9.76-21.2,26.1,0,16.84,7.84,26.5,21.5,26.5,13.4,0,21.4-9.5,21.4-25.4,0-8.07-1.46-13.95-4.6-18.51A19.92,19.92,0,0,0,1953.3,338Zm-85,57.6c-16.35,0-26.5-12.07-26.5-31.5,0-18.89,10.28-31.1,26.2-31.1,8.95,0,16.28,3.75,21.21,10.85,3.75,5.44,5.49,12.22,5.49,21.35C1894.7,383.71,1884.34,395.64,1868.3,395.64ZM1868,338c-13.27,0-21.2,9.76-21.2,26.1,0,16.84,7.84,26.5,21.5,26.5,13.4,0,21.4-9.5,21.4-25.4,0-8.07-1.46-13.95-4.6-18.51A19.92,19.92,0,0,0,1868,338Zm-371.1,57.6c-16.35,0-26.5-12.07-26.5-31.5,0-18.89,10.28-31.1,26.2-31.1,9,0,16.28,3.75,21.21,10.85,3.75,5.44,5.49,12.22,5.49,21.35C1523.3,383.71,1512.94,395.64,1496.9,395.64Zm-.3-57.6c-13.28,0-21.2,9.76-21.2,26.1,0,16.84,7.84,26.5,21.5,26.5,13.4,0,21.4-9.5,21.4-25.4,0-8.07-1.46-13.95-4.61-18.51C1509.75,341,1503.84,338,1496.6,338Zm-469,57.52c-12.2,0-20-4-24.69-12.51-2.34-4.28-2.61-9.52-2.61-13.09V315.74h18.1v51.2a28.61,28.61,0,0,0,.8,7.93c.37.85,2.11,3.67,8.8,3.67,4.71,0,7.3-1.24,8.1-2.3,1.25-1.69,1.6-3.35,1.6-7.7v-52.8h18.1v53.8c0,8.8-1.11,14.51-6.95,19.52C1043.61,393.55,1037.05,395.56,1027.6,395.56Zm-22.3-74.82V370c0,3,.21,7.42,2,10.7,3.78,6.94,9.85,9.9,20.3,9.9,8.17,0,13.72-1.63,18-5.3s5.2-8.09,5.2-15.72v-48.8h-8.1v47.8c0,4.88-.39,7.72-2.59,10.69-2.09,2.78-6.38,4.31-12.11,4.31-9.47,0-12.52-4.68-13.4-6.69s-1.2-6.48-1.2-9.91v-46.2ZM1653,395.44h-.4c-16.44,0-27.06-12.36-27.06-31.5,0-9.57,2.08-16,7.17-22,.33-.39.65-.74,1-1.09a24.55,24.55,0,0,1,34.7-.82c5.5,5.63,7.25,11.59,7.25,24.62v3.6h-2.47v2.5h-28.45a10.21,10.21,0,0,0,1.29,4.36c1.66,2.55,4.42,3.84,8.21,3.84h.43a12.08,12.08,0,0,0,8.33-3.33l4.52-4.29,8.35,13.92L1672.7,388A29.86,29.86,0,0,1,1653,395.44Zm-1.56-57.21a19.37,19.37,0,0,0-14.15,6.06c-.27.28-.52.56-.78.86-4.31,5.13-6,10.4-6,18.79,0,16.59,8.25,26.5,22.06,26.5h.42a24.84,24.84,0,0,0,16.42-6.2l-3-5a17.07,17.07,0,0,1-11.8,4.71h-.43c-5.48,0-9.77-2.11-12.37-6.1-1.43-2.19-2.16-5.22-2.28-9.52l-.07-2.57h28.67v-2.5h2.49c-.1-10.75-1.47-15.28-5.76-19.66A19.42,19.42,0,0,0,1651.41,338.24Zm-425.14,57.21h-.4c-16.44,0-27.06-12.36-27.06-31.5,0-9.57,2.08-16,7.17-22,.33-.38.64-.74,1-1.08a24.55,24.55,0,0,1,34.71-.83c5.5,5.63,7.25,11.59,7.25,24.62v6.1H1218a10.22,10.22,0,0,0,1.29,4.36c1.66,2.55,4.42,3.84,8.22,3.84h.43a12.08,12.08,0,0,0,8.33-3.33l4.52-4.29,8.35,13.92L1246,388A29.86,29.86,0,0,1,1226.27,395.44Zm-1.56-57.21a19.38,19.38,0,0,0-14.15,6.06c-.26.27-.52.56-.77.85-4.31,5.13-6,10.4-6,18.79,0,16.59,8.25,26.5,22.06,26.5h.42a24.85,24.85,0,0,0,16.42-6.2l-3-5a17.07,17.07,0,0,1-11.8,4.71h-.43c-5.48,0-9.77-2.11-12.37-6.1-1.43-2.19-2.16-5.22-2.28-9.52l-.07-2.57h31.16v-1.1c0-11.77-1.29-16.49-5.76-21.06A19.42,19.42,0,0,0,1224.71,338.24Zm480.59,57.2c-8.79,0-15.52-3.24-20-9.63-3.9-5.67-5.7-12.2-5.7-20.57,0-10.76,2.85-18.62,9-24.74a23.07,23.07,0,0,1,16.84-7.27h.23c7.82,0,12.68,3.15,16.76,6.56l3.76,3.13-10.52,13.21-3.93-3.25c-3-2.48-4.08-2.85-6.31-2.85a5.73,5.73,0,0,0-5,3c-1,1.84-2.19,5.75-2.19,13.91,0,12.3,5.3,12.3,7.3,12.3a8.77,8.77,0,0,0,6.74-3.46l3.75-4.86,11.29,13.13-3.21,3.28C1718.59,392.94,1712.8,395.44,1705.3,395.44Zm.1-57.2a18.1,18.1,0,0,0-13.23,5.73c-5.18,5.18-7.56,11.92-7.56,21.27,0,7.31,1.53,12.94,4.81,17.72,3.47,5,8.82,7.48,15.89,7.48,6.21,0,10.61-1.91,15.2-6.6l-4.3-5a13.77,13.77,0,0,1-10.65,5.4c-5.67,0-12.35-3-12.35-17.3,0-7.5.92-12.83,2.8-16.3a10.73,10.73,0,0,1,9.4-5.6c3.63,0,5.76.9,9.51,4l4.3-5.4c-3.28-2.73-7-5.4-13.57-5.4Zm210.06,57.11H1915a13.4,13.4,0,0,1-9.21-3.36c-2.74-2.4-4.08-5.95-4.08-10.84v-52.8a31.62,31.62,0,0,0-1-8.92l-1.37-5.18,17.71-3.4,1.15,4.59a48.84,48.84,0,0,1,1.45,13.15v50l2.1-.62,4.33,13.79-3.72,1.93A14.92,14.92,0,0,1,1915.46,395.35Zm-.46-5h.48a9.87,9.87,0,0,0,4.52-1.11h0l-1.6-5.1a5.68,5.68,0,0,1-.74.17l-2.28.35-.54-2.24a14.18,14.18,0,0,1-.24-3.08V328.51a44,44,0,0,0-1.3-11.87l-7.8,1.5h0a36.47,36.47,0,0,1,1.2,10.26v52.74c0,4.48,1.36,6.19,2.39,7.09a8.36,8.36,0,0,0,5.56,2.12Zm-735.92,4.5h-14.69l-21-58.6,17.95-3.82.71,2.11,10.11,29.9,9.72-28.21.58-1.69h19.06Zm-11.18-5h7.7l18.7-50.3H1186L1174.47,373l-2.41,6.84-2.32-6.87L1158,338.24l-8,1.7Zm593.6,4.52H1759V355a10.29,10.29,0,0,0-.43-3.82,3.28,3.28,0,0,0-1.88-.59h-.32c-3,0-6.51,2-9.58,5.26v38.52H1729v-66.4a29,29,0,0,0-1.1-8.82l-1.52-5.26,17.82-3.43,1.15,4.59a48.79,48.79,0,0,1,1.45,13.15v8.3a24.4,24.4,0,0,1,11.3-2.94c8.17,0,15.56,4.81,17.58,11.45a27.34,27.34,0,0,1,1,8.78v40.56l-5,0Zm2.5-5h7.7V353.58a22.31,22.31,0,0,0-.82-7.19c-1.36-4.45-6.86-7.85-12.79-7.85-4,0-8.19,1.49-12.37,4.44l-4,2.85.1-4.94c0-.42,0-.83,0-1.25V328.11a43.93,43.93,0,0,0-1.3-11.86h0l-7.8,1.5A33.82,33.82,0,0,1,1734,328v61.33h7.8v-35.4l.61-.7c4.21-4.87,9.27-7.67,13.88-7.67h.41a8.3,8.3,0,0,1,5.29,1.91l.24.23c1.24,1.35,1.77,3.52,1.77,7.26Zm70.3,5h-17.9v-38.7c0-3.81-.22-4.52-.47-4.89a2.25,2.25,0,0,0-1.46-.52h-.28c-2,0-5.9,1.68-8.88,4.17v39.94h-17.6v-43.4c0-5.44-1.31-8.14-1.32-8.17l-2.89-5.44,6-1.7,11.74-3.24,1.77,3.89q.21.46.4.92a23.26,23.26,0,0,1,12.55-3.75c7.35,0,13.93,4,16.75,10.23a19.38,19.38,0,0,1,1.65,7.89Zm-12.9-5h7.9V351.55a14.38,14.38,0,0,0-1.21-5.84c-2-4.4-6.79-7.27-12.19-7.27-4.24,0-8.28,1.54-12.33,4.7l-3,2.36-.93-3.73a20.25,20.25,0,0,0-1.2-3.44l-7.6,2.1v0c.2.4,1.89,3.84,1.89,10.48v38.4h7.6V352.2l.79-.74c3.21-3,8.85-6.21,13-6.22h.38a7.26,7.26,0,0,1,5,2l.22.24c1.3,1.59,1.71,2.93,1.71,8.19Zm-207,5h-17.9v-61.7h-18.4v-16.9h55.78l-1.22,16.9H1614.4Zm-12.9-5h7.9v-61.7H1628l.5-6.9h-45.4v6.9h18.4Zm-52.5,5h-18.2v-43.9H1526v-15.9h4.8v-2.8c0-7,2.51-12.4,7.47-16.18a18.7,18.7,0,0,1,11.88-3.63,25,25,0,0,1,13.54,3.63l4,2.44-7.58,14.38-4.55-2.79a10.78,10.78,0,0,0-4.93-1.56c-.66,0-1.66.15-1.66,3.8v2.7h16.23l-6.47,15.9H1549Zm-13.2-5h8.2v-43.9h11.4l2.4-5.9H1544v-7.7c0-7.65,4.22-8.8,6.73-8.8h.15a15.82,15.82,0,0,1,7.32,2.3l2.9-5.5a20,20,0,0,0-10.91-2.9H1550a13.73,13.73,0,0,0-8.76,2.64c-1.46,1.11-5.45,4.15-5.45,12.17v7.8H1531v5.9h4.8Zm-178.8,5h-18.1V335.48l5.39-.87a11.13,11.13,0,0,1,3.77-21.57h.12A11.14,11.14,0,0,1,1356,332a11.14,11.14,0,0,1-1,.92l2-.32Zm-13.1-5h8.1v-50.9l-8.1,1.3Zm4.26-71.3h-.08a6.13,6.13,0,0,0,0,12.25h.07a6.13,6.13,0,0,0,0-12.25Zm-74.46,76.3h-17.8v-43.4c0-5.7-1.19-8.4-1.2-8.43l-2.61-5.37,5.79-1.62,11.92-3.21,1.76,3.86.13.29A20.14,20.14,0,0,1,1282.6,333a14.55,14.55,0,0,1,4.32.77l4.88,1.67-6.76,18-4.65-1.69a1.65,1.65,0,0,0-.54-.1,6.71,6.71,0,0,0-4.66,2.08c-1.29,1.29-1.49,1.49-1.49,4.42Zm-12.8-5h7.8v-31.2c0-4,.57-5.57,2.93-7.93a11.69,11.69,0,0,1,8.2-3.57,6.71,6.71,0,0,1,2.28.4l3.2-8.5h0a9.53,9.53,0,0,0-2.79-.5,16.14,16.14,0,0,0-10.41,4.37l-3.06,2.7-1-3.95a17.93,17.93,0,0,0-1-2.92l-7.8,2.1v0c.19.4,1.69,3.79,1.69,10.57Zm-118.9,5h-18.1V335.48l5.39-.87a11.13,11.13,0,0,1,3.77-21.57h.13A11.14,11.14,0,0,1,1141,332a11.29,11.29,0,0,1-1,.92l2-.32Zm-13.1-5h8.1v-50.9l-8.1,1.3Zm4.28-71.3h-.1a6.13,6.13,0,0,0,0,12.25h.07a6.13,6.13,0,0,0,0-12.25Zm-20.28,76.3H1095v-38.7c0-3.82-.22-4.53-.47-4.89a2.25,2.25,0,0,0-1.46-.52h-.29c-2,0-5.9,1.68-8.88,4.17v39.94h-17.6v-43.4c0-5.43-1.31-8.14-1.32-8.17l-2.89-5.44,6-1.7,11.74-3.24,1.77,3.89q.21.46.4.92a23.27,23.27,0,0,1,12.55-3.75c7.35,0,13.93,4,16.75,10.23a19.32,19.32,0,0,1,1.65,7.89Zm-12.9-5h7.9V351.55a14.33,14.33,0,0,0-1.21-5.84c-2-4.4-6.79-7.27-12.19-7.27-4.24,0-8.28,1.54-12.33,4.7l-3,2.36-.93-3.72a20.24,20.24,0,0,0-1.2-3.44l-7.6,2.1v0c.07.14,1.89,3.62,1.89,10.47v38.4h7.6V352.2l.79-.74c3.21-3,8.85-6.21,13-6.22h.38a7.26,7.26,0,0,1,5,2l.22.23c1.3,1.59,1.71,2.93,1.71,8.19Zm854.3-5.19h-.59c-4.23,0-8.2-2-10-5s-3.1-9.54-3.1-16.3c0-5.7.76-9.83,2.4-13s5.7-5.39,10.23-5.4h.21a11.46,11.46,0,0,1,10.34,6.38c1.58,3.26,2.31,8,2.31,15,0,4.92-.38,7.66-1.52,10.87A10.76,10.76,0,0,1,1954.3,384.15Zm-1-34.71c-2.61,0-5,1.11-5.81,2.69-1.26,2.44-1.85,5.84-1.85,10.71,0,7.71,1.56,12.35,2.39,13.73s3.34,2.57,5.81,2.57h.5a5.8,5.8,0,0,0,5.53-4c1-2.71,1.26-4.95,1.26-9.27,0-6.13-.59-10.32-1.8-12.82a6.47,6.47,0,0,0-5.83-3.58ZM1869,384.15h-.58c-4.24,0-8.2-2-10-5s-3.1-9.54-3.1-16.3c0-5.7.76-9.83,2.4-13s5.7-5.39,10.23-5.4h.21a11.46,11.46,0,0,1,10.34,6.38c1.58,3.26,2.31,8,2.31,15,0,4.92-.38,7.66-1.52,10.87A10.76,10.76,0,0,1,1869,384.15Zm-1-34.71c-2.61,0-5,1.11-5.81,2.69-1.26,2.44-1.85,5.84-1.85,10.71,0,7.71,1.56,12.35,2.39,13.73s3.34,2.57,5.81,2.57h.5a5.8,5.8,0,0,0,5.54-4c1-2.71,1.26-4.95,1.26-9.27,0-6.13-.59-10.32-1.8-12.82a6.47,6.47,0,0,0-5.83-3.58ZM1497.6,384.15H1497c-4.23,0-8.2-2-10-5s-3.1-9.54-3.1-16.3c0-5.7.76-9.83,2.4-13s5.7-5.39,10.23-5.4h.21a11.46,11.46,0,0,1,10.34,6.38c1.58,3.26,2.31,8,2.31,15,0,4.92-.38,7.66-1.52,10.87A10.76,10.76,0,0,1,1497.6,384.15Zm-1-34.71c-2.61,0-5,1.11-5.81,2.69-1.26,2.44-1.85,5.84-1.85,10.71,0,7.71,1.56,12.35,2.39,13.73s3.34,2.57,5.81,2.57h.5a5.8,5.8,0,0,0,5.54-4c1-2.71,1.26-4.94,1.26-9.27,0-6.13-.59-10.32-1.8-12.82a6.47,6.47,0,0,0-5.83-3.58Zm510.94,15.7c-6.19,0-9.6-3.52-9.6-9.9,0-6.83,3.16-10.3,9.4-10.3,6.45,0,9.2,3,9.2,10C2016.5,361.71,2013.47,365.14,2007.5,365.14Zm-.2-15.2c-2.26,0-4.4,0-4.4,5.3,0,3.66,1.16,4.9,4.6,4.9,2.06,0,4,0,4-5.2C2011.5,350.18,2010.42,349.94,2007.3,349.94Zm-344.93,9.9h-23l.32-2.78c.66-5.8,3.16-12.72,11.29-12.72,3.84,0,7.29,1.68,9,4.39,1.27,2,1.94,4.62,2.2,8.44Zm-17.21-5h11.75a9.45,9.45,0,0,0-1.15-3.45c-.76-1.21-2.72-2.05-4.76-2.05C1649.48,349.34,1646.52,349.34,1645.16,354.84Zm-409.49,5h-23l.32-2.78c.66-5.8,3.16-12.72,11.29-12.72,3.84,0,7.29,1.68,9,4.39,1.27,2,1.94,4.62,2.2,8.44Zm-17.21-5h11.75a9.43,9.43,0,0,0-1.15-3.45c-.76-1.21-2.72-2.05-4.76-2.05C1222.78,349.34,1219.82,349.34,1218.46,354.84Z" transform="translate(-80 -30)" style="fill:#fff"/><path d="M2081.8,339.54h-8.9l-9.8,32.7c-1.2,4.1-3.1,10.5-3.1,10.5h-.2s-1.5-7.7-3-12.4L2046.6,338l-7.7,2.6,10.7,31.2c1.7,5,4.4,14.7,5,17.9l3.2-.5c-2.7,10.1-5.1,13.3-11.5,15.3l2.3,5.3c8.7-2.1,12.8-8.7,16.1-18.7Zm-65.3,15.4c0,6.7-3,10.2-9,10.2-6.3,0-9.6-3.5-9.6-9.9,0-6.9,3.2-10.3,9.4-10.3,6.6,0,9.2,3.2,9.2,10m17.9-11-4.8-4.8a11.32,11.32,0,0,1-6.9,2.2c-6.1,0-7.6-2.8-15.2-2.8-10.9,0-18.4,6.8-18.4,16.8,0,6.6,4.5,12.3,11.2,14.4-6.8,2.1-9,4.5-9,8.5,0,4.5,3.5,7.2,9.4,7.2,1.6,0,5.7-.1,7.7-.1,4.9,0,7.9.5,9.8,1.8s2.7,3.3,2.7,6c0,6.2-4.4,8.7-12.1,8.7a20.94,20.94,0,0,1-10.1-2.3,6.55,6.55,0,0,1-2.9-5.8,9.21,9.21,0,0,1,1.4-4.5l-8.2.7a15,15,0,0,0-1,5.3c0,7.1,6,12.7,21.6,12.7,12.1,0,19.8-4.9,19.8-15.7a11.94,11.94,0,0,0-5.5-10.5c-3-2.1-6.2-2.8-12-2.8h-8c-2.5,0-4-.9-4-2.4,0-1.7,2.3-3.4,9-5.8,3.6,0,6.8-.6,9.3-2.2a16.16,16.16,0,0,0,7.4-13.7,13.18,13.18,0,0,0-3-8.5,8.62,8.62,0,0,0,3.4.6c3,0,5.3-.8,8.4-3m-68.3,21.9c0,4.9-.4,7.7-1.5,10.8a10.82,10.82,0,0,1-10.8,7.5c-4.3,0-8.3-2-10.1-5s-3.1-9.3-3.1-16.3c0-5.9.8-9.9,2.4-13,1.7-3.3,5.8-5.4,10.2-5.4a11.54,11.54,0,0,1,10.6,6.4c1.6,3.3,2.3,8,2.3,15m8.9-.6c0-8.1-1.5-14-4.6-18.5-3.4-4.9-8.8-8.7-17.1-8.7-13.1,0-21.2,9.9-21.2,26.1,0,16.4,7.8,26.5,21.5,26.5,12.5,0,21.4-8.8,21.4-25.4m-55,24-1.6-5.1a5.65,5.65,0,0,1-1,.2c-2.2,0-2.8-1.1-2.8-5v-50.9a43.81,43.81,0,0,0-1.3-11.8l-7.8,1.5a36.25,36.25,0,0,1,1.2,10.2v52.8c0,3.6.8,5.7,2.4,7.1a8.35,8.35,0,0,0,5.9,2.1,9.87,9.87,0,0,0,5-1.1m-39.2-23.4c0,4.9-.4,7.7-1.5,10.8a10.82,10.82,0,0,1-10.8,7.5c-4.3,0-8.3-2-10.1-5s-3.1-9.3-3.1-16.3c0-5.9.8-9.9,2.4-13,1.7-3.3,5.8-5.4,10.2-5.4a11.54,11.54,0,0,1,10.6,6.4c1.6,3.3,2.3,8,2.3,15m8.9-.6c0-8.1-1.5-14-4.6-18.5-3.4-4.9-8.8-8.7-17.1-8.7-13.1,0-21.2,9.9-21.2,26.1,0,16.4,7.8,26.5,21.5,26.5,12.5,0,21.4-8.8,21.4-25.4m-60.4,24.1v-37.8a14.35,14.35,0,0,0-1.2-5.8c-2-4.4-6.8-7.3-12.2-7.3s-10.5,2.5-15.7,7.7a20.15,20.15,0,0,0-1.8-7.8l-7.6,2.1s1.9,3.4,1.9,10.5v38.4h7.6v-37.1c3.6-3.8,9.8-7,13.8-7a7.3,7.3,0,0,1,5.5,2.1c1.4,1.7,1.8,3,1.8,8.3v33.7h7.9Zm-57.6,0v-35.7a22.18,22.18,0,0,0-.8-7.2c-1.4-4.6-6.8-7.9-12.8-7.9-6.4,0-12.1,3.7-16.6,7.9,0,0,.3-3.6.3-6.8V328a43.82,43.82,0,0,0-1.3-11.8l-7.8,1.5a33.62,33.62,0,0,1,1.3,10.2v61.4h7.8V354c4.3-5.3,9.7-8.4,14.5-8.4a8.27,8.27,0,0,1,5.8,2c1.4,1.4,1.9,3.7,1.9,7.4v34.4h7.7Zm-51.2-5.5-4.3-5a13.89,13.89,0,0,1-10.7,5.4c-8,0-12.3-6.1-12.3-17.3,0-7.3.9-12.8,2.8-16.3a10.74,10.74,0,0,1,9.4-5.6c3.8,0,6,1.1,9.5,4l4.3-5.4c-3.6-3-7.3-5.4-13.6-5.4a18.17,18.17,0,0,0-13.5,5.8c-4.3,4.3-7.5,10.3-7.5,21.2,0,7.4,1.5,12.9,4.8,17.7q5.25,7.5,15.9,7.5c6.2,0,10.6-1.9,15.2-6.6m-58.2-24h-22.8c.4-10.3,4.4-15.5,11.5-15.5,3.8,0,7.3,1.7,9,4.4,1.5,2.4,2.2,5.7,2.3,11.1m8.3,5.9v-1.1c0-11.9-1.4-16.6-5.7-21a19.55,19.55,0,0,0-27.64.66q-.39.41-.76.84c-4.2,5-6,10.4-6,18.8,0,16.5,8.3,26.5,22.1,26.5a24.87,24.87,0,0,0,16.8-6.2l-3-5a17.14,17.14,0,0,1-12.2,4.7c-5,0-9.6-1.8-12.4-6.1-1.7-2.6-2.3-6.2-2.3-10.9v-1.2h31.1Zm-42.1-45h-45.4v6.9h18.4v61.7h7.9v-61.7H1628Zm-67.4-.9a20,20,0,0,0-11-2.9,13.75,13.75,0,0,0-8.8,2.6c-2.1,1.6-5.5,4.8-5.5,12.2v7.8H1531v5.9h4.8v43.9h8.2v-43.9h11.4l2.4-5.9H1544v-7.7c0-5.7,2.4-8.8,6.8-8.8a15.75,15.75,0,0,1,7.4,2.3Zm-51.7,46c0,4.9-.4,7.7-1.5,10.8a10.82,10.82,0,0,1-10.8,7.5c-4.3,0-8.3-2-10.1-5s-3.1-9.3-3.1-16.3c0-5.9.8-9.9,2.4-13,1.7-3.3,5.8-5.4,10.2-5.4a11.54,11.54,0,0,1,10.6,6.4c1.6,3.3,2.3,8,2.3,15m8.9-.6c0-8.1-1.5-14-4.6-18.5-3.4-4.9-8.8-8.7-17.1-8.7-13.1,0-21.2,9.9-21.2,26.1,0,16.4,7.8,26.5,21.5,26.5,12.5,0,21.4-8.8,21.4-25.4m-76.4-25.7H1433l-9.8,32.7c-1.2,4.1-3.1,10.5-3.1,10.5h-.2s-1.5-7.7-3-12.4L1406.7,338l-7.7,2.6,10.7,31.2c1.7,5,4.4,14.7,5,17.9l3.2-.5c-2.7,10.1-5.1,13.3-11.5,15.3l2.3,5.3c8.7-2.1,12.8-8.7,16.1-18.7Zm-48.4,0H1381a134.19,134.19,0,0,1,1-14.4l-8.2,1.8s-.8,7.8-.8,12.6h-6.5v5.9h6.5v34.2c0,5,1.3,8.2,4.8,9.9a14.49,14.49,0,0,0,6.5,1.4,18.45,18.45,0,0,0,8.8-2l-1.1-5a9.93,9.93,0,0,1-4.9,1c-4.9,0-6.4-1.9-6.4-7.4v-32.1h10.4Zm-39.3-15.4a6.06,6.06,0,0,0-6-6.1h-.08a6.15,6.15,0,0,0-6.1,6.2h0a6.1,6.1,0,1,0,12.2-.1m-2.2,65.2v-50.9l-8.1,1.3v49.6Zm-24.1-14.8c0-7.4-4.3-12-13.3-13.9l-6.6-1.4c-5.3-1.1-7.2-3.4-7.2-7.2,0-4.9,3.7-8.2,9.4-8.2,4.4,0,8.1,1.5,12.5,3.6l2.9-5.8a32.45,32.45,0,0,0-15.2-4c-10.4,0-17.7,6.3-17.7,15.3,0,6.9,4.4,12,12.6,13.7l6.2,1.3c5.7,1.2,8.2,3.7,8.2,8.2,0,5.3-4,8.6-10.1,8.6a29.92,29.92,0,0,1-15.8-4.7l-3,5.8a36.88,36.88,0,0,0,18.3,5c11.2,0,18.8-6.6,18.8-16.3m-42.6-36a9.38,9.38,0,0,0-2.7-.5c-5.1,0-10.4,3.2-14,8.3a18,18,0,0,0-1.6-8.1l-7.8,2.1s1.7,3.3,1.7,10.6v38.4h7.8v-31.2c0-4.1.6-5.6,2.9-7.9a11.87,11.87,0,0,1,8.3-3.6,6.65,6.65,0,0,1,2.2.4Zm-49.7,21.3h-22.8c.4-10.3,4.4-15.5,11.5-15.5,3.8,0,7.3,1.7,9,4.4,1.5,2.4,2.2,5.7,2.3,11.1m8.3,5.9v-1.1c0-11.9-1.4-16.6-5.7-21a19.55,19.55,0,0,0-27.64.66q-.39.41-.76.84c-4.2,5-6,10.4-6,18.8,0,16.5,8.3,26.5,22.1,26.5a24.87,24.87,0,0,0,16.8-6.2l-3-5a17.14,17.14,0,0,1-12.2,4.7c-5,0-9.6-1.8-12.4-6.1-1.7-2.6-2.3-6.2-2.3-10.9v-1.2h31.1Zm-49.6-26.2H1186l-11.4,33.1a70.18,70.18,0,0,0-2.4,8.4h-.2s-1-4.4-2.4-8.5l-11.6-34.3-8,1.7,17.9,49.9h7.7Zm-55.1-15.4a6.06,6.06,0,0,0-6-6.1h-.08a6.14,6.14,0,0,0-6.1,6.18v0a6.1,6.1,0,1,0,12.2-.1m-2.2,65.2v-50.9l-8.1,1.3v49.6Zm-29.1,0v-37.8a14.33,14.33,0,0,0-1.2-5.8c-2-4.4-6.8-7.3-12.2-7.3s-10.5,2.5-15.7,7.7a20.15,20.15,0,0,0-1.8-7.8l-7.6,2.1s1.9,3.4,1.9,10.5v38.4h7.6v-37.1c3.6-3.8,9.8-7,13.8-7a7.29,7.29,0,0,1,5.5,2.1c1.4,1.7,1.8,3,1.8,8.3v33.7h7.9Zm-57.1-19.8v-48.8h-8.1v47.8c0,4.6-.3,7.6-2.6,10.7-2.1,2.8-6.4,4.3-12.1,4.3-8.4,0-12.1-3.7-13.4-6.7-.9-2.1-1.2-6.5-1.2-9.9v-46.2h-8.1V370c0,3,.2,7.4,2,10.7,3.7,6.8,9.7,9.9,20.3,9.9,8.3,0,13.8-1.7,18-5.3s5.2-7.4,5.2-15.7" transform="translate(-80 -30)" style="fill:#24357f"/><path d="M1192.92,610.29a16.89,16.89,0,0,1-6.68-4.77q-.6.49-1.22,1l-.13.09a20.16,20.16,0,0,1-10.93,3.21h-.77c-12.74,0-20.05-6.76-20.05-18.5,0-13.34,9.12-20.1,27.1-20.1h.5c0-4.6-.77-4.6-3.5-4.6-3.59,0-8.1,1.81-13.4,5.38l-2.19,1.48-8.29-14,2.06-1.3a52,52,0,0,1,8.67-4.39,36.92,36.92,0,0,1,15-3.19c9.64,0,16.51,3.85,18.87,10.57.82,2.46,1.14,4.4,1,10.07l-.3,17.2c-.09,5.27.22,6.65,3.81,9.36l2.13,1.61-10,11.56Zm-12.44-24.8c-7.67.25-8.05,2-8.05,5.27,0,2.53,1.31,4.17,3.34,4.2a7.22,7.22,0,0,0,4.58-2Zm351,24.8a16.9,16.9,0,0,1-6.68-4.77q-.6.5-1.22,1l-.13.09a20.16,20.16,0,0,1-10.93,3.21h-.77c-12.74,0-20.05-6.76-20.05-18.5,0-13.34,9.12-20.1,27.1-20.1h.5c0-4.6-.77-4.6-3.5-4.6-3.59,0-8.1,1.81-13.4,5.38l-2.19,1.48-8.29-14,2.06-1.3a52,52,0,0,1,8.67-4.39,36.93,36.93,0,0,1,15-3.19c9.64,0,16.51,3.85,18.87,10.57.82,2.46,1.14,4.4,1,10.07l-.3,17.2c-.09,5.27.22,6.65,3.81,9.36l2.13,1.61-10,11.56Zm-12.44-24.8c-7.67.24-8.05,2-8.05,5.27,0,2.53,1.31,4.17,3.34,4.2a7.23,7.23,0,0,0,4.58-2Zm-89.85,24c-6.61,0-14-2.08-21.85-6.18l-2.17-1.13,7.08-14.45,2.34,1.43c4.11,2.51,10.69,5.43,15.7,5.43,2.41,0,4.3-1.45,4.3-3.3,0-1.1,0-2.76-5.85-3.84l-6-1.1a20.51,20.51,0,0,1-10.75-5.93l-.12-.13-.1-.14a17.9,17.9,0,0,1-3.37-10.68c0-11.46,9-19.17,22.3-19.17,9.07,0,15,2.92,19.4,5.05l2.25,1.1-6.62,13.53-2.26-1.15c-4.84-2.47-8.05-3.43-11.46-3.43-.67,0-4,.12-4,2.5,0,.69,0,1.62,4.52,2.78l6.21,1.6c6.56,1.67,9.28,3.79,11.54,6.68a16.1,16.1,0,0,1,3.33,10.32C1453.63,601.11,1443.6,609.46,1429.23,609.46Zm211.23,0c-6.61,0-14-2.08-21.85-6.18l-1.69-.88.71,3.34-1.88.81a30.5,30.5,0,0,1-11.87,2.5h0c-7.83,0-14.18-3.6-16.16-9.16-.95-2.61-1-4-1-8.74v-25.3h-5.1v-7.91l-3.64,11.62-2.7-1.55a5.07,5.07,0,0,0-2.52-.67h-.14a7.74,7.74,0,0,0-5.7,2.77v37.73h-18.4v-36.7c0-6-.65-11.25-1.74-14.11l-1-2.59,16.55-4.41,1,1.69a18.81,18.81,0,0,1,1.41,3.15,15.6,15.6,0,0,1,10.51-4.42h.35a12.9,12.9,0,0,1,5.78,1.37l.27.14v-.31h5.07a91.45,91.45,0,0,1,.55-9.87l.19-1.73,18.75-4.69-.36,3.54c-.43,4.22-.69,8.5-.76,12.75H1618l-5.25,14.2H1605V589c0,5.64.68,5.7,3.21,5.7a15,15,0,0,0,4-.85l2.7-1,1.83,8.61,6.78-13.85,2.34,1.43c4.11,2.51,10.69,5.43,15.7,5.43,2.41,0,4.3-1.45,4.3-3.3,0-1.1,0-2.76-5.86-3.84l-6-1.1a20.51,20.51,0,0,1-10.75-5.93l-.12-.13-.1-.14a17.89,17.89,0,0,1-3.37-10.68c0-11.46,9-19.17,22.3-19.17,9.07,0,15,2.92,19.4,5.05l2.25,1.1L1657,569.91l-2.27-1.15c-4.84-2.47-8.05-3.43-11.46-3.43-.67,0-4,.12-4,2.5,0,.69,0,1.62,4.52,2.78l6.21,1.6c6.56,1.67,9.28,3.79,11.54,6.68a16.11,16.11,0,0,1,3.33,10.32C1664.86,601.08,1654.83,609.43,1640.46,609.43Zm-780.14-.17c-16,0-26.69-11.65-26.69-29,0-9.92,2.11-16.49,7-22,4.71-5.27,10.42-7.73,18-7.73,6.65,0,12.85,2.3,16.59,6.16,5.19,5.3,7.51,12.75,7.51,24.14v5.6H853.24c.56,5.18,3.31,7.8,8.19,7.8,4,0,7.73-1.48,11.4-4.52l2.16-1.79,7.92,12.19-1.66,1.42a31.88,31.88,0,0,1-20.78,7.7Zm3.47-37.6a8.38,8.38,0,0,0-1.17-4.46,4,4,0,0,0-3.37-1.85h-.42c-3.67,0-5,3.06-5.38,6.3Zm-91.27,37.6c-16,0-26.69-11.65-26.69-29,0-9.92,2.11-16.49,7-22,4.71-5.27,10.42-7.73,18-7.73,6.65,0,12.85,2.3,16.59,6.16,5.19,5.3,7.51,12.75,7.51,24.14v5.6H765.44c.56,5.18,3.31,7.8,8.19,7.8,4,0,7.73-1.48,11.4-4.52l2.16-1.79,7.92,12.19-1.66,1.42a31.89,31.89,0,0,1-20.78,7.7Zm3.47-37.6a8.39,8.39,0,0,0-1.17-4.46,4,4,0,0,0-3.37-1.85H771c-3.67,0-5,3.06-5.38,6.3Zm701.35,37.4c-7.84,0-14.18-3.6-16.16-9.16-.95-2.6-1-4-1-8.74v-25.3H1455v-14.2h5.07a91.48,91.48,0,0,1,.55-9.87l.19-1.73,18.75-4.69-.36,3.54c-.43,4.21-.69,8.49-.76,12.75h13.07l-5.25,14.2h-7.84v23.2c0,5.64.68,5.7,3.21,5.7a15,15,0,0,0,4-.85l2.7-1,2.72,12.81-1.88.81a30.47,30.47,0,0,1-11.87,2.5h0Zm-250.3,0c-7.83,0-14.18-3.6-16.16-9.16-.95-2.6-1-4-1-8.74v-25.3h-5.1v-14.2h5.07a91.48,91.48,0,0,1,.55-9.87l.19-1.73,18.75-4.69-.36,3.54c-.43,4.22-.69,8.5-.76,12.75h13.07l-5.25,14.2h-7.84v23.2c0,5.64.68,5.7,3.21,5.7a15,15,0,0,0,4-.85l2.7-1,2.72,12.81-1.88.81a30.47,30.47,0,0,1-11.87,2.5h0Zm70.3-.1c-15.25,0-25.5-11.65-25.5-29,0-17.53,10.25-29.3,25.5-29.3,8.1,0,14.42,2.81,19.31,8.59,4.49,5.25,6.49,11.52,6.49,20.31,0,9.32-2.17,15.93-7,21.45S1305.33,609,1297.33,609Zm-4.12-17.43a4.94,4.94,0,0,0,4.4,2.73h.12c1.88,0,5.8,0,5.8-14.8,0-7.76-1.18-10.9-2.17-12.16a4.85,4.85,0,0,0-3.72-1.75A4.86,4.86,0,0,0,1293,569a34,34,0,0,0-1.29,10.59C1291.73,586.84,1292.64,590.17,1293.21,591.53ZM1076.93,609c-15.25,0-25.5-11.65-25.5-29,0-17.53,10.25-29.3,25.5-29.3,8.1,0,14.42,2.81,19.31,8.58,4.49,5.25,6.49,11.52,6.49,20.31,0,9.32-2.17,15.93-7,21.45S1084.93,609,1076.93,609Zm-4.12-17.43a4.94,4.94,0,0,0,4.4,2.73h.12c1.88,0,5.8,0,5.8-14.8,0-7.76-1.18-10.9-2.17-12.16a4.85,4.85,0,0,0-3.72-1.75,4.86,4.86,0,0,0-4.62,3.43,33.88,33.88,0,0,0-1.29,10.58C1071.33,586.84,1072.25,590.17,1072.81,591.53ZM649.72,608.46l-6.63-30.26q-.48-2.11-.92-4.25c-.25,1.31-.51,2.66-.79,4l-6.21,30.49H615.25l-17.78-75.1h20l6.43,29.37q.69,3.15,1.28,6.33c.34-1.85.72-3.74,1.13-5.63l6.63-30.07h19.35l6.81,33.1c.16.81.33,1.7.5,2.64.48-2.77,1-5.39,1.41-7.37l6.12-28.36H687l-18,75.1Zm708.11-.6v-35.8c0-5-.59-5-2-5-1.77,0-4.36,1.25-6.8,3.25v37.55h-18.4v-39.6A34.38,34.38,0,0,0,1329,557l-.8-2.46,16.22-4.63,1,1.63a15.6,15.6,0,0,1,1.56,3.45q1.42-.91,2.88-1.73l.11-.06a23.75,23.75,0,0,1,10.29-2.46c6.82,0,12.71,3.63,14.67,9A23.19,23.19,0,0,1,1376,568v39.85Zm-111.9,0V552.92l18.4-2.88v57.82Zm-125.34,0-20.3-55,18.89-2.34,8,25.07c.23.7.47,1.49.72,2.34q.43-1.53.92-3l7.46-23.23h19.4l-20.53,56.2Zm-94.86,0v-35.8c0-5-.59-5-2-5-1.77,0-4.36,1.25-6.8,3.25v37.55h-18.4v-39.6A34.43,34.43,0,0,0,996.85,557l-.8-2.46,16.22-4.63,1,1.63a15.62,15.62,0,0,1,1.56,3.45q1.42-.91,2.88-1.73l.12-.06a23.75,23.75,0,0,1,10.29-2.46c6.82,0,12.7,3.64,14.67,9a23.18,23.18,0,0,1,1.15,8.21v39.85Zm-56.4,0v-35.8c0-5-.59-5-2-5-1.77,0-4.36,1.25-6.8,3.25v37.55h-18.4v-39.6A34.41,34.41,0,0,0,940.45,557l-.8-2.46,16.22-4.63,1,1.63a15.62,15.62,0,0,1,1.56,3.45q1.42-.91,2.88-1.73l.12-.06a23.75,23.75,0,0,1,10.29-2.46c6.82,0,12.7,3.64,14.67,9a23.17,23.17,0,0,1,1.15,8.21v39.85Zm-56.6,0V552.92l18.4-2.88v57.82Zm-111.3,0v-36.7c0-6-.65-11.25-1.74-14.11l-1-2.59L815.26,550l1,1.69a18.91,18.91,0,0,1,1.41,3.15,15.61,15.61,0,0,1,10.51-4.42h.35a12.89,12.89,0,0,1,5.78,1.37l1.9,1-5.27,16.8-2.7-1.55a5.06,5.06,0,0,0-2.52-.67h-.14a7.74,7.74,0,0,0-5.7,2.77v37.73Zm-81.7,0V571c0-4.5-1-4.5-2.7-4.5-2.3,0-5.57,1.38-8.1,3.36v38h-18.6v-61.7a51.93,51.93,0,0,0-.9-11l-.72-2.52,18.86-4.41.43,2.64a71.65,71.65,0,0,1,.93,13v9.54a25,25,0,0,1,11.78-3.08c7.71,0,13.71,3.43,15.68,9,1.16,3.37,1.44,5.4,1.44,10.34v38.3h-18.1Zm535.45-57.05a10.76,10.76,0,0,1-10.75-10.75,10.89,10.89,0,0,1,10.86-10.8h.15a10.68,10.68,0,0,1,10.49,10.83A10.75,10.75,0,0,1,1255.18,550.81Zm-333.2,0a10.76,10.76,0,0,1-10.75-10.75,10.91,10.91,0,0,1,10.87-10.8h.12a10.78,10.78,0,0,1-.24,21.55Z" transform="translate(-80 -30)" style="fill:#24357f;stroke:#fff;stroke-miterlimit:10;stroke-width:5px"/><path d="M1662.36,589.13a13.55,13.55,0,0,0-2.8-8.7c-1.8-2.3-3.9-4.2-10.2-5.8l-6.2-1.6c-4.7-1.2-6.4-2.6-6.4-5.2,0-3,2.6-5,6.5-5s7.5,1.1,12.6,3.7l4.4-9c-4.7-2.3-10.1-4.8-18.3-4.8-11.9,0-19.8,6.7-19.8,16.7a15.51,15.51,0,0,0,2.9,9.2,18.06,18.06,0,0,0,9.4,5.2l6,1.1c5.4,1,7.9,2.8,7.9,6.3,0,3.3-3,5.8-6.8,5.8-5.8,0-12.9-3.3-17-5.8l-4.8,9.8c7.5,3.9,14.4,5.9,20.7,5.9,13.1,0,21.9-7.2,21.9-17.8m-47.6,15.1-1.7-8a17.55,17.55,0,0,1-4.8,1c-4.6,0-5.8-1.7-5.8-8.2v-25.7h8.6l3.4-9.2h-12a152.94,152.94,0,0,1,.8-15.5l-13.6,3.4a88.67,88.67,0,0,0-.5,12.1h-5.1v9.2h5.1v27.8c0,4.7.1,5.7.9,7.9,1.6,4.5,7,7.5,13.8,7.5a28.15,28.15,0,0,0,10.9-2.3m-34.6-50.2a10.33,10.33,0,0,0-5-1.1c-5,0-9.1,3.4-12,7.3a16.44,16.44,0,0,0-2.1-7.3l-12,3.2c1.1,2.9,1.9,8.1,1.9,15v34.2h13.4v-36.2c2.5-2.9,5.2-4.3,8.2-4.3a7.56,7.56,0,0,1,3.9,1ZM1521.63,583l-.2,11a9.71,9.71,0,0,1-7,3.5c-3.4,0-5.9-2.7-5.9-6.7,0-6.1,3.2-7.8,12.5-7.8Zm17.9,16.8c-4.5-3.4-4.9-5.8-4.8-11.4l.3-17.2c.1-5.5-.2-7.1-.9-9.2-2-5.7-7.9-8.9-16.5-8.9a34.66,34.66,0,0,0-14,3,49.27,49.27,0,0,0-8.3,4.2l5.7,9.6c5.5-3.7,10.5-5.8,14.8-5.8,4.9,0,6,1.9,6,7.6v2.1c-1.1-.1-2-.1-3-.1-16.3,0-24.6,5.6-24.6,17.6,0,10.2,6.2,16,17.6,16a17.7,17.7,0,0,0,10.3-2.8,24.92,24.92,0,0,0,3.1-2.7,14.32,14.32,0,0,0,7.2,6.2Zm-51.3,4.5-1.7-8a17.54,17.54,0,0,1-4.8,1c-4.6,0-5.8-1.7-5.8-8.2v-25.7h8.6l3.4-9.2h-12a153,153,0,0,1,.8-15.5l-13.6,3.4a88.67,88.67,0,0,0-.5,12.1h-5.1v9.2h5.1v27.8c0,4.7.1,5.7.9,7.9,1.6,4.5,7,7.5,13.8,7.5a28.15,28.15,0,0,0,10.9-2.3m-37.1-15.1a13.54,13.54,0,0,0-2.8-8.7c-1.8-2.3-3.9-4.2-10.2-5.8l-6.2-1.6c-4.7-1.2-6.4-2.6-6.4-5.2,0-3,2.6-5,6.5-5s7.5,1.1,12.6,3.7l4.4-9c-4.7-2.3-10.1-4.8-18.3-4.8-11.9,0-19.8,6.7-19.8,16.7a15.51,15.51,0,0,0,2.9,9.2,18.06,18.06,0,0,0,9.4,5.2l6,1.1c5.4,1,7.9,2.8,7.9,6.3,0,3.3-3,5.8-6.8,5.8-5.8,0-12.9-3.3-17-5.8l-4.8,9.8c7.5,3.9,14.4,5.9,20.7,5.9,13.1,0,21.9-7.2,21.9-17.8m-77.6,16.2V568a20.67,20.67,0,0,0-1-7.3c-1.6-4.4-6.6-7.4-12.3-7.4a21.1,21.1,0,0,0-9.2,2.2,59.07,59.07,0,0,0-5.9,3.8,13.11,13.11,0,0,0-1.9-6.4l-11.9,3.4a36.89,36.89,0,0,1,1.8,12v37.1h13.4v-36.2c3.1-2.8,6.6-4.6,9.3-4.6,3.5,0,4.5,1.7,4.5,7.5v33.3h13.2Zm-67.5-25.9c0,12.1-2.5,17.3-8.3,17.3a7.41,7.41,0,0,1-6.8-4.2c-1.1-2.6-1.7-7-1.7-12.9a36.52,36.52,0,0,1,1.4-11.4,7.33,7.33,0,0,1,12.7-2.5c1.8,2.3,2.7,6.8,2.7,13.7m14.6.1c0-8.3-1.8-13.9-5.9-18.7-4.4-5.2-10.1-7.7-17.4-7.7-13.8,0-23,10.7-23,26.8s9.1,26.5,23,26.5c7.9,0,13-2.7,16.9-7.1,4.4-5,6.4-11,6.4-19.8m-57.2-39.5a8.18,8.18,0,0,0-8.06-8.3h0a8.36,8.36,0,0,0-8.4,8.3,8.25,8.25,0,1,0,16.5,0h0m-1.6,65.3V553l-13.4,2.1v50.3Zm-23.9-1.1-1.7-8a17.55,17.55,0,0,1-4.8,1c-4.6,0-5.8-1.7-5.8-8.2v-25.7h8.6l3.4-9.2h-12a152.94,152.94,0,0,1,.8-15.5l-13.6,3.4a88.67,88.67,0,0,0-.5,12.1h-5.1v9.2h5.1v27.8c0,4.7.1,5.7.9,7.9,1.6,4.5,7,7.5,13.8,7.5a28.15,28.15,0,0,0,10.9-2.3M1183,583l-.2,11a9.71,9.71,0,0,1-7,3.5c-3.4,0-5.9-2.7-5.9-6.7,0-6.1,3.2-7.8,12.5-7.8Zm17.9,16.8c-4.5-3.4-4.9-5.8-4.8-11.4l.3-17.2c.1-5.5-.2-7.1-.9-9.2-2-5.7-7.9-8.9-16.5-8.9a34.65,34.65,0,0,0-14,3,49.27,49.27,0,0,0-8.3,4.2l5.7,9.6c5.5-3.7,10.5-5.8,14.8-5.8,4.9,0,6,1.9,6,7.6v2.1c-1.1-.1-2-.1-3-.1-16.3,0-24.6,5.6-24.6,17.6,0,10.2,6.2,16,17.6,16a17.7,17.7,0,0,0,10.3-2.8,24.91,24.91,0,0,0,3.1-2.7,14.33,14.33,0,0,0,7.2,6.2Zm-48.8-45.6h-14l-6.9,21.5a86.25,86.25,0,0,0-3.1,13c-.7-3.3-2.2-8.9-3.3-12.3l-7.4-23.1-13.7,1.7,18.6,50.4h11.1Zm-66.5,25.3c0,12.1-2.5,17.3-8.3,17.3a7.41,7.41,0,0,1-6.8-4.2c-1.1-2.6-1.7-7-1.7-12.9a36.49,36.49,0,0,1,1.4-11.4,7.33,7.33,0,0,1,12.7-2.5c1.8,2.3,2.7,6.8,2.7,13.7m14.6.1c0-8.3-1.8-13.9-5.9-18.7-4.4-5.2-10.1-7.7-17.4-7.7-13.8,0-23,10.7-23,26.8s9.1,26.5,23,26.5c7.9,0,13-2.7,16.9-7.1,4.4-5,6.4-11,6.4-19.8m-58.8,25.8V568a20.67,20.67,0,0,0-1-7.3c-1.6-4.4-6.6-7.4-12.3-7.4a21.11,21.11,0,0,0-9.2,2.2,59.08,59.08,0,0,0-5.9,3.8,13.11,13.11,0,0,0-1.9-6.4l-11.9,3.4a36.92,36.92,0,0,1,1.8,12v37.1h13.4v-36.2c3.1-2.8,6.6-4.6,9.3-4.6,3.5,0,4.5,1.7,4.5,7.5v33.3h13.2Zm-56.4,0V568a20.67,20.67,0,0,0-1-7.3c-1.6-4.4-6.6-7.4-12.3-7.4a21.11,21.11,0,0,0-9.2,2.2,59.08,59.08,0,0,0-5.9,3.8,13.11,13.11,0,0,0-1.9-6.4l-11.9,3.4a36.92,36.92,0,0,1,1.8,12v37.1H958v-36.2c3.1-2.8,6.6-4.6,9.3-4.6,3.5,0,4.5,1.7,4.5,7.5v33.3H985Zm-54.8-65.3a8.17,8.17,0,0,0-8-8.3h-.06a8.37,8.37,0,0,0-8.4,8.3,8.25,8.25,0,0,0,16.5,0m-1.6,65.3V553l-13.4,2.1v50.3h13.4Zm-62.3-31.2h-15.5V574c0-7.1,2.9-11.1,8-11.1a6.49,6.49,0,0,1,5.9,3c1.2,1.9,1.6,3.9,1.6,7.7Zm13.9,9.8v-3.1c0-10.7-2.1-17.6-6.8-22.4-3.3-3.4-8.9-5.4-14.8-5.4-6.8,0-11.9,2.2-16.1,6.9-4.5,5-6.4,11.1-6.4,20.3,0,16.1,9.5,26.5,24.2,26.5a29.37,29.37,0,0,0,19.3-7.1l-5.2-8c-4.1,3.4-8.4,5.1-13,5.1-6.9,0-10.8-4.5-10.8-12.4V584h29.6Zm-47.1-29.9a10.33,10.33,0,0,0-5-1.1c-5,0-9.1,3.4-12,7.3A16.45,16.45,0,0,0,814,553l-12,3.2c1.1,2.9,1.9,8.1,1.9,15v34.2h13.4v-36.2c2.5-2.9,5.2-4.3,8.2-4.3a7.56,7.56,0,0,1,3.9,1Zm-54.6,20.1H763V574c0-7.1,2.9-11.1,8-11.1a6.49,6.49,0,0,1,5.9,3c1.2,1.9,1.6,3.9,1.6,7.7Zm13.9,9.8v-3.1c0-10.7-2.1-17.6-6.8-22.4-3.3-3.4-8.9-5.4-14.8-5.4-6.8,0-11.9,2.2-16.1,6.9-4.5,5-6.4,11.1-6.4,20.3,0,16.1,9.5,26.5,24.2,26.5a29.37,29.37,0,0,0,19.3-7.1l-5.2-8c-4.1,3.4-8.4,5.1-13,5.1-6.9,0-10.8-4.5-10.8-12.4V584h29.6Zm-57.1,21.4v-35.8c0-4.9-.3-6.6-1.3-9.5-1.6-4.5-6.8-7.3-13.3-7.3a22.42,22.42,0,0,0-14.5,5.5c0-.6.2-2.7.2-4.3v-10.2a69,69,0,0,0-.9-12.5l-13.7,3.2c.6,2.1,1,6.9,1,11.7v59.2h13.6v-36.7c3-2.7,7.3-4.7,10.6-4.7,3.8,0,5.2,1.9,5.2,7v34.4h13.1Zm-51.5-69.5h-14.7l-5.7,26.4c-1.5,6.8-3.6,20.9-3.8,23.1,0,0-1.7-11.9-3-18.4l-6.4-31.1h-15.3l-6.2,28.1c-2.1,9.6-3.3,19.5-3.6,22.2a212,212,0,0,0-3.7-22.9l-6-27.4h-14.8l16.6,70.1h15.9l5.8-28.5c1.9-9.2,3.1-18,3.3-19.6a167.53,167.53,0,0,0,3.3,19.8l6.2,28.3H667Z" transform="translate(-80 -30)" style="fill:#24357f"/></svg>